KanzAlMarjaan-Regular.ufo
<glyph name="exclam" format="2">
  <advance width="452"/>
  <unicode hex="0021"/>
  <outline>
    <contour>
      <point x="181.25" y="309.375" type="line"/>
      <point x="164.0625" y="900.0" type="line"/>
      <point x="160.9375" y="1046.875" type="line"/>
      <point x="290.625" y="1046.875" type="line"/>
      <point x="287.5" y="900.0" type="line"/>
      <point x="270.3125" y="309.375" type="line"/>
    </contour>
    <contour>
      <point x="226.5625" y="-18.75" type="curve" smooth="yes"/>
      <point x="176.5625" y="-18.75"/>
      <point x="132.8125" y="21.875"/>
      <point x="132.8125" y="78.125" type="curve" smooth="yes"/>
      <point x="132.8125" y="138.5416666666666"/>
      <point x="176.56249999999994" y="178.125"/>
      <point x="226.5625" y="178.125" type="curve" smooth="yes"/>
      <point x="278.6458333333333" y="178.125"/>
      <point x="318.75" y="138.54166666666669"/>
      <point x="318.75" y="78.125" type="curve" smooth="yes"/>
      <point x="318.75" y="21.874999999999957"/>
      <point x="278.64583333333326" y="-18.75"/>
    </contour>
  </outline>
</glyph>
<glyph name="quotedbl" format="2">
  <advance width="666"/>
  <unicode hex="0022"/>
  <outline>
    <contour>
      <point x="125" y="982"/>
      <point x="133" y="847"/>
      <point x="125" y="1078" type="curve"/>
      <point x="262" y="1078" type="line"/>
      <point x="255" y="847"/>
      <point x="262" y="982"/>
      <point x="233" y="673" type="curve"/>
      <point x="155" y="673" type="line"/>
    </contour>
    <contour>
      <point x="402" y="982"/>
      <point x="409" y="847"/>
      <point x="402" y="1078" type="curve"/>
      <point x="539" y="1078" type="line"/>
      <point x="532" y="847"/>
      <point x="539" y="982"/>
      <point x="509" y="673" type="curve"/>
      <point x="431" y="673" type="line"/>
    </contour>
  </outline>
</glyph>
<glyph name="numbersign" format="2">
  <advance width="777"/>
  <unicode hex="0023"/>
  <outline>
    <contour>
      <point x="177" y="314" type="line"/>
      <point x="53" y="314" type="line"/>
      <point x="53" y="412" type="line"/>
      <point x="186" y="412" type="line"/>
      <point x="214" y="636" type="line"/>
      <point x="84" y="636" type="line"/>
      <point x="84" y="734" type="line"/>
      <point x="225" y="734" type="line"/>
      <point x="262" y="1016" type="line"/>
      <point x="356" y="1016" type="line"/>
      <point x="319" y="734" type="line"/>
      <point x="514" y="734" type="line"/>
      <point x="552" y="1016" type="line"/>
      <point x="645" y="1016" type="line"/>
      <point x="608" y="734" type="line"/>
      <point x="733" y="734" type="line"/>
      <point x="733" y="636" type="line"/>
      <point x="598" y="636" type="line"/>
      <point x="569" y="412" type="line"/>
      <point x="702" y="412" type="line"/>
      <point x="702" y="314" type="line"/>
      <point x="558" y="314" type="line"/>
      <point x="520" y="0" type="line"/>
      <point x="427" y="0" type="line"/>
      <point x="464" y="314" type="line"/>
      <point x="270" y="314" type="line"/>
      <point x="231" y="0" type="line"/>
      <point x="138" y="0" type="line"/>
    </contour>
    <contour>
      <point x="475" y="412" type="line"/>
      <point x="505" y="636" type="line"/>
      <point x="308" y="636" type="line"/>
      <point x="280" y="412" type="line"/>
    </contour>
  </outline>
</glyph>
<glyph name="dollar" format="2">
  <advance width="777"/>
  <unicode hex="0024"/>
  <outline>
    <contour>
      <point x="142" y="188" type="line"/>
      <point x="181" y="153"/>
      <point x="222" y="124"/>
      <point x="271" y="107" type="curve" smooth="yes"/>
      <point x="407" y="58"/>
      <point x="574" y="101"/>
      <point x="555" y="276" type="curve" smooth="yes"/>
      <point x="546" y="365"/>
      <point x="462" y="411"/>
      <point x="392" y="451" type="curve" smooth="yes"/>
      <point x="243" y="537"/>
      <point x="76" y="619"/>
      <point x="130" y="825" type="curve" smooth="yes"/>
      <point x="175" y="998"/>
      <point x="380" y="1053"/>
      <point x="532" y="991" type="curve" smooth="yes"/>
      <point x="584" y="970"/>
      <point x="626" y="934"/>
      <point x="662" y="892" type="curve"/>
      <point x="594" y="822" type="line"/>
      <point x="570" y="848"/>
      <point x="544" y="871"/>
      <point x="512" y="886" type="curve" smooth="yes"/>
      <point x="396" y="939"/>
      <point x="230" y="896"/>
      <point x="248" y="742" type="curve" smooth="yes"/>
      <point x="258" y="657"/>
      <point x="345" y="615"/>
      <point x="411" y="578" type="curve" smooth="yes"/>
      <point x="537" y="509"/>
      <point x="687" y="433"/>
      <point x="683" y="267" type="curve" smooth="yes"/>
      <point x="682" y="227"/>
      <point x="677" y="188"/>
      <point x="661" y="150" type="curve" smooth="yes"/>
      <point x="566" y="-88"/>
      <point x="230" y="-50"/>
      <point x="81" y="108" type="curve"/>
    </contour>
    <contour>
      <point x="347" y="27" type="line"/>
      <point x="441" y="27" type="line"/>
      <point x="441" y="-172" type="line"/>
      <point x="347" y="-172" type="line"/>
    </contour>
    <contour>
      <point x="347" y="1169" type="line"/>
      <point x="441" y="1169" type="line"/>
      <point x="441" y="967" type="line"/>
      <point x="347" y="967" type="line"/>
    </contour>
  </outline>
</glyph>
<glyph name="percent" format="2">
  <advance width="1288"/>
  <unicode hex="0025"/>
  <outline>
    <contour>
      <point x="231" y="401"/>
      <point x="181" y="415"/>
      <point x="140" y="456" type="curve" smooth="yes"/>
      <point x="71" y="526"/>
      <point x="56" y="629"/>
      <point x="55" y="722" type="curve" smooth="yes"/>
      <point x="52" y="881"/>
      <point x="112" y="1032"/>
      <point x="288" y="1044" type="curve" smooth="yes"/>
      <point x="463" y="1032"/>
      <point x="523" y="881"/>
      <point x="520" y="722" type="curve" smooth="yes"/>
      <point x="519" y="629"/>
      <point x="504" y="526"/>
      <point x="435" y="456" type="curve" smooth="yes"/>
      <point x="394" y="415"/>
      <point x="344" y="401"/>
      <point x="288" y="397" type="curve" smooth="yes"/>
    </contour>
    <contour>
      <point x="459" y="492"/>
      <point x="455" y="853"/>
      <point x="358" y="938" type="curve" smooth="yes"/>
      <point x="338" y="956"/>
      <point x="314" y="962"/>
      <point x="288" y="964" type="curve" smooth="yes"/>
      <point x="261" y="962"/>
      <point x="238" y="956"/>
      <point x="217" y="938" type="curve" smooth="yes"/>
      <point x="115" y="848"/>
      <point x="116" y="492"/>
      <point x="288" y="477" type="curve" smooth="yes"/>
    </contour>
    <contour>
      <point x="883" y="1044" type="line"/>
      <point x="970" y="1044" type="line"/>
      <point x="405" y="-19" type="line"/>
      <point x="317" y="-19" type="line"/>
    </contour>
    <contour>
      <point x="945" y="-15"/>
      <point x="895" y="-1"/>
      <point x="854" y="41" type="curve" smooth="yes"/>
      <point x="786" y="110"/>
      <point x="771" y="213"/>
      <point x="769" y="306" type="curve" smooth="yes"/>
      <point x="766" y="465"/>
      <point x="826" y="616"/>
      <point x="1002" y="628" type="curve" smooth="yes"/>
      <point x="1177" y="616"/>
      <point x="1237" y="465"/>
      <point x="1234" y="306" type="curve" smooth="yes"/>
      <point x="1233" y="213"/>
      <point x="1218" y="110"/>
      <point x="1149" y="41" type="curve" smooth="yes"/>
      <point x="1108" y="-1"/>
      <point x="1058" y="-15"/>
      <point x="1002" y="-19" type="curve" smooth="yes"/>
    </contour>
    <contour>
      <point x="1173" y="76"/>
      <point x="1169" y="437"/>
      <point x="1073" y="522" type="curve" smooth="yes"/>
      <point x="1052" y="541"/>
      <point x="1028" y="546"/>
      <point x="1002" y="548" type="curve" smooth="yes"/>
      <point x="975" y="546"/>
      <point x="952" y="540"/>
      <point x="931" y="522" type="curve" smooth="yes"/>
      <point x="829" y="433"/>
      <point x="830" y="76"/>
      <point x="1002" y="61" type="curve" smooth="yes"/>
    </contour>
  </outline>
</glyph>
<glyph name="ampersand" format="2">
  <advance width="952"/>
  <unicode hex="0026"/>
  <outline>
    <contour>
      <point x="368.75" y="-18.75" type="curve" smooth="yes"/>
      <point x="184.37499999999991" y="-18.75"/>
      <point x="50.0" y="90.62499999999997"/>
      <point x="50.0" y="265.625" type="curve" smooth="yes"/>
      <point x="50.0" y="365.62499999999983"/>
      <point x="99.21874999999993" y="441.4062499999999"/>
      <point x="171.09375" y="500.78125" type="curve" smooth="yes"/>
      <point x="278.9062499999998" y="589.8437499999998"/>
      <point x="415.6249999999997" y="655.4687499999997"/>
      <point x="484.375" y="741.40625" type="curve" smooth="yes"/>
      <point x="507.29166666666663" y="770.0520833333333"/>
      <point x="518.75" y="802.6041666666666"/>
      <point x="518.75" y="839.0625" type="curve" smooth="yes"/>
      <point x="518.75" y="899.4791666666663"/>
      <point x="490.6250000000001" y="951.5625"/>
      <point x="421.875" y="951.5625" type="curve" smooth="yes"/>
      <point x="346.875" y="951.5625"/>
      <point x="295.3125" y="888.5416666666664"/>
      <point x="295.3125" y="803.125" type="curve" smooth="yes"/>
      <point x="295.3125" y="607.2916666666663"/>
      <point x="507.2916666666664" y="359.375"/>
      <point x="703.125" y="209.375" type="curve" smooth="yes"/>
      <point x="784.3749999999999" y="146.87500000000006"/>
      <point x="869.7916666666664" y="108.33333333333334"/>
      <point x="928.125" y="87.5" type="curve"/>
      <point x="893.75" y="-18.75" type="line"/>
      <point x="812.5" y="4.166666666666666"/>
      <point x="720.8333333333333" y="52.60416666666665"/>
      <point x="625.0" y="123.4375" type="curve" smooth="yes"/>
      <point x="514.5833333333333" y="210.93749999999991"/>
      <point x="403.6458333333332" y="324.2187499999999"/>
      <point x="320.3125" y="446.09375" type="curve" smooth="yes"/>
      <point x="236.97916666666666" y="567.96875"/>
      <point x="184.37499999999994" y="691.1458333333333"/>
      <point x="184.375" y="801.5625" type="curve" smooth="yes"/>
      <point x="184.37499999999994" y="891.145833333333"/>
      <point x="226.04166666666643" y="969.0104166666663"/>
      <point x="296.875" y="1011.71875" type="curve" smooth="yes"/>
      <point x="332.29166666666663" y="1033.0729166666665"/>
      <point x="373.9583333333333" y="1043.75"/>
      <point x="421.875" y="1043.75" type="curve" smooth="yes"/>
      <point x="548.9583333333331" y="1043.75"/>
      <point x="623.4375" y="961.4583333333333"/>
      <point x="623.4375" y="840.625" type="curve" smooth="yes"/>
      <point x="623.4375" y="753.1249999999997"/>
      <point x="574.7395833333331" y="684.8958333333331"/>
      <point x="507.03125" y="626.5625" type="curve" smooth="yes"/>
      <point x="439.3229166666665" y="568.2291666666665"/>
      <point x="357.55208333333314" y="514.8437499999999"/>
      <point x="289.84375" y="461.71875" type="curve" smooth="yes"/>
      <point x="222.13541666666652" y="408.5937499999999"/>
      <point x="174.99999999999994" y="348.4374999999999"/>
      <point x="175.0" y="273.4375" type="curve" smooth="yes"/>
      <point x="174.99999999999994" y="154.68750000000009"/>
      <point x="267.18749999999966" y="84.375"/>
      <point x="376.5625" y="84.375" type="curve" smooth="yes"/>
      <point x="464.0624999999999" y="84.375"/>
      <point x="543.7499999999999" y="133.85416666666652"/>
      <point x="612.5" y="204.6875" type="curve" smooth="yes"/>
      <point x="695.8333333333331" y="294.27083333333326"/>
      <point x="759.8958333333333" y="413.5416666666665"/>
      <point x="795.3125" y="553.125" type="curve"/>
      <point x="915.625" y="553.125" type="line"/>
      <point x="873.9583333333333" y="401.0416666666665"/>
      <point x="801.5625" y="258.85416666666663"/>
      <point x="701.5625" y="142.1875" type="curve" smooth="yes"/>
      <point x="618.2291666666663" y="48.43749999999988"/>
      <point x="514.583333333333" y="-18.75"/>
    </contour>
  </outline>
</glyph>
<glyph name="quotesingle" format="2">
  <advance width="389"/>
  <unicode hex="0027"/>
  <outline>
    <contour>
      <point x="154.6875" y="673.4375" type="line"/>
      <point x="129.6875" y="934.375" type="line"/>
      <point x="125.0" y="1078.125" type="line"/>
      <point x="262.5" y="1078.125" type="line"/>
      <point x="257.8125" y="934.375" type="line"/>
      <point x="232.8125" y="673.4375" type="line"/>
    </contour>
  </outline>
</glyph>
<glyph name="parenleft" format="2">
  <advance width="473"/>
  <unicode hex="0028"/>
  <outline>
    <contour>
      <point x="60" y="190"/>
      <point x="58" y="678"/>
      <point x="334" y="1144" type="curve"/>
      <point x="414" y="1106" type="line"/>
      <point x="175" y="692"/>
      <point x="177" y="177"/>
      <point x="414" y="-238" type="curve"/>
      <point x="334" y="-275" type="line"/>
    </contour>
  </outline>
</glyph>
<glyph name="parenright" format="2">
  <advance width="473"/>
  <unicode hex="0029"/>
  <outline>
    <contour>
      <point x="139.0625" y="-275.0" type="curve"/>
      <point x="59.375" y="-237.5" type="line"/>
      <point x="180.20833333333334" y="-37.5"/>
      <point x="239.0625" y="196.875"/>
      <point x="239.0625" y="434.375" type="curve" smooth="yes"/>
      <point x="239.0625" y="671.8749999999999"/>
      <point x="180.2083333333334" y="908.3333333333333"/>
      <point x="59.375" y="1106.25" type="curve"/>
      <point x="139.0625" y="1143.75" type="line"/>
      <point x="270.3125" y="935.4166666666664"/>
      <point x="345.3124999999999" y="709.375"/>
      <point x="345.3125" y="434.375" type="curve" smooth="yes"/>
      <point x="345.3124999999999" y="159.375"/>
      <point x="270.3125" y="-64.5833333333333"/>
    </contour>
  </outline>
</glyph>
<glyph name="asterisk" format="2">
  <advance width="653"/>
  <unicode hex="002A"/>
  <outline>
    <contour>
      <point x="153" y="702" type="line"/>
      <point x="242" y="848" type="line"/>
      <point x="91" y="911" type="line"/>
      <point x="114" y="983" type="line"/>
      <point x="273" y="944" type="line"/>
      <point x="288" y="1112" type="line"/>
      <point x="364" y="1112" type="line"/>
      <point x="378" y="945" type="line"/>
      <point x="539" y="983" type="line"/>
      <point x="562" y="911" type="line"/>
      <point x="411" y="848" type="line"/>
      <point x="498" y="702" type="line"/>
      <point x="438" y="656" type="line"/>
      <point x="327" y="791" type="line"/>
      <point x="216" y="656" type="line"/>
    </contour>
  </outline>
</glyph>
<glyph name="plus" format="2">
  <advance width="777"/>
  <unicode hex="002B"/>
  <outline>
    <contour>
      <point x="338" y="467" type="line"/>
      <point x="53" y="467" type="line"/>
      <point x="53" y="564" type="line"/>
      <point x="338" y="564" type="line"/>
      <point x="338" y="869" type="line"/>
      <point x="439" y="869" type="line"/>
      <point x="439" y="564" type="line"/>
      <point x="723" y="564" type="line"/>
      <point x="723" y="467" type="line"/>
      <point x="439" y="467" type="line"/>
      <point x="439" y="162" type="line"/>
      <point x="338" y="162" type="line"/>
    </contour>
  </outline>
</glyph>
<glyph name="comma" format="2">
  <advance width="389"/>
  <unicode hex="002C"/>
  <outline>
    <contour>
      <point x="104.6875" y="-265.625" type="curve"/>
      <point x="73.4375" y="-190.625" type="line"/>
      <point x="163.02083333333334" y="-151.0416666666666"/>
      <point x="216.14583333333331" y="-80.20833333333333"/>
      <point x="214.0625" y="3.125" type="curve"/>
      <point x="200.0" y="118.75" type="line"/>
      <point x="264.0625" y="25.0" type="line"/>
      <point x="245.3125" y="6.25"/>
      <point x="223.4375" y="-1.5625"/>
      <point x="198.4375" y="-1.5625" type="curve" smooth="yes"/>
      <point x="148.43749999999994" y="-1.5625"/>
      <point x="106.25" y="31.25000000000002"/>
      <point x="106.25" y="87.5" type="curve" smooth="yes"/>
      <point x="106.25" y="143.74999999999994"/>
      <point x="151.56249999999994" y="178.125"/>
      <point x="201.5625" y="178.125" type="curve" smooth="yes"/>
      <point x="270.3125" y="178.125"/>
      <point x="309.375" y="122.39583333333333"/>
      <point x="309.375" y="26.5625" type="curve" smooth="yes"/>
      <point x="309.375" y="-106.77083333333333"/>
      <point x="231.77083333333331" y="-213.5416666666666"/>
    </contour>
  </outline>
</glyph>
<glyph name="hyphen" format="2">
  <advance width="486"/>
  <unicode hex="002D"/>
  <outline>
    <contour>
      <point x="64.0625" y="342.1875" type="line"/>
      <point x="64.0625" y="440.625" type="line"/>
      <point x="423.4375" y="440.625" type="line"/>
      <point x="423.4375" y="342.1875" type="line"/>
    </contour>
  </outline>
</glyph>
<glyph name="period" format="2">
  <advance width="389"/>
  <unicode hex="002E"/>
  <outline>
    <contour>
      <point x="195.3125" y="-18.75" type="curve" smooth="yes"/>
      <point x="145.3125" y="-18.75"/>
      <point x="101.5625" y="21.87499999999998"/>
      <point x="101.5625" y="78.125" type="curve" smooth="yes"/>
      <point x="101.5625" y="138.54166666666663"/>
      <point x="145.31249999999997" y="178.125"/>
      <point x="195.3125" y="178.125" type="curve" smooth="yes"/>
      <point x="247.39583333333331" y="178.125"/>
      <point x="287.5" y="138.54166666666669"/>
      <point x="287.5" y="78.125" type="curve" smooth="yes"/>
      <point x="287.5" y="21.874999999999957"/>
      <point x="247.39583333333326" y="-18.75"/>
    </contour>
  </outline>
</glyph>
<glyph name="slash" format="2">
  <advance width="547"/>
  <unicode hex="002F"/>
  <outline>
    <contour>
      <point x="433" y="1109" type="line"/>
      <point x="527" y="1109" type="line"/>
      <point x="109" y="-250" type="line"/>
      <point x="16" y="-250" type="line"/>
    </contour>
  </outline>
</glyph>
<glyph name="zero" format="2">
  <advance width="777"/>
  <unicode hex="0030"/>
  <outline>
    <contour>
      <point x="68" y="-6"/>
      <point x="46" y="420"/>
      <point x="79" y="656" type="curve" smooth="yes"/>
      <point x="87" y="718"/>
      <point x="102" y="780"/>
      <point x="128" y="838" type="curve" smooth="yes"/>
      <point x="202" y="995"/>
      <point x="366" y="1061"/>
      <point x="522" y="983" type="curve" smooth="yes"/>
      <point x="734" y="850"/>
      <point x="737" y="462"/>
      <point x="679" y="249" type="curve" smooth="yes"/>
      <point x="639" y="101"/>
      <point x="551" y="-12"/>
      <point x="389" y="-19" type="curve" smooth="yes"/>
    </contour>
    <contour>
      <point x="505" y="84"/>
      <point x="583" y="211"/>
      <point x="583" y="502" type="curve" smooth="yes"/>
      <point x="583" y="795"/>
      <point x="505" y="912"/>
      <point x="389" y="912" type="curve" smooth="yes"/>
      <point x="270" y="912"/>
      <point x="194" y="795"/>
      <point x="194" y="502" type="curve" smooth="yes"/>
      <point x="194" y="211"/>
      <point x="270" y="84"/>
      <point x="389" y="84" type="curve" smooth="yes"/>
    </contour>
  </outline>
</glyph>
<glyph name="one" format="2">
  <advance width="777"/>
  <unicode hex="0031"/>
  <outline>
    <contour>
      <point x="123.4375" y="0.0" type="line"/>
      <point x="123.4375" y="106.25" type="line"/>
      <point x="351.5625" y="106.25" type="line"/>
      <point x="351.5625" y="840.625" type="line"/>
      <point x="170.3125" y="840.625" type="line"/>
      <point x="170.3125" y="923.4375" type="line"/>
      <point x="259.89583333333314" y="940.1041666666664"/>
      <point x="327.08333333333314" y="963.5416666666664"/>
      <point x="381.25" y="996.875" type="curve"/>
      <point x="479.6875" y="996.875" type="line"/>
      <point x="479.6875" y="106.25" type="line"/>
      <point x="685.9375" y="106.25" type="line"/>
      <point x="685.9375" y="0.0" type="line"/>
    </contour>
  </outline>
</glyph>
<glyph name="two" format="2">
  <advance width="777"/>
  <unicode hex="0032"/>
  <outline>
    <contour>
      <point x="62" y="78" type="line"/>
      <point x="207" y="221"/>
      <point x="482" y="467"/>
      <point x="525" y="661" type="curve" smooth="yes"/>
      <point x="558" y="810"/>
      <point x="461" y="939"/>
      <point x="302" y="907" type="curve" smooth="yes"/>
      <point x="231" y="892"/>
      <point x="176" y="843"/>
      <point x="130" y="791" type="curve"/>
      <point x="58" y="861" type="line"/>
      <point x="104" y="911"/>
      <point x="154" y="958"/>
      <point x="216" y="986" type="curve" smooth="yes"/>
      <point x="366" y="1054"/>
      <point x="573" y="1007"/>
      <point x="636" y="843" type="curve" smooth="yes"/>
      <point x="741" y="567"/>
      <point x="414" y="282"/>
      <point x="239" y="102" type="curve" smooth="yes"/>
      <point x="394" y="118"/>
      <point x="551" y="111"/>
      <point x="706" y="111" type="curve"/>
      <point x="706" y="0" type="line"/>
      <point x="62" y="0" type="line"/>
    </contour>
  </outline>
</glyph>
<glyph name="three" format="2">
  <advance width="777"/>
  <unicode hex="0033"/>
  <outline>
    <contour>
      <point x="106" y="206" type="line"/>
      <point x="143" y="170"/>
      <point x="185" y="134"/>
      <point x="233" y="112" type="curve" smooth="yes"/>
      <point x="337" y="65"/>
      <point x="501" y="78"/>
      <point x="553" y="196" type="curve" smooth="yes"/>
      <point x="567" y="228"/>
      <point x="570" y="265"/>
      <point x="565" y="299" type="curve" smooth="yes"/>
      <point x="546" y="451"/>
      <point x="369" y="465"/>
      <point x="248" y="469" type="curve"/>
      <point x="248" y="567" type="line"/>
      <point x="305" y="568"/>
      <point x="363" y="572"/>
      <point x="416" y="592" type="curve" smooth="yes"/>
      <point x="509" y="627"/>
      <point x="557" y="725"/>
      <point x="519" y="819" type="curve" smooth="yes"/>
      <point x="479" y="919"/>
      <point x="349" y="927"/>
      <point x="262" y="891" type="curve" smooth="yes"/>
      <point x="217" y="873"/>
      <point x="181" y="843"/>
      <point x="147" y="809" type="curve"/>
      <point x="78" y="891" type="line"/>
      <point x="205" y="1006"/>
      <point x="392" y="1066"/>
      <point x="551" y="970" type="curve" smooth="yes"/>
      <point x="670" y="898"/>
      <point x="700" y="722"/>
      <point x="612" y="614" type="curve" smooth="yes"/>
      <point x="578" y="571"/>
      <point x="531" y="546"/>
      <point x="481" y="525" type="curve"/>
      <point x="481" y="519" type="line"/>
      <point x="539" y="503"/>
      <point x="593" y="479"/>
      <point x="635" y="433" type="curve" smooth="yes"/>
      <point x="725" y="334"/>
      <point x="715" y="168"/>
      <point x="621" y="74" type="curve" smooth="yes"/>
      <point x="506" y="-39"/>
      <point x="309" y="-43"/>
      <point x="170" y="25" type="curve" smooth="yes"/>
      <point x="120" y="49"/>
      <point x="79" y="83"/>
      <point x="41" y="122" type="curve"/>
    </contour>
  </outline>
</glyph>
<glyph name="four" format="2">
  <advance width="777"/>
  <unicode hex="0034"/>
  <outline>
    <contour>
      <point x="475" y="296"/>
      <point x="471" y="571"/>
      <point x="483" y="859" type="curve"/>
      <point x="477" y="859" type="line"/>
      <point x="385" y="690"/>
      <point x="272" y="538"/>
      <point x="162" y="378" type="curve"/>
      <point x="733" y="378" type="line"/>
      <point x="733" y="275" type="line"/>
      <point x="27" y="275" type="line"/>
      <point x="27" y="359" type="line"/>
      <point x="453" y="997" type="line"/>
      <point x="597" y="997" type="line"/>
      <point x="597" y="0" type="line"/>
      <point x="475" y="0" type="line"/>
    </contour>
  </outline>
</glyph>
<glyph name="five" format="2">
  <advance width="777"/>
  <unicode hex="0035"/>
  <outline>
    <contour>
      <point x="102" y="202" type="line"/>
      <point x="198" y="113"/>
      <point x="335" y="43"/>
      <point x="464" y="115" type="curve" smooth="yes"/>
      <point x="515" y="144"/>
      <point x="550" y="194"/>
      <point x="564" y="250" type="curve" smooth="yes"/>
      <point x="606" y="420"/>
      <point x="490" y="563"/>
      <point x="313" y="530" type="curve" smooth="yes"/>
      <point x="267" y="522"/>
      <point x="228" y="498"/>
      <point x="189" y="473" type="curve"/>
      <point x="120" y="517" type="line"/>
      <point x="153" y="997" type="line"/>
      <point x="652" y="997" type="line"/>
      <point x="652" y="886" type="line"/>
      <point x="266" y="886" type="line"/>
      <point x="239" y="591" type="line"/>
      <point x="441" y="690"/>
      <point x="683" y="602"/>
      <point x="700" y="354" type="curve" smooth="yes"/>
      <point x="704" y="298"/>
      <point x="699" y="242"/>
      <point x="680" y="189" type="curve" smooth="yes"/>
      <point x="607" y="-8"/>
      <point x="375" y="-58"/>
      <point x="196" y="11" type="curve" smooth="yes"/>
      <point x="136" y="35"/>
      <point x="85" y="73"/>
      <point x="39" y="117" type="curve"/>
    </contour>
  </outline>
</glyph>
<glyph name="six" format="2">
  <advance width="777"/>
  <unicode hex="0036"/>
  <outline>
    <contour>
      <point x="623" y="830" type="line"/>
      <point x="521" y="936"/>
      <point x="365" y="937"/>
      <point x="275" y="809" type="curve" smooth="yes"/>
      <point x="184" y="679"/>
      <point x="181" y="444"/>
      <point x="212" y="298" type="curve" smooth="yes"/>
      <point x="229" y="215"/>
      <point x="268" y="124"/>
      <point x="353" y="94" type="curve" smooth="yes"/>
      <point x="555" y="21"/>
      <point x="648" y="291"/>
      <point x="561" y="435" type="curve" smooth="yes"/>
      <point x="539" y="471"/>
      <point x="505" y="495"/>
      <point x="465" y="506" type="curve" smooth="yes"/>
      <point x="349" y="535"/>
      <point x="257" y="460"/>
      <point x="194" y="372" type="curve"/>
      <point x="189" y="473" type="line"/>
      <point x="231" y="525"/>
      <point x="281" y="569"/>
      <point x="344" y="593" type="curve" smooth="yes"/>
      <point x="502" y="653"/>
      <point x="670" y="560"/>
      <point x="705" y="395" type="curve" smooth="yes"/>
      <point x="760" y="132"/>
      <point x="541" y="-113"/>
      <point x="282" y="11" type="curve" smooth="yes"/>
      <point x="13" y="141"/>
      <point x="26" y="681"/>
      <point x="190" y="888" type="curve" smooth="yes"/>
      <point x="320" y="1052"/>
      <point x="551" y="1056"/>
      <point x="695" y="909" type="curve"/>
    </contour>
  </outline>
</glyph>
<glyph name="seven" format="2">
  <advance width="777"/>
  <unicode hex="0037"/>
  <outline>
    <contour>
      <point x="267.1875" y="0.0" type="line"/>
      <point x="275.5208333333333" y="187.49999999999994"/>
      <point x="300.7812499999999" y="341.9270833333332"/>
      <point x="347.65625" y="480.46875" type="curve" smooth="yes"/>
      <point x="394.5312499999999" y="619.0104166666665"/>
      <point x="465.10416666666663" y="748.4374999999999"/>
      <point x="567.1875" y="885.9375" type="curve"/>
      <point x="68.75" y="885.9375" type="line"/>
      <point x="68.75" y="996.875" type="line"/>
      <point x="710.9375" y="996.875" type="line"/>
      <point x="710.9375" y="917.1875" type="line"/>
      <point x="592.1875" y="767.1874999999999"/>
      <point x="515.8854166666666" y="632.2916666666665"/>
      <point x="471.09375" y="490.625" type="curve" smooth="yes"/>
      <point x="426.3020833333332" y="348.95833333333314"/>
      <point x="408.3333333333332" y="195.83333333333323"/>
      <point x="400.0" y="0.0" type="curve"/>
    </contour>
  </outline>
</glyph>
<glyph name="eight" format="2">
  <advance width="777"/>
  <unicode hex="0038"/>
  <outline>
    <contour>
      <point x="252" y="530" type="line"/>
      <point x="207" y="563"/>
      <point x="162" y="604"/>
      <point x="136" y="654" type="curve" smooth="yes"/>
      <point x="70" y="783"/>
      <point x="142" y="941"/>
      <point x="272" y="993" type="curve" smooth="yes"/>
      <point x="318" y="1011"/>
      <point x="368" y="1018"/>
      <point x="417" y="1015" type="curve" smooth="yes"/>
      <point x="591" y="1006"/>
      <point x="724" y="850"/>
      <point x="664" y="676" type="curve" smooth="yes"/>
      <point x="641" y="609"/>
      <point x="593" y="553"/>
      <point x="539" y="509" type="curve"/>
      <point x="539" y="503" type="line"/>
      <point x="591" y="472"/>
      <point x="641" y="437"/>
      <point x="674" y="385" type="curve" smooth="yes"/>
      <point x="700" y="343"/>
      <point x="712" y="296"/>
      <point x="712" y="247" type="curve" smooth="yes"/>
      <point x="714" y="58"/>
      <point x="523" y="-28"/>
      <point x="360" y="-18" type="curve" smooth="yes"/>
      <point x="164" y="-5"/>
      <point x="-10" y="169"/>
      <point x="92" y="372" type="curve" smooth="yes"/>
      <point x="126" y="440"/>
      <point x="187" y="487"/>
      <point x="252" y="523" type="curve"/>
    </contour>
    <contour>
      <point x="530" y="608"/>
      <point x="583" y="692"/>
      <point x="560" y="790" type="curve" smooth="yes"/>
      <point x="530" y="921"/>
      <point x="373" y="957"/>
      <point x="277" y="876" type="curve" smooth="yes"/>
      <point x="247" y="843"/>
      <point x="230" y="805"/>
      <point x="231" y="759" type="curve" smooth="yes"/>
      <point x="234" y="633"/>
      <point x="360" y="584"/>
      <point x="461" y="544" type="curve" smooth="yes"/>
    </contour>
    <contour>
      <point x="569" y="161"/>
      <point x="588" y="201"/>
      <point x="589" y="252" type="curve" smooth="yes"/>
      <point x="591" y="392"/>
      <point x="425" y="441"/>
      <point x="319" y="484" type="curve" smooth="yes"/>
      <point x="238" y="428"/>
      <point x="167" y="346"/>
      <point x="182" y="240" type="curve" smooth="yes"/>
      <point x="205" y="76"/>
      <point x="418" y="34"/>
      <point x="535" y="125" type="curve" smooth="yes"/>
    </contour>
  </outline>
</glyph>
<glyph name="nine" format="2">
  <advance width="777"/>
  <unicode hex="0039"/>
  <outline>
    <contour>
      <point x="320.3125" y="-18.75" type="curve" smooth="yes"/>
      <point x="214.06249999999994" y="-18.75"/>
      <point x="135.93749999999997" y="27.604166666666675"/>
      <point x="79.6875" y="85.9375" type="curve"/>
      <point x="151.5625" y="167.1875" type="line"/>
      <point x="193.22916666666663" y="119.27083333333333"/>
      <point x="253.12499999999994" y="87.49999999999997"/>
      <point x="315.625" y="87.5" type="curve" smooth="yes"/>
      <point x="411.45833333333314" y="87.49999999999997"/>
      <point x="494.01041666666663" y="140.8854166666665"/>
      <point x="542.96875" y="271.09375" type="curve" smooth="yes"/>
      <point x="567.4479166666666" y="336.19791666666663"/>
      <point x="579.6875" y="424.47916666666663"/>
      <point x="579.6875" y="535.9375" type="curve" smooth="yes"/>
      <point x="579.6875" y="700.5208333333331"/>
      <point x="542.96875" y="811.9791666666664"/>
      <point x="477.34375" y="870.3125" type="curve" smooth="yes"/>
      <point x="444.53125" y="899.4791666666666"/>
      <point x="404.16666666666663" y="914.0625"/>
      <point x="356.25" y="914.0625" type="curve" smooth="yes"/>
      <point x="259.3749999999995" y="914.0625"/>
      <point x="182.8125" y="826.5624999999993"/>
      <point x="182.8125" y="695.3125" type="curve" smooth="yes"/>
      <point x="182.8125" y="567.1874999999997"/>
      <point x="245.3125" y="484.375"/>
      <point x="367.1875" y="484.375" type="curve" smooth="yes"/>
      <point x="431.77083333333314" y="484.375"/>
      <point x="514.5833333333331" y="522.9166666666664"/>
      <point x="581.25" y="625.0" type="curve"/>
      <point x="585.9375" y="523.4375" type="line"/>
      <point x="525.5208333333333" y="440.10416666666663"/>
      <point x="430.72916666666663" y="387.4999999999999"/>
      <point x="345.3125" y="387.5" type="curve"/>
      <point x="173.43750000000003" y="387.4999999999999"/>
      <point x="62.5" y="492.18749999999955"/>
      <point x="62.5" y="695.3125" type="curve" smooth="yes"/>
      <point x="62.5" y="822.3958333333333"/>
      <point x="119.79166666666666" y="922.65625"/>
      <point x="209.375" y="975.78125" type="curve" smooth="yes"/>
      <point x="254.16666666666666" y="1002.34375"/>
      <point x="303.125" y="1015.625"/>
      <point x="356.25" y="1015.625" type="curve" smooth="yes"/>
      <point x="552.0833333333337" y="1015.625"/>
      <point x="699.9999999999997" y="856.7708333333323"/>
      <point x="700.0" y="535.9375" type="curve" smooth="yes"/>
      <point x="699.9999999999998" y="235.9374999999997"/>
      <point x="599.2187499999998" y="72.65624999999993"/>
      <point x="463.28125" y="11.71875" type="curve" smooth="yes"/>
      <point x="417.96875" y="-8.59375"/>
      <point x="370.3125" y="-18.75"/>
    </contour>
  </outline>
</glyph>
<glyph name="colon" format="2">
  <advance width="389"/>
  <unicode hex="003A"/>
  <outline>
    <contour>
      <point x="195.3125" y="545.3125" type="curve" smooth="yes"/>
      <point x="145.31250000000006" y="545.3125"/>
      <point x="101.5625" y="585.9374999999999"/>
      <point x="101.5625" y="642.1875" type="curve" smooth="yes"/>
      <point x="101.5625" y="702.6041666666665"/>
      <point x="145.31249999999994" y="742.1874999999998"/>
      <point x="195.3125" y="742.1875" type="curve" smooth="yes"/>
      <point x="247.39583333333334" y="742.1874999999998"/>
      <point x="287.5" y="702.6041666666666"/>
      <point x="287.5" y="642.1875" type="curve" smooth="yes"/>
      <point x="287.5" y="585.9374999999999"/>
      <point x="247.3958333333332" y="545.3125"/>
    </contour>
    <contour>
      <point x="195.3125" y="-18.75" type="curve" smooth="yes"/>
      <point x="145.3125" y="-18.75"/>
      <point x="101.5625" y="21.87499999999998"/>
      <point x="101.5625" y="78.125" type="curve" smooth="yes"/>
      <point x="101.5625" y="138.54166666666663"/>
      <point x="145.31249999999997" y="178.125"/>
      <point x="195.3125" y="178.125" type="curve" smooth="yes"/>
      <point x="247.39583333333331" y="178.125"/>
      <point x="287.5" y="138.54166666666669"/>
      <point x="287.5" y="78.125" type="curve" smooth="yes"/>
      <point x="287.5" y="21.874999999999957"/>
      <point x="247.39583333333326" y="-18.75"/>
    </contour>
  </outline>
</glyph>
<glyph name="semicolon" format="2">
  <advance width="389"/>
  <unicode hex="003B"/>
  <outline>
    <contour>
      <point x="195.3125" y="545.3125" type="curve" smooth="yes"/>
      <point x="145.31250000000006" y="545.3125"/>
      <point x="101.5625" y="585.9374999999999"/>
      <point x="101.5625" y="642.1875" type="curve" smooth="yes"/>
      <point x="101.5625" y="702.6041666666665"/>
      <point x="145.31249999999994" y="742.1874999999998"/>
      <point x="195.3125" y="742.1875" type="curve" smooth="yes"/>
      <point x="247.39583333333334" y="742.1874999999998"/>
      <point x="287.5" y="702.6041666666666"/>
      <point x="287.5" y="642.1875" type="curve" smooth="yes"/>
      <point x="287.5" y="585.9374999999999"/>
      <point x="247.3958333333332" y="545.3125"/>
    </contour>
    <contour>
      <point x="104.6875" y="-265.625" type="curve"/>
      <point x="73.4375" y="-190.625" type="line"/>
      <point x="163.02083333333334" y="-151.0416666666666"/>
      <point x="216.14583333333331" y="-80.20833333333333"/>
      <point x="214.0625" y="3.125" type="curve"/>
      <point x="200.0" y="118.75" type="line"/>
      <point x="264.0625" y="25.0" type="line"/>
      <point x="245.3125" y="6.25"/>
      <point x="223.4375" y="-1.5625"/>
      <point x="198.4375" y="-1.5625" type="curve" smooth="yes"/>
      <point x="148.43749999999994" y="-1.5625"/>
      <point x="106.25" y="31.25000000000002"/>
      <point x="106.25" y="87.5" type="curve" smooth="yes"/>
      <point x="106.25" y="143.74999999999994"/>
      <point x="151.56249999999994" y="178.125"/>
      <point x="201.5625" y="178.125" type="curve" smooth="yes"/>
      <point x="270.3125" y="178.125"/>
      <point x="309.375" y="122.39583333333333"/>
      <point x="309.375" y="26.5625" type="curve" smooth="yes"/>
      <point x="309.375" y="-106.77083333333333"/>
      <point x="231.77083333333331" y="-213.5416666666666"/>
    </contour>
  </outline>
</glyph>
<glyph name="less" format="2">
  <advance width="777"/>
  <unicode hex="003C"/>
  <outline>
    <contour>
      <point x="723.4375" y="204.6875" type="line"/>
      <point x="53.125" y="467.1875" type="line"/>
      <point x="53.125" y="570.3125" type="line"/>
      <point x="723.4375" y="832.8125" type="line"/>
      <point x="723.4375" y="721.875" type="line"/>
      <point x="393.75" y="600.0" type="line"/>
      <point x="184.375" y="521.875" type="line"/>
      <point x="184.375" y="515.625" type="line"/>
      <point x="393.75" y="437.5" type="line"/>
      <point x="723.4375" y="315.625" type="line"/>
    </contour>
  </outline>
</glyph>
<glyph name="equal" format="2">
  <advance width="777"/>
  <unicode hex="003D"/>
  <outline>
    <contour>
      <point x="53.125" y="634.375" type="line"/>
      <point x="53.125" y="731.25" type="line"/>
      <point x="723.4375" y="731.25" type="line"/>
      <point x="723.4375" y="634.375" type="line"/>
    </contour>
    <contour>
      <point x="53.125" y="300.0" type="line"/>
      <point x="53.125" y="396.875" type="line"/>
      <point x="723.4375" y="396.875" type="line"/>
      <point x="723.4375" y="300.0" type="line"/>
    </contour>
  </outline>
</glyph>
<glyph name="greater" format="2">
  <advance width="777"/>
  <unicode hex="003E"/>
  <outline>
    <contour>
      <point x="53.125" y="204.6875" type="line"/>
      <point x="53.125" y="315.625" type="line"/>
      <point x="382.8125" y="437.5" type="line"/>
      <point x="592.1875" y="515.625" type="line"/>
      <point x="592.1875" y="521.875" type="line"/>
      <point x="382.8125" y="600.0" type="line"/>
      <point x="53.125" y="721.875" type="line"/>
      <point x="53.125" y="832.8125" type="line"/>
      <point x="723.4375" y="570.3125" type="line"/>
      <point x="723.4375" y="467.1875" type="line"/>
    </contour>
  </outline>
</glyph>
<glyph name="question" format="2">
  <advance width="664"/>
  <unicode hex="003F"/>
  <outline>
    <contour>
      <point x="238" y="416"/>
      <point x="275" y="498"/>
      <point x="338" y="581" type="curve" smooth="yes"/>
      <point x="399" y="659"/>
      <point x="484" y="739"/>
      <point x="460" y="848" type="curve" smooth="yes"/>
      <point x="437" y="953"/>
      <point x="321" y="980"/>
      <point x="232" y="942" type="curve" smooth="yes"/>
      <point x="193" y="926"/>
      <point x="161" y="899"/>
      <point x="133" y="869" type="curve"/>
      <point x="59" y="936" type="line"/>
      <point x="100" y="979"/>
      <point x="144" y="1016"/>
      <point x="199" y="1040" type="curve" smooth="yes"/>
      <point x="325" y="1093"/>
      <point x="505" y="1068"/>
      <point x="567" y="930" type="curve" smooth="yes"/>
      <point x="687" y="662"/>
      <point x="346" y="567"/>
      <point x="362" y="309" type="curve"/>
      <point x="250" y="309" type="line"/>
    </contour>
    <contour>
      <point x="186" y="-2"/>
      <point x="186" y="162"/>
      <point x="309" y="178" type="curve" smooth="yes"/>
      <point x="435" y="162"/>
      <point x="435" y="-2"/>
      <point x="309" y="-19" type="curve" smooth="yes"/>
    </contour>
  </outline>
</glyph>
<glyph name="at" format="2">
  <advance width="1323"/>
  <unicode hex="0040"/>
  <outline>
    <contour>
      <point x="629.6875" y="-242.1875" type="curve" smooth="yes"/>
      <point x="477.6041666666665" y="-242.1875"/>
      <point x="340.8854166666665" y="-194.01041666666654"/>
      <point x="239.84375" y="-99.21875" type="curve" smooth="yes"/>
      <point x="138.80208333333331" y="-4.427083333333348"/>
      <point x="79.6875" y="135.93749999999994"/>
      <point x="79.6875" y="317.1875" type="curve" smooth="yes"/>
      <point x="79.6875" y="527.6041666666665"/>
      <point x="152.60416666666657" y="699.21875"/>
      <point x="273.4375" y="821.09375" type="curve" smooth="yes"/>
      <point x="394.27083333333314" y="942.9687499999998"/>
      <point x="556.2499999999998" y="1009.375"/>
      <point x="731.25" y="1009.375" type="curve" smooth="yes"/>
      <point x="941.6666666666664" y="1009.375"/>
      <point x="1097.65625" y="918.4895833333333"/>
      <point x="1182.03125" y="763.28125" type="curve" smooth="yes"/>
      <point x="1224.2187499999998" y="685.6770833333333"/>
      <point x="1245.3124999999998" y="595.3125"/>
      <point x="1245.3125" y="492.1875" type="curve" smooth="yes"/>
      <point x="1245.3124999999995" y="354.6874999999999"/>
      <point x="1204.4270833333333" y="248.69791666666652"/>
      <point x="1142.96875" y="178.90625" type="curve" smooth="yes"/>
      <point x="1081.5104166666663" y="109.11458333333317"/>
      <point x="1003.645833333333" y="73.4375"/>
      <point x="932.8125" y="73.4375" type="curve" smooth="yes"/>
      <point x="845.3125" y="73.4375"/>
      <point x="780.7291666666666" y="114.0625"/>
      <point x="770.3125" y="195.3125" type="curve"/>
      <point x="767.1875" y="195.3125" type="line"/>
      <point x="717.1875" y="130.7291666666666"/>
      <point x="645.3124999999999" y="84.375"/>
      <point x="576.5625" y="84.375" type="curve" smooth="yes"/>
      <point x="522.3958333333333" y="84.375"/>
      <point x="476.82291666666663" y="103.90625"/>
      <point x="439.84375" y="142.96875" type="curve" smooth="yes"/>
      <point x="402.8645833333333" y="182.03125"/>
      <point x="384.375" y="237.5"/>
      <point x="384.375" y="309.375" type="curve" smooth="yes"/>
      <point x="384.375" y="394.7916666666665"/>
      <point x="413.0208333333332" y="483.5937499999999"/>
      <point x="467.1875" y="555.46875" type="curve" smooth="yes"/>
      <point x="521.3541666666666" y="627.3437499999999"/>
      <point x="597.3958333333331" y="675.0"/>
      <point x="689.0625" y="675.0" type="curve" smooth="yes"/>
      <point x="743.2291666666665" y="675.0"/>
      <point x="784.8958333333333" y="651.0416666666667"/>
      <point x="814.0625" y="596.875" type="curve"/>
      <point x="817.1875" y="596.875" type="line"/>
      <point x="834.375" y="660.9375" type="line"/>
      <point x="920.3125" y="660.9375" type="line"/>
      <point x="859.375" y="346.875" type="line" smooth="yes"/>
      <point x="832.2916666666664" y="221.87499999999991"/>
      <point x="860.9375" y="167.1875"/>
      <point x="942.1875" y="167.1875" type="curve" smooth="yes"/>
      <point x="1006.770833333333" y="167.1875"/>
      <point x="1071.09375" y="219.79166666666637"/>
      <point x="1111.71875" y="315.625" type="curve" smooth="yes"/>
      <point x="1132.03125" y="363.54166666666663"/>
      <point x="1142.1875" y="420.8333333333333"/>
      <point x="1142.1875" y="487.5" type="curve" smooth="yes"/>
      <point x="1142.1875" y="608.3333333333333"/>
      <point x="1107.03125" y="713.8020833333333"/>
      <point x="1035.15625" y="789.84375" type="curve" smooth="yes"/>
      <point x="963.28125" y="865.8854166666664"/>
      <point x="859.895833333333" y="910.9375"/>
      <point x="720.3125" y="910.9375" type="curve" smooth="yes"/>
      <point x="584.895833333333" y="910.9375"/>
      <point x="453.64583333333314" y="853.9062499999998"/>
      <point x="351.5625" y="750.78125" type="curve" smooth="yes"/>
      <point x="249.47916666666657" y="647.65625"/>
      <point x="185.9375" y="501.0416666666665"/>
      <point x="185.9375" y="321.875" type="curve" smooth="yes"/>
      <point x="185.9375" y="173.95833333333331"/>
      <point x="232.55208333333331" y="57.2916666666667"/>
      <point x="314.84375" y="-21.875" type="curve" smooth="yes"/>
      <point x="397.1354166666666" y="-101.0416666666666"/>
      <point x="509.89583333333314" y="-143.75"/>
      <point x="639.0625" y="-143.75" type="curve" smooth="yes"/>
      <point x="732.8124999999998" y="-143.75"/>
      <point x="818.2291666666664" y="-117.18750000000004"/>
      <point x="889.0625" y="-79.6875" type="curve"/>
      <point x="926.5625" y="-162.5" type="line"/>
      <point x="834.895833333333" y="-214.5833333333334"/>
      <point x="738.020833333333" y="-242.1875"/>
    </contour>
    <contour>
      <point x="601.5625" y="179.6875" type="curve" smooth="yes"/>
      <point x="645.3124999999998" y="179.68749999999994"/>
      <point x="693.2291666666665" y="207.81249999999991"/>
      <point x="745.3125" y="270.3125" type="curve"/>
      <point x="790.625" y="517.1875" type="line"/>
      <point x="761.4583333333331" y="563.0208333333333"/>
      <point x="730.2083333333331" y="579.6875"/>
      <point x="690.625" y="579.6875" type="curve" smooth="yes"/>
      <point x="609.3749999999997" y="579.6875"/>
      <point x="551.8229166666665" y="516.927083333333"/>
      <point x="519.53125" y="436.71875" type="curve" smooth="yes"/>
      <point x="503.38541666666663" y="396.6145833333333"/>
      <point x="495.3125" y="356.7708333333333"/>
      <point x="495.3125" y="317.1875" type="curve" smooth="yes"/>
      <point x="495.3125" y="219.27083333333326"/>
      <point x="541.1458333333333" y="179.68749999999994"/>
    </contour>
  </outline>
</glyph>
<glyph name="A" format="2">
  <advance width="848"/>
  <unicode hex="0041"/>
  <outline>
    <contour>
      <point x="4.6875" y="0.0" type="line"/>
      <point x="351.5625" y="1025.0" type="line"/>
      <point x="498.4375" y="1025.0" type="line"/>
      <point x="845.3125" y="0.0" type="line"/>
      <point x="707.8125" y="0.0" type="line"/>
      <point x="528.125" y="573.4375" type="line" smooth="yes"/>
      <point x="490.6250000000001" y="688.020833333333"/>
      <point x="458.3333333333332" y="799.9999999999998"/>
      <point x="425.0" y="918.75" type="curve"/>
      <point x="418.75" y="918.75" type="line"/>
      <point x="387.49999999999994" y="799.9999999999998"/>
      <point x="354.6874999999999" y="688.020833333333"/>
      <point x="317.1875" y="573.4375" type="curve" smooth="yes"/>
      <point x="135.9375" y="0.0" type="line"/>
    </contour>
    <contour>
      <point x="185.9375" y="312.5" type="line"/>
      <point x="185.9375" y="415.625" type="line"/>
      <point x="659.375" y="415.625" type="line"/>
      <point x="659.375" y="312.5" type="line"/>
    </contour>
  </outline>
</glyph>
<glyph name="B" format="2">
  <advance width="919"/>
  <unicode hex="0042"/>
  <outline>
    <contour>
      <point x="141" y="1025" type="line"/>
      <point x="263" y="1025"/>
      <point x="537" y="1052"/>
      <point x="677" y="980" type="curve" smooth="yes"/>
      <point x="854" y="888"/>
      <point x="832" y="622"/>
      <point x="647" y="552" type="curve"/>
      <point x="647" y="545" type="line"/>
      <point x="704" y="533"/>
      <point x="759" y="513"/>
      <point x="800" y="468" type="curve" smooth="yes"/>
      <point x="900" y="357"/>
      <point x="864" y="160"/>
      <point x="748" y="75" type="curve" smooth="yes"/>
      <point x="597" y="-37"/>
      <point x="293" y="0"/>
      <point x="141" y="0" type="curve"/>
    </contour>
    <contour>
      <point x="398" y="589"/>
      <point x="669" y="556"/>
      <point x="669" y="758" type="curve" smooth="yes"/>
      <point x="668" y="962"/>
      <point x="402" y="922"/>
      <point x="270" y="922" type="curve"/>
      <point x="270" y="589" type="line"/>
    </contour>
    <contour>
      <point x="426" y="103"/>
      <point x="728" y="65"/>
      <point x="728" y="305" type="curve" smooth="yes"/>
      <point x="728" y="530"/>
      <point x="410" y="489"/>
      <point x="270" y="489" type="curve"/>
      <point x="270" y="103" type="line"/>
    </contour>
  </outline>
</glyph>
<glyph name="C" format="2">
  <advance width="892"/>
  <unicode hex="0043"/>
  <outline>
    <contour>
      <point x="529.6875" y="-18.75" type="curve" smooth="yes"/>
      <point x="358.8541666666665" y="-18.75"/>
      <point x="216.14583333333326" y="68.22916666666671"/>
      <point x="139.0625" y="226.5625" type="curve" smooth="yes"/>
      <point x="100.52083333333333" y="305.72916666666663"/>
      <point x="81.25" y="401.04166666666663"/>
      <point x="81.25" y="512.5" type="curve" smooth="yes"/>
      <point x="81.25" y="677.0833333333333"/>
      <point x="127.60416666666666" y="809.6354166666664"/>
      <point x="210.9375" y="902.34375" type="curve" smooth="yes"/>
      <point x="294.27083333333326" y="995.0520833333333"/>
      <point x="404.6874999999999" y="1043.75"/>
      <point x="535.9375" y="1043.75" type="curve" smooth="yes"/>
      <point x="658.8541666666666" y="1043.75"/>
      <point x="758.8541666666666" y="985.9375"/>
      <point x="817.1875" y="917.1875" type="curve"/>
      <point x="746.875" y="837.5" type="line"/>
      <point x="692.7083333333333" y="895.8333333333333"/>
      <point x="622.9166666666664" y="929.6875"/>
      <point x="537.5" y="929.6875" type="curve" smooth="yes"/>
      <point x="346.87499999999955" y="929.6875"/>
      <point x="215.625" y="768.7499999999995"/>
      <point x="215.625" y="515.625" type="curve" smooth="yes"/>
      <point x="215.625" y="342.70833333333326"/>
      <point x="269.2708333333333" y="215.36458333333331"/>
      <point x="367.1875" y="147.65625" type="curve" smooth="yes"/>
      <point x="416.1458333333333" y="113.80208333333333"/>
      <point x="473.4375" y="96.87499999999999"/>
      <point x="539.0625" y="96.875" type="curve" smooth="yes"/>
      <point x="634.8958333333331" y="96.87499999999997"/>
      <point x="709.3749999999999" y="133.85416666666652"/>
      <point x="771.875" y="204.6875" type="curve"/>
      <point x="840.625" y="128.125" type="line"/>
      <point x="759.3749999999998" y="34.37499999999988"/>
      <point x="663.020833333333" y="-18.75"/>
    </contour>
  </outline>
</glyph>
<glyph name="D" format="2">
  <advance width="961"/>
  <unicode hex="0044"/>
  <outline>
    <contour>
      <point x="141" y="1025" type="line"/>
      <point x="307" y="1025"/>
      <point x="507" y="1050"/>
      <point x="663" y="966" type="curve" smooth="yes"/>
      <point x="948" y="810"/>
      <point x="958" y="270"/>
      <point x="698" y="83" type="curve" smooth="yes"/>
      <point x="540" y="-31"/>
      <point x="320" y="0"/>
      <point x="141" y="0" type="curve"/>
    </contour>
    <contour>
      <point x="388" y="106"/>
      <point x="514" y="97"/>
      <point x="613" y="173" type="curve" smooth="yes"/>
      <point x="795" y="311"/>
      <point x="792" y="724"/>
      <point x="613" y="856" type="curve" smooth="yes"/>
      <point x="514" y="929"/>
      <point x="387" y="919"/>
      <point x="270" y="919" type="curve"/>
      <point x="270" y="106" type="line"/>
    </contour>
  </outline>
</glyph>
<glyph name="E" format="2">
  <advance width="823"/>
  <unicode hex="0045"/>
  <outline>
    <contour>
      <point x="141" y="1025" type="line"/>
      <point x="731" y="1025" type="line"/>
      <point x="731" y="916" type="line"/>
      <point x="270" y="916" type="line"/>
      <point x="270" y="594" type="line"/>
      <point x="659" y="594" type="line"/>
      <point x="659" y="483" type="line"/>
      <point x="270" y="483" type="line"/>
      <point x="270" y="111" type="line"/>
      <point x="747" y="111" type="line"/>
      <point x="747" y="0" type="line"/>
      <point x="141" y="0" type="line"/>
    </contour>
  </outline>
</glyph>
<glyph name="F" format="2">
  <advance width="772"/>
  <unicode hex="0046"/>
  <outline>
    <contour>
      <point x="140.625" y="0.0" type="line"/>
      <point x="140.625" y="1025.0" type="line"/>
      <point x="731.25" y="1025.0" type="line"/>
      <point x="731.25" y="915.625" type="line"/>
      <point x="270.3125" y="915.625" type="line"/>
      <point x="270.3125" y="568.75" type="line"/>
      <point x="660.9375" y="568.75" type="line"/>
      <point x="660.9375" y="459.375" type="line"/>
      <point x="270.3125" y="459.375" type="line"/>
      <point x="270.3125" y="0.0" type="line"/>
    </contour>
  </outline>
</glyph>
<glyph name="G" format="2">
  <advance width="964"/>
  <unicode hex="0047"/>
  <outline>
    <contour>
      <point x="543.75" y="-18.75" type="curve" smooth="yes"/>
      <point x="362.49999999999994" y="-18.75"/>
      <point x="219.7916666666666" y="68.2291666666667"/>
      <point x="140.625" y="226.5625" type="curve" smooth="yes"/>
      <point x="101.04166666666666" y="305.72916666666663"/>
      <point x="81.25" y="401.04166666666663"/>
      <point x="81.25" y="512.5" type="curve" smooth="yes"/>
      <point x="81.25" y="677.0833333333333"/>
      <point x="130.46874999999994" y="809.6354166666664"/>
      <point x="214.84375" y="902.34375" type="curve" smooth="yes"/>
      <point x="299.2187499999999" y="995.052083333333"/>
      <point x="416.14583333333303" y="1043.75"/>
      <point x="551.5625" y="1043.75" type="curve" smooth="yes"/>
      <point x="622.3958333333333" y="1043.75"/>
      <point x="682.0312499999999" y="1030.7291666666665"/>
      <point x="730.46875" y="1004.6875" type="curve" smooth="yes"/>
      <point x="778.9062499999999" y="978.6458333333333"/>
      <point x="817.7083333333333" y="949.4791666666666"/>
      <point x="846.875" y="917.1875" type="curve"/>
      <point x="775.0" y="835.9375" type="line"/>
      <point x="724.9999999999998" y="890.1041666666664"/>
      <point x="658.8541666666665" y="929.6875"/>
      <point x="554.6875" y="929.6875" type="curve" smooth="yes"/>
      <point x="417.18749999999983" y="929.6875"/>
      <point x="312.2395833333332" y="858.8541666666664"/>
      <point x="257.03125" y="735.9375" type="curve" smooth="yes"/>
      <point x="229.42708333333331" y="674.4791666666666"/>
      <point x="215.625" y="601.0416666666666"/>
      <point x="215.625" y="515.625" type="curve" smooth="yes"/>
      <point x="215.625" y="256.2499999999999"/>
      <point x="337.4999999999999" y="95.3125"/>
      <point x="556.25" y="95.3125" type="curve" smooth="yes"/>
      <point x="629.1666666666663" y="95.3125"/>
      <point x="701.0416666666665" y="118.74999999999996"/>
      <point x="740.625" y="156.25" type="curve"/>
      <point x="740.625" y="423.4375" type="line"/>
      <point x="523.4375" y="423.4375" type="line"/>
      <point x="523.4375" y="531.25" type="line"/>
      <point x="859.375" y="531.25" type="line"/>
      <point x="859.375" y="100.0" type="line"/>
      <point x="794.7916666666664" y="31.25"/>
      <point x="681.25" y="-18.75"/>
    </contour>
  </outline>
</glyph>
<glyph name="H" format="2">
  <advance width="1019"/>
  <unicode hex="0048"/>
  <outline>
    <contour>
      <point x="141" y="1025" type="line"/>
      <point x="270" y="1025" type="line"/>
      <point x="270" y="595" type="line"/>
      <point x="748" y="595" type="line"/>
      <point x="748" y="1025" type="line"/>
      <point x="878" y="1025" type="line"/>
      <point x="878" y="0" type="line"/>
      <point x="748" y="0" type="line"/>
      <point x="748" y="483" type="line"/>
      <point x="270" y="483" type="line"/>
      <point x="270" y="0" type="line"/>
      <point x="141" y="0" type="line"/>
    </contour>
  </outline>
</glyph>
<glyph name="I" format="2">
  <advance width="411"/>
  <unicode hex="0049"/>
  <outline>
    <contour>
      <point x="140.625" y="0.0" type="line"/>
      <point x="140.625" y="1025.0" type="line"/>
      <point x="270.3125" y="1025.0" type="line"/>
      <point x="270.3125" y="0.0" type="line"/>
    </contour>
  </outline>
</glyph>
<glyph name="J" format="2">
  <advance width="748"/>
  <unicode hex="004A"/>
  <outline>
    <contour>
      <point x="323.4375" y="-18.75" type="curve" smooth="yes"/>
      <point x="200.52083333333326" y="-18.75"/>
      <point x="107.81249999999997" y="36.45833333333337"/>
      <point x="51.5625" y="146.875" type="curve"/>
      <point x="139.0625" y="204.6875" type="line"/>
      <point x="180.7291666666666" y="129.6875"/>
      <point x="240.625" y="96.87499999999997"/>
      <point x="315.625" y="96.875" type="curve" smooth="yes"/>
      <point x="428.1249999999999" y="96.87499999999997"/>
      <point x="482.8125" y="158.8541666666665"/>
      <point x="482.8125" y="317.1875" type="curve" smooth="yes"/>
      <point x="482.8125" y="1025.0" type="line"/>
      <point x="612.5" y="1025.0" type="line"/>
      <point x="612.5" y="304.6875" type="line" smooth="yes"/>
      <point x="612.5" y="185.93749999999994"/>
      <point x="576.0416666666666" y="83.3333333333333"/>
      <point x="490.625" y="25.0" type="curve" smooth="yes"/>
      <point x="447.91666666666663" y="-4.166666666666669"/>
      <point x="392.1875" y="-18.75"/>
    </contour>
  </outline>
</glyph>
<glyph name="K" format="2">
  <advance width="905"/>
  <unicode hex="004B"/>
  <outline>
    <contour>
      <point x="141" y="1025" type="line"/>
      <point x="270" y="1025" type="line"/>
      <point x="270" y="511" type="line"/>
      <point x="275" y="511" type="line"/>
      <point x="702" y="1025" type="line"/>
      <point x="848" y="1025" type="line"/>
      <point x="528" y="634" type="line"/>
      <point x="898" y="0" type="line"/>
      <point x="753" y="0" type="line"/>
      <point x="447" y="533" type="line"/>
      <point x="270" y="325" type="line"/>
      <point x="270" y="0" type="line"/>
      <point x="141" y="0" type="line"/>
    </contour>
  </outline>
</glyph>
<glyph name="L" format="2">
  <advance width="759"/>
  <unicode hex="004C"/>
  <outline>
    <contour>
      <point x="141" y="1025" type="line"/>
      <point x="270" y="1025" type="line"/>
      <point x="270" y="111" type="line"/>
      <point x="719" y="111" type="line"/>
      <point x="719" y="0" type="line"/>
      <point x="141" y="0" type="line"/>
    </contour>
  </outline>
</glyph>
<glyph name="M" format="2">
  <advance width="1136"/>
  <unicode hex="004D"/>
  <outline>
    <contour>
      <point x="141" y="1025" type="line"/>
      <point x="305" y="1025" type="line"/>
      <point x="394" y="773"/>
      <point x="490" y="521"/>
      <point x="567" y="264" type="curve"/>
      <point x="573" y="264" type="line"/>
      <point x="650" y="522"/>
      <point x="742" y="768"/>
      <point x="833" y="1025" type="curve"/>
      <point x="995" y="1025" type="line"/>
      <point x="995" y="0" type="line"/>
      <point x="873" y="0" type="line"/>
      <point x="873" y="295"/>
      <point x="863" y="586"/>
      <point x="892" y="878" type="curve"/>
      <point x="886" y="878" type="line"/>
      <point x="749" y="453"/>
      <point x="836" y="713"/>
      <point x="614" y="102" type="curve"/>
      <point x="519" y="102" type="line"/>
      <point x="297" y="713"/>
      <point x="384" y="453"/>
      <point x="247" y="878" type="curve"/>
      <point x="241" y="878" type="line"/>
      <point x="269" y="584"/>
      <point x="259" y="298"/>
      <point x="259" y="0" type="curve"/>
      <point x="141" y="0" type="line"/>
    </contour>
  </outline>
</glyph>
<glyph name="N" format="2">
  <advance width="1011"/>
  <unicode hex="004E"/>
  <outline>
    <contour>
      <point x="140.625" y="0.0" type="line"/>
      <point x="140.625" y="1025.0" type="line"/>
      <point x="282.8125" y="1025.0" type="line"/>
      <point x="646.875" y="387.5" type="line" smooth="yes"/>
      <point x="686.4583333333333" y="318.7499999999999"/>
      <point x="720.8333333333333" y="244.27083333333326"/>
      <point x="756.25" y="167.1875" type="curve"/>
      <point x="762.5" y="167.1875" type="line"/>
      <point x="756.25" y="273.4375"/>
      <point x="745.3125" y="388.0208333333332"/>
      <point x="745.3125" y="492.1875" type="curve" smooth="yes"/>
      <point x="745.3125" y="1025.0" type="line"/>
      <point x="870.3125" y="1025.0" type="line"/>
      <point x="870.3125" y="0.0" type="line"/>
      <point x="728.125" y="0.0" type="line"/>
      <point x="364.0625" y="637.5" type="line" smooth="yes"/>
      <point x="326.5624999999999" y="706.25"/>
      <point x="286.4583333333333" y="782.8125"/>
      <point x="253.125" y="857.8125" type="curve"/>
      <point x="246.875" y="857.8125" type="line"/>
      <point x="255.20833333333331" y="755.7291666666663"/>
      <point x="264.0625" y="646.3541666666665"/>
      <point x="264.0625" y="535.9375" type="curve" smooth="yes"/>
      <point x="264.0625" y="0.0" type="line"/>
    </contour>
  </outline>
</glyph>
<glyph name="O" format="2">
  <advance width="1038"/>
  <unicode hex="004F"/>
  <outline>
    <contour>
      <point x="518.75" y="-18.75" type="curve" smooth="yes"/>
      <point x="433.3333333333333" y="-18.75"/>
      <point x="357.5520833333333" y="3.125"/>
      <point x="291.40625" y="46.875" type="curve" smooth="yes"/>
      <point x="159.11458333333331" y="134.37499999999997"/>
      <point x="81.25" y="298.43749999999994"/>
      <point x="81.25" y="517.1875" type="curve" smooth="yes"/>
      <point x="81.25" y="626.5624999999999"/>
      <point x="99.73958333333333" y="720.5729166666666"/>
      <point x="136.71875" y="799.21875" type="curve" smooth="yes"/>
      <point x="210.67708333333331" y="956.5104166666664"/>
      <point x="347.9166666666666" y="1043.75"/>
      <point x="518.75" y="1043.75" type="curve" smooth="yes"/>
      <point x="605.2083333333333" y="1043.75"/>
      <point x="681.2499999999999" y="1022.65625"/>
      <point x="746.875" y="980.46875" type="curve" smooth="yes"/>
      <point x="878.1250000000002" y="896.09375"/>
      <point x="957.8125" y="735.9374999999997"/>
      <point x="957.8125" y="517.1875" type="curve" smooth="yes"/>
      <point x="957.8125" y="298.43749999999994"/>
      <point x="878.125" y="134.37499999999997"/>
      <point x="746.875" y="46.875" type="curve" smooth="yes"/>
      <point x="681.2499999999999" y="3.125"/>
      <point x="605.2083333333333" y="-18.75"/>
    </contour>
    <contour>
      <point x="518.75" y="96.875" type="curve" smooth="yes"/>
      <point x="703.1249999999993" y="96.87499999999997"/>
      <point x="821.875" y="260.9374999999995"/>
      <point x="821.875" y="517.1875" type="curve" smooth="yes"/>
      <point x="821.875" y="770.3124999999997"/>
      <point x="703.1249999999997" y="929.6875"/>
      <point x="518.75" y="929.6875" type="curve" smooth="yes"/>
      <point x="397.9166666666664" y="929.6875"/>
      <point x="303.1249999999999" y="858.8541666666664"/>
      <point x="253.125" y="735.9375" type="curve" smooth="yes"/>
      <point x="228.125" y="674.4791666666666"/>
      <point x="215.625" y="601.5624999999999"/>
      <point x="215.625" y="517.1875" type="curve" smooth="yes"/>
      <point x="215.625" y="346.3541666666665"/>
      <point x="267.70833333333337" y="217.18749999999994"/>
      <point x="359.375" y="148.4375" type="curve" smooth="yes"/>
      <point x="405.2083333333333" y="114.0625"/>
      <point x="458.3333333333333" y="96.87499999999999"/>
    </contour>
  </outline>
</glyph>
<glyph name="P" format="2">
  <advance width="884"/>
  <unicode hex="0050"/>
  <outline>
    <contour>
      <point x="140.625" y="0.0" type="line"/>
      <point x="140.625" y="1025.0" type="line"/>
      <point x="432.8125" y="1025.0" type="line" smooth="yes"/>
      <point x="586.9791666666666" y="1025.0"/>
      <point x="704.1666666666666" y="989.0625"/>
      <point x="768.75" y="901.5625" type="curve" smooth="yes"/>
      <point x="801.0416666666666" y="857.8125"/>
      <point x="817.1875" y="798.4374999999999"/>
      <point x="817.1875" y="723.4375" type="curve" smooth="yes"/>
      <point x="817.1875" y="579.6874999999997"/>
      <point x="750.2604166666664" y="488.2812499999999"/>
      <point x="636.71875" y="441.40625" type="curve" smooth="yes"/>
      <point x="579.9479166666666" y="417.96875"/>
      <point x="514.0625" y="406.25"/>
      <point x="439.0625" y="406.25" type="curve" smooth="yes"/>
      <point x="270.3125" y="406.25" type="line"/>
      <point x="270.3125" y="0.0" type="line"/>
    </contour>
    <contour>
      <point x="270.3125" y="512.5" type="line"/>
      <point x="423.4375" y="512.5" type="line" smooth="yes"/>
      <point x="602.6041666666663" y="512.5"/>
      <point x="687.5" y="579.6874999999997"/>
      <point x="687.5" y="723.4375" type="curve" smooth="yes"/>
      <point x="687.5" y="871.3541666666664"/>
      <point x="596.3541666666667" y="920.3125"/>
      <point x="417.1875" y="920.3125" type="curve" smooth="yes"/>
      <point x="270.3125" y="920.3125" type="line"/>
    </contour>
  </outline>
</glyph>
<glyph name="Q" format="2">
  <advance width="1038"/>
  <unicode hex="0051"/>
  <outline>
    <contour>
      <point x="518.75" y="-18.75" type="curve" smooth="yes"/>
      <point x="433.3333333333333" y="-18.75"/>
      <point x="357.5520833333333" y="3.125"/>
      <point x="291.40625" y="46.875" type="curve" smooth="yes"/>
      <point x="159.11458333333331" y="134.375"/>
      <point x="81.25" y="296.35416666666663"/>
      <point x="81.25" y="517.1875" type="curve" smooth="yes"/>
      <point x="81.25" y="626.5624999999999"/>
      <point x="99.73958333333333" y="720.5729166666666"/>
      <point x="136.71875" y="799.21875" type="curve" smooth="yes"/>
      <point x="210.67708333333331" y="956.5104166666664"/>
      <point x="347.9166666666666" y="1043.75"/>
      <point x="518.75" y="1043.75" type="curve" smooth="yes"/>
      <point x="605.2083333333333" y="1043.75"/>
      <point x="681.2499999999999" y="1022.65625"/>
      <point x="746.875" y="980.46875" type="curve" smooth="yes"/>
      <point x="878.1250000000002" y="896.09375"/>
      <point x="957.8125" y="735.9374999999997"/>
      <point x="957.8125" y="517.1875" type="curve" smooth="yes"/>
      <point x="957.8125" y="296.35416666666663"/>
      <point x="878.125" y="134.375"/>
      <point x="746.875" y="46.875" type="curve" smooth="yes"/>
      <point x="681.2499999999999" y="3.125"/>
      <point x="605.2083333333333" y="-18.75"/>
    </contour>
    <contour>
      <point x="518.75" y="89.0625" type="curve" smooth="yes"/>
      <point x="703.1249999999993" y="89.0625"/>
      <point x="821.875" y="254.6874999999997"/>
      <point x="821.875" y="517.1875" type="curve" smooth="yes"/>
      <point x="821.875" y="770.3124999999994"/>
      <point x="703.1249999999997" y="929.6875"/>
      <point x="518.75" y="929.6875" type="curve" smooth="yes"/>
      <point x="397.9166666666664" y="929.6875"/>
      <point x="303.1249999999999" y="860.677083333333"/>
      <point x="253.125" y="736.71875" type="curve" smooth="yes"/>
      <point x="228.125" y="674.7395833333333"/>
      <point x="215.625" y="601.5624999999999"/>
      <point x="215.625" y="517.1875" type="curve" smooth="yes"/>
      <point x="215.625" y="342.1875"/>
      <point x="267.7083333333333" y="211.1979166666666"/>
      <point x="359.375" y="141.40625" type="curve" smooth="yes"/>
      <point x="405.2083333333333" y="106.51041666666666"/>
      <point x="458.3333333333333" y="89.0625"/>
    </contour>
    <contour>
      <point x="832.8125" y="-257.8125" type="curve" smooth="yes"/>
      <point x="734.8958333333333" y="-257.8125"/>
      <point x="653.1249999999999" y="-232.8125"/>
      <point x="587.5" y="-182.8125" type="curve" smooth="yes"/>
      <point x="521.875" y="-132.8125"/>
      <point x="475.5208333333333" y="-70.83333333333334"/>
      <point x="448.4375" y="3.125" type="curve"/>
      <point x="584.375" y="14.0625" type="line"/>
      <point x="624.9999999999997" y="-95.3124999999996"/>
      <point x="724.9999999999997" y="-148.4375"/>
      <point x="846.875" y="-148.4375" type="curve" smooth="yes"/>
      <point x="892.708333333333" y="-148.4375"/>
      <point x="927.6041666666663" y="-142.70833333333334"/>
      <point x="954.6875" y="-134.375" type="curve"/>
      <point x="979.6875" y="-232.8125" type="line"/>
      <point x="948.4374999999998" y="-245.31250000000006"/>
      <point x="895.3124999999998" y="-257.8125"/>
    </contour>
  </outline>
</glyph>
<glyph name="R" format="2">
  <advance width="889"/>
  <unicode hex="0052"/>
  <outline>
    <contour>
      <point x="141" y="1025" type="line"/>
      <point x="247" y="1025"/>
      <point x="354" y="1025"/>
      <point x="461" y="1025" type="curve" smooth="yes"/>
      <point x="607" y="1025"/>
      <point x="777" y="980"/>
      <point x="812" y="819" type="curve" smooth="yes"/>
      <point x="822" y="776"/>
      <point x="823" y="731"/>
      <point x="817" y="688" type="curve" smooth="yes"/>
      <point x="781" y="407"/>
      <point x="479" y="433"/>
      <point x="270" y="433" type="curve"/>
      <point x="270" y="0" type="line"/>
      <point x="141" y="0" type="line"/>
    </contour>
    <contour>
      <point x="429" y="539"/>
      <point x="691" y="504"/>
      <point x="691" y="738" type="curve" smooth="yes"/>
      <point x="691" y="962"/>
      <point x="418" y="920"/>
      <point x="270" y="920" type="curve"/>
      <point x="270" y="539" type="line"/>
    </contour>
    <contour>
      <point x="436" y="469" type="line"/>
      <point x="538" y="538" type="line"/>
      <point x="850" y="0" type="line"/>
      <point x="703" y="0" type="line"/>
    </contour>
  </outline>
</glyph>
<glyph name="S" format="2">
  <advance width="834"/>
  <unicode hex="0053"/>
  <outline>
    <contour>
      <point x="425.0" y="-18.75" type="curve" smooth="yes"/>
      <point x="279.16666666666663" y="-18.75"/>
      <point x="157.29166666666663" y="40.62500000000002"/>
      <point x="65.625" y="134.375" type="curve"/>
      <point x="139.0625" y="218.75" type="line"/>
      <point x="211.9791666666666" y="141.66666666666663"/>
      <point x="318.22916666666663" y="95.3125"/>
      <point x="426.5625" y="95.3125" type="curve" smooth="yes"/>
      <point x="561.9791666666666" y="95.3125"/>
      <point x="640.625" y="162.49999999999997"/>
      <point x="640.625" y="262.5" type="curve" smooth="yes"/>
      <point x="640.625" y="333.33333333333337"/>
      <point x="608.0729166666666" y="370.8333333333332"/>
      <point x="557.03125" y="400.0" type="curve" smooth="yes"/>
      <point x="531.5104166666666" y="414.5833333333333"/>
      <point x="502.60416666666663" y="429.16666666666663"/>
      <point x="470.3125" y="443.75" type="curve" smooth="yes"/>
      <point x="323.4375" y="507.8125" type="line" smooth="yes"/>
      <point x="256.77083333333326" y="536.9791666666666"/>
      <point x="188.54166666666663" y="578.3854166666666"/>
      <point x="146.875" y="646.09375" type="curve" smooth="yes"/>
      <point x="126.04166666666666" y="679.9479166666666"/>
      <point x="115.625" y="721.875"/>
      <point x="115.625" y="771.875" type="curve" smooth="yes"/>
      <point x="115.625" y="876.0416666666663"/>
      <point x="174.21874999999986" y="961.71875"/>
      <point x="271.09375" y="1008.59375" type="curve" smooth="yes"/>
      <point x="319.53125" y="1032.03125"/>
      <point x="375.0" y="1043.75"/>
      <point x="437.5" y="1043.75" type="curve" smooth="yes"/>
      <point x="562.5" y="1043.75"/>
      <point x="669.7916666666666" y="993.2291666666664"/>
      <point x="740.625" y="920.3125" type="curve"/>
      <point x="670.3125" y="835.9375" type="line"/>
      <point x="605.7291666666665" y="892.1875"/>
      <point x="529.1666666666665" y="929.6875"/>
      <point x="437.5" y="929.6875" type="curve" smooth="yes"/>
      <point x="322.9166666666664" y="929.6875"/>
      <point x="246.875" y="871.3541666666663"/>
      <point x="246.875" y="779.6875" type="curve" smooth="yes"/>
      <point x="246.875" y="715.1041666666665"/>
      <point x="283.59375000000006" y="675.5208333333333"/>
      <point x="336.71875" y="648.4375" type="curve" smooth="yes"/>
      <point x="363.28125" y="634.8958333333333"/>
      <point x="390.10416666666663" y="621.875"/>
      <point x="417.1875" y="609.375" type="curve" smooth="yes"/>
      <point x="562.5" y="546.875" type="line" smooth="yes"/>
      <point x="684.3749999999998" y="493.7499999999999"/>
      <point x="773.4375" y="423.43750000000034"/>
      <point x="773.4375" y="273.4375" type="curve" smooth="yes"/>
      <point x="773.4375" y="165.10416666666652"/>
      <point x="716.9270833333331" y="72.39583333333329"/>
      <point x="611.71875" y="20.3125" type="curve" smooth="yes"/>
      <point x="559.1145833333333" y="-5.729166666666669"/>
      <point x="496.875" y="-18.75"/>
    </contour>
  </outline>
</glyph>
<glyph name="T" format="2">
  <advance width="838"/>
  <unicode hex="0054"/>
  <outline>
    <contour>
      <point x="353.125" y="0.0" type="line"/>
      <point x="353.125" y="914.0625" type="line"/>
      <point x="43.75" y="914.0625" type="line"/>
      <point x="43.75" y="1025.0" type="line"/>
      <point x="793.75" y="1025.0" type="line"/>
      <point x="793.75" y="914.0625" type="line"/>
      <point x="484.375" y="914.0625" type="line"/>
      <point x="484.375" y="0.0" type="line"/>
    </contour>
  </outline>
</glyph>
<glyph name="U" format="2">
  <advance width="1008"/>
  <unicode hex="0055"/>
  <outline>
    <contour>
      <point x="266" y="1025" type="line"/>
      <point x="266" y="821"/>
      <point x="265" y="618"/>
      <point x="266" y="414" type="curve" smooth="yes"/>
      <point x="266" y="252"/>
      <point x="317" y="97"/>
      <point x="505" y="97" type="curve" smooth="yes"/>
      <point x="693" y="97"/>
      <point x="748" y="249"/>
      <point x="748" y="414" type="curve" smooth="yes"/>
      <point x="749" y="618"/>
      <point x="748" y="821"/>
      <point x="748" y="1025" type="curve"/>
      <point x="872" y="1025" type="line"/>
      <point x="872" y="822"/>
      <point x="872" y="620"/>
      <point x="872" y="417" type="curve" smooth="yes"/>
      <point x="872" y="171"/>
      <point x="773" y="-19"/>
      <point x="505" y="-19" type="curve" smooth="yes"/>
      <point x="238" y="-19"/>
      <point x="136" y="171"/>
      <point x="136" y="417" type="curve" smooth="yes"/>
      <point x="136" y="620"/>
      <point x="136" y="822"/>
      <point x="136" y="1025" type="curve"/>
    </contour>
  </outline>
</glyph>
<glyph name="V" format="2">
  <advance width="805"/>
  <unicode hex="0056"/>
  <outline>
    <contour>
      <point x="0" y="1025" type="line"/>
      <point x="139" y="1025" type="line"/>
      <point x="397" y="133" type="line"/>
      <point x="403" y="133" type="line"/>
      <point x="672" y="1025" type="line"/>
      <point x="805" y="1025" type="line"/>
      <point x="473" y="0" type="line"/>
      <point x="322" y="0" type="line"/>
    </contour>
  </outline>
</glyph>
<glyph name="W" format="2">
  <advance width="1228"/>
  <unicode hex="0057"/>
  <outline>
    <contour>
      <point x="36" y="1025" type="line"/>
      <point x="175" y="1025" type="line"/>
      <point x="231" y="728"/>
      <point x="292" y="431"/>
      <point x="336" y="131" type="curve"/>
      <point x="342" y="131" type="line"/>
      <point x="397" y="432"/>
      <point x="478" y="728"/>
      <point x="552" y="1025" type="curve"/>
      <point x="683" y="1025" type="line"/>
      <point x="754" y="728"/>
      <point x="831" y="431"/>
      <point x="891" y="131" type="curve"/>
      <point x="897" y="131" type="line"/>
      <point x="940" y="431"/>
      <point x="1002" y="727"/>
      <point x="1059" y="1025" type="curve"/>
      <point x="1192" y="1025" type="line"/>
      <point x="978" y="0" type="line"/>
      <point x="811" y="0" type="line"/>
      <point x="743" y="284"/>
      <point x="666" y="568"/>
      <point x="617" y="856" type="curve"/>
      <point x="611" y="856" type="line"/>
      <point x="568" y="568"/>
      <point x="483" y="279"/>
      <point x="416" y="0" type="curve"/>
      <point x="248" y="0" type="line"/>
    </contour>
  </outline>
</glyph>
<glyph name="X" format="2">
  <advance width="802"/>
  <unicode hex="0058"/>
  <outline>
    <contour>
      <point x="23.4375" y="0.0" type="line"/>
      <point x="321.875" y="529.6875" type="line"/>
      <point x="43.75" y="1025.0" type="line"/>
      <point x="187.5" y="1025.0" type="line"/>
      <point x="326.5625" y="762.5" type="line" smooth="yes"/>
      <point x="353.6458333333333" y="716.6666666666664"/>
      <point x="374.99999999999994" y="674.4791666666665"/>
      <point x="406.25" y="614.0625" type="curve"/>
      <point x="412.5" y="614.0625" type="line"/>
      <point x="441.66666666666663" y="674.4791666666665"/>
      <point x="460.9375" y="716.6666666666663"/>
      <point x="485.9375" y="762.5" type="curve" smooth="yes"/>
      <point x="621.875" y="1025.0" type="line"/>
      <point x="759.375" y="1025.0" type="line"/>
      <point x="479.6875" y="523.4375" type="line"/>
      <point x="778.125" y="0.0" type="line"/>
      <point x="634.375" y="0.0" type="line"/>
      <point x="484.375" y="276.5625" type="line" smooth="yes"/>
      <point x="457.29166666666663" y="326.5625"/>
      <point x="430.2083333333332" y="378.125"/>
      <point x="396.875" y="440.625" type="curve"/>
      <point x="390.625" y="440.625" type="line"/>
      <point x="361.4583333333332" y="378.12499999999994"/>
      <point x="336.4583333333333" y="326.5625"/>
      <point x="309.375" y="276.5625" type="curve" smooth="yes"/>
      <point x="160.9375" y="0.0" type="line"/>
    </contour>
  </outline>
</glyph>
<glyph name="Y" format="2">
  <advance width="744"/>
  <unicode hex="0059"/>
  <outline>
    <contour>
      <point x="306.25" y="0.0" type="line"/>
      <point x="306.25" y="396.875" type="line"/>
      <point x="-1.5625" y="1025.0" type="line"/>
      <point x="137.5" y="1025.0" type="line"/>
      <point x="270.3125" y="735.9375" type="line" smooth="yes"/>
      <point x="301.56250000000006" y="660.9374999999999"/>
      <point x="333.33333333333337" y="589.5833333333331"/>
      <point x="368.75" y="512.5" type="curve"/>
      <point x="375.0" y="512.5" type="line"/>
      <point x="412.5" y="589.5833333333331"/>
      <point x="446.875" y="660.9374999999999"/>
      <point x="478.125" y="735.9375" type="curve" smooth="yes"/>
      <point x="609.375" y="1025.0" type="line"/>
      <point x="745.3125" y="1025.0" type="line"/>
      <point x="435.9375" y="396.875" type="line"/>
      <point x="435.9375" y="0.0" type="line"/>
    </contour>
  </outline>
</glyph>
<glyph name="Z" format="2">
  <advance width="842"/>
  <unicode hex="005A"/>
  <outline>
    <contour>
      <point x="609" y="916" type="line"/>
      <point x="119" y="916" type="line"/>
      <point x="119" y="1025" type="line"/>
      <point x="772" y="1025" type="line"/>
      <point x="772" y="948" type="line"/>
      <point x="231" y="111" type="line"/>
      <point x="777" y="111" type="line"/>
      <point x="777" y="0" type="line"/>
      <point x="70" y="0" type="line"/>
      <point x="70" y="78" type="line"/>
    </contour>
  </outline>
</glyph>
<glyph name="bracketleft" format="2">
  <advance width="473"/>
  <unicode hex="005B"/>
  <outline>
    <contour>
      <point x="147" y="1106" type="line"/>
      <point x="427" y="1106" type="line"/>
      <point x="427" y="1033" type="line"/>
      <point x="244" y="1033" type="line"/>
      <point x="244" y="-164" type="line"/>
      <point x="427" y="-164" type="line"/>
      <point x="427" y="-238" type="line"/>
      <point x="147" y="-238" type="line"/>
    </contour>
  </outline>
</glyph>
<glyph name="backslash" format="2">
  <advance width="547"/>
  <unicode hex="005C"/>
  <outline>
    <contour>
      <point x="22" y="1109" type="line"/>
      <point x="114" y="1109" type="line"/>
      <point x="531" y="-250" type="line"/>
      <point x="439" y="-250" type="line"/>
    </contour>
  </outline>
</glyph>
<glyph name="bracketright" format="2">
  <advance width="473"/>
  <unicode hex="005D"/>
  <outline>
    <contour>
      <point x="48.4375" y="-237.5" type="line"/>
      <point x="48.4375" y="-164.0625" type="line"/>
      <point x="229.6875" y="-164.0625" type="line"/>
      <point x="229.6875" y="1032.8125" type="line"/>
      <point x="48.4375" y="1032.8125" type="line"/>
      <point x="48.4375" y="1106.25" type="line"/>
      <point x="326.5625" y="1106.25" type="line"/>
      <point x="326.5625" y="-237.5" type="line"/>
    </contour>
  </outline>
</glyph>
<glyph name="asciicircum" format="2">
  <advance width="777"/>
  <unicode hex="005E"/>
  <outline>
    <contour>
      <point x="93.75" y="443.75" type="line"/>
      <point x="331.25" y="1046.875" type="line"/>
      <point x="445.3125" y="1046.875" type="line"/>
      <point x="682.8125" y="443.75" type="line"/>
      <point x="570.3125" y="443.75" type="line"/>
      <point x="468.75" y="718.75" type="line"/>
      <point x="392.1875" y="926.5625" type="line"/>
      <point x="385.9375" y="926.5625" type="line"/>
      <point x="307.8125" y="718.75" type="line"/>
      <point x="206.25" y="443.75" type="line"/>
    </contour>
  </outline>
</glyph>
<glyph name="underscore" format="2">
  <advance width="781"/>
  <unicode hex="005F"/>
  <outline>
    <contour>
      <point x="18.75" y="-196.875" type="line"/>
      <point x="18.75" y="-110.9375" type="line"/>
      <point x="762.5" y="-110.9375" type="line"/>
      <point x="762.5" y="-196.875" type="line"/>
    </contour>
  </outline>
</glyph>
<glyph name="grave" format="2">
  <advance width="847"/>
  <unicode hex="0060"/>
  <outline>
    <contour>
      <point x="194" y="1134" type="line"/>
      <point x="202" y="1148" type="line"/>
      <point x="342" y="1148" type="line"/>
      <point x="544" y="891" type="line"/>
      <point x="441" y="891" type="line"/>
    </contour>
  </outline>
</glyph>
<glyph name="a" format="2">
  <advance width="788"/>
  <unicode hex="0061"/>
  <outline>
    <contour>
      <point x="531" y="732"/>
      <point x="332" y="699"/>
      <point x="164" y="592" type="curve"/>
      <point x="114" y="680" type="line"/>
      <point x="270" y="782"/>
      <point x="558" y="857"/>
      <point x="649" y="631" type="curve" smooth="yes"/>
      <point x="709" y="482"/>
      <point x="677" y="20"/>
      <point x="677" y="0" type="curve"/>
      <point x="570" y="0" type="line"/>
      <point x="559" y="91" type="line"/>
      <point x="555" y="91" type="line"/>
      <point x="506" y="52"/>
      <point x="455" y="16"/>
      <point x="395" y="-4" type="curve" smooth="yes"/>
      <point x="261" y="-47"/>
      <point x="101" y="11"/>
      <point x="82" y="164" type="curve" smooth="yes"/>
      <point x="50" y="421"/>
      <point x="363" y="461"/>
      <point x="548" y="483" type="curve" smooth="yes"/>
    </contour>
    <contour>
      <point x="548" y="391" type="line"/>
      <point x="435" y="376"/>
      <point x="186" y="354"/>
      <point x="207" y="185" type="curve" smooth="yes"/>
      <point x="221" y="79"/>
      <point x="349" y="73"/>
      <point x="428" y="105" type="curve" smooth="yes"/>
      <point x="473" y="123"/>
      <point x="512" y="154"/>
      <point x="548" y="186" type="curve"/>
    </contour>
  </outline>
</glyph>
<glyph name="b" format="2">
  <advance width="864"/>
  <unicode hex="0062"/>
  <outline>
    <contour>
      <point x="464.0625" y="-18.75" type="curve" smooth="yes"/>
      <point x="393.2291666666666" y="-18.75"/>
      <point x="315.62499999999994" y="17.70833333333335"/>
      <point x="246.875" y="78.125" type="curve"/>
      <point x="242.1875" y="78.125" type="line"/>
      <point x="231.25" y="0.0" type="line"/>
      <point x="128.125" y="0.0" type="line"/>
      <point x="128.125" y="1112.5" type="line"/>
      <point x="256.25" y="1112.5" type="line"/>
      <point x="256.25" y="809.375" type="line"/>
      <point x="253.125" y="671.875" type="line"/>
      <point x="321.87499999999994" y="732.2916666666666"/>
      <point x="407.29166666666663" y="778.125"/>
      <point x="490.625" y="778.125" type="curve" smooth="yes"/>
      <point x="687.4999999999998" y="778.125"/>
      <point x="792.1875" y="626.5625000000002"/>
      <point x="792.1875" y="392.1875" type="curve" smooth="yes"/>
      <point x="792.1875" y="219.27083333333312"/>
      <point x="724.9999999999998" y="94.27083333333327"/>
      <point x="625.0" y="29.6875" type="curve" smooth="yes"/>
      <point x="575.0" y="-2.6041666666666687"/>
      <point x="521.3541666666666" y="-18.75"/>
    </contour>
    <contour>
      <point x="442.1875" y="89.0625" type="curve" smooth="yes"/>
      <point x="567.1874999999998" y="89.0625"/>
      <point x="659.375" y="203.12499999999991"/>
      <point x="659.375" y="390.625" type="curve" smooth="yes"/>
      <point x="659.375" y="556.2500000000001"/>
      <point x="603.1249999999997" y="670.3125"/>
      <point x="459.375" y="670.3125" type="curve" smooth="yes"/>
      <point x="396.87499999999994" y="670.3125"/>
      <point x="329.1666666666666" y="635.9375"/>
      <point x="256.25" y="567.1875" type="curve"/>
      <point x="256.25" y="168.75" type="line"/>
      <point x="322.91666666666663" y="110.41666666666666"/>
      <point x="392.1875" y="89.0625"/>
    </contour>
  </outline>
</glyph>
<glyph name="c" format="2">
  <advance width="712"/>
  <unicode hex="0063"/>
  <outline>
    <contour>
      <point x="429.6875" y="-18.75" type="curve" smooth="yes"/>
      <point x="361.97916666666663" y="-18.75"/>
      <point x="301.04166666666663" y="-3.125"/>
      <point x="246.875" y="28.125" type="curve" smooth="yes"/>
      <point x="138.5416666666666" y="90.625"/>
      <point x="71.875" y="211.45833333333331"/>
      <point x="71.875" y="378.125" type="curve" smooth="yes"/>
      <point x="71.875" y="548.9583333333333"/>
      <point x="145.5729166666666" y="668.75"/>
      <point x="257.03125" y="731.25" type="curve" smooth="yes"/>
      <point x="312.76041666666663" y="762.5"/>
      <point x="372.91666666666663" y="778.125"/>
      <point x="437.5" y="778.125" type="curve" smooth="yes"/>
      <point x="537.5" y="778.125"/>
      <point x="607.2916666666664" y="741.1458333333333"/>
      <point x="659.375" y="689.0625" type="curve"/>
      <point x="595.3125" y="609.375" type="line"/>
      <point x="557.8124999999999" y="646.8750000000001"/>
      <point x="506.77083333333314" y="670.3125"/>
      <point x="442.1875" y="670.3125" type="curve" smooth="yes"/>
      <point x="307.8124999999998" y="670.3125"/>
      <point x="204.6875" y="553.1249999999998"/>
      <point x="204.6875" y="378.125" type="curve" smooth="yes"/>
      <point x="204.6875" y="206.24999999999991"/>
      <point x="300.0" y="87.49999999999997"/>
      <point x="440.625" y="87.5" type="curve" smooth="yes"/>
      <point x="511.45833333333314" y="87.49999999999997"/>
      <point x="573.4374999999999" y="117.70833333333326"/>
      <point x="617.1875" y="159.375" type="curve"/>
      <point x="673.4375" y="81.25" type="line"/>
      <point x="608.8541666666663" y="20.83333333333327"/>
      <point x="527.6041666666665" y="-18.75"/>
    </contour>
  </outline>
</glyph>
<glyph name="d" format="2">
  <advance width="867"/>
  <unicode hex="0064"/>
  <outline>
    <contour>
      <point x="605" y="918"/>
      <point x="609" y="777"/>
      <point x="609" y="1112" type="curve"/>
      <point x="739" y="1112" type="line"/>
      <point x="739" y="0" type="line"/>
      <point x="633" y="0" type="line"/>
      <point x="622" y="89" type="line"/>
      <point x="617" y="89" type="line"/>
      <point x="581" y="54"/>
      <point x="541" y="24"/>
      <point x="494" y="4" type="curve" smooth="yes"/>
      <point x="445" y="-17"/>
      <point x="394" y="-23"/>
      <point x="341" y="-16" type="curve" smooth="yes"/>
      <point x="159" y="8"/>
      <point x="81" y="181"/>
      <point x="74" y="347" type="curve" smooth="yes"/>
      <point x="71" y="431"/>
      <point x="82" y="516"/>
      <point x="120" y="591" type="curve" smooth="yes"/>
      <point x="188" y="731"/>
      <point x="349" y="817"/>
      <point x="501" y="762" type="curve" smooth="yes"/>
      <point x="544" y="747"/>
      <point x="581" y="719"/>
      <point x="616" y="691" type="curve" smooth="yes"/>
    </contour>
    <contour>
      <point x="609" y="591" type="line"/>
      <point x="382" y="793"/>
      <point x="189" y="587"/>
      <point x="208" y="336" type="curve" smooth="yes"/>
      <point x="228" y="67"/>
      <point x="440" y="14"/>
      <point x="609" y="194" type="curve"/>
    </contour>
  </outline>
</glyph>
<glyph name="e" format="2">
  <advance width="775"/>
  <unicode hex="0065"/>
  <outline>
    <contour>
      <point x="435.9375" y="-18.75" type="curve" smooth="yes"/>
      <point x="368.22916666666663" y="-18.75"/>
      <point x="306.51041666666663" y="-2.864583333333337"/>
      <point x="250.78125" y="28.90625" type="curve" smooth="yes"/>
      <point x="139.32291666666666" y="92.44791666666666"/>
      <point x="70.3125" y="210.9375"/>
      <point x="70.3125" y="379.6875" type="curve" smooth="yes"/>
      <point x="70.3125" y="461.97916666666663"/>
      <point x="86.97916666666666" y="532.8125"/>
      <point x="120.3125" y="592.1875" type="curve" smooth="yes"/>
      <point x="186.97916666666652" y="710.9374999999997"/>
      <point x="297.3958333333331" y="778.125"/>
      <point x="414.0625" y="778.125" type="curve" smooth="yes"/>
      <point x="543.2291666666666" y="778.125"/>
      <point x="635.4166666666666" y="715.625"/>
      <point x="681.25" y="609.375" type="curve" smooth="yes"/>
      <point x="704.1666666666666" y="556.25"/>
      <point x="715.625" y="493.75"/>
      <point x="715.625" y="421.875" type="curve" smooth="yes"/>
      <point x="715.625" y="394.7916666666665"/>
      <point x="715.6249999999998" y="370.31249999999983"/>
      <point x="709.375" y="345.3125" type="curve"/>
      <point x="162.5" y="345.3125" type="line"/>
      <point x="162.5" y="446.875" type="line"/>
      <point x="600.0" y="446.875" type="line"/>
      <point x="600.0" y="592.7083333333333"/>
      <point x="534.375" y="673.4375"/>
      <point x="415.625" y="673.4375" type="curve" smooth="yes"/>
      <point x="346.87499999999983" y="673.4375"/>
      <point x="274.73958333333326" y="636.9791666666663"/>
      <point x="232.03125" y="551.5625" type="curve" smooth="yes"/>
      <point x="210.67708333333331" y="508.85416666666663"/>
      <point x="200.0" y="452.0833333333333"/>
      <point x="200.0" y="381.25" type="curve" smooth="yes"/>
      <point x="200.0" y="252.08333333333331"/>
      <point x="247.9166666666666" y="164.32291666666666"/>
      <point x="325.0" y="119.53125" type="curve" smooth="yes"/>
      <point x="363.54166666666663" y="97.13541666666666"/>
      <point x="405.72916666666663" y="85.9375"/>
      <point x="451.5625" y="85.9375" type="curve" smooth="yes"/>
      <point x="524.4791666666664" y="85.9375"/>
      <point x="588.5416666666663" y="108.33333333333321"/>
      <point x="640.625" y="143.75" type="curve"/>
      <point x="687.5" y="59.375" type="line"/>
      <point x="620.8333333333331" y="13.541666666666623"/>
      <point x="540.1041666666665" y="-18.75"/>
    </contour>
  </outline>
</glyph>
<glyph name="f" format="2">
  <advance width="456"/>
  <unicode hex="0066"/>
  <outline>
    <contour>
      <point x="150.0" y="0.0" type="line"/>
      <point x="150.0" y="879.6875" type="line" smooth="yes"/>
      <point x="150.0" y="1032.8124999999995"/>
      <point x="218.74999999999974" y="1131.25"/>
      <point x="371.875" y="1131.25" type="curve" smooth="yes"/>
      <point x="417.70833333333314" y="1131.25"/>
      <point x="465.1041666666665" y="1120.8333333333333"/>
      <point x="498.4375" y="1106.25" type="curve"/>
      <point x="470.3125" y="1012.5" type="line"/>
      <point x="440.10416666666663" y="1021.875"/>
      <point x="411.4583333333333" y="1026.5625"/>
      <point x="384.375" y="1026.5625" type="curve" smooth="yes"/>
      <point x="313.5416666666664" y="1026.5625"/>
      <point x="278.125" y="977.6041666666661"/>
      <point x="278.125" y="879.6875" type="curve" smooth="yes"/>
      <point x="278.125" y="0.0" type="line"/>
    </contour>
    <contour>
      <point x="37.5" y="654.6875" type="line"/>
      <point x="37.5" y="751.5625" type="line"/>
      <point x="156.25" y="759.375" type="line"/>
      <point x="439.0625" y="759.375" type="line"/>
      <point x="439.0625" y="654.6875" type="line"/>
    </contour>
  </outline>
</glyph>
<glyph name="g" format="2">
  <advance width="788"/>
  <unicode hex="0067"/>
  <outline>
    <contour>
      <point x="181" y="33" type="line"/>
      <point x="73" y="116"/>
      <point x="106" y="223"/>
      <point x="197" y="297" type="curve"/>
      <point x="197" y="303" type="line"/>
      <point x="45" y="449"/>
      <point x="65" y="693"/>
      <point x="288" y="764" type="curve" smooth="yes"/>
      <point x="338" y="780"/>
      <point x="392" y="782"/>
      <point x="444" y="773" type="curve" smooth="yes"/>
      <point x="459" y="770"/>
      <point x="478" y="760"/>
      <point x="492" y="759" type="curve" smooth="yes"/>
      <point x="580" y="759"/>
      <point x="668" y="759"/>
      <point x="756" y="759" type="curve"/>
      <point x="756" y="661" type="line"/>
      <point x="598" y="661" type="line"/>
      <point x="598" y="655" type="line"/>
      <point x="647" y="605"/>
      <point x="667" y="547"/>
      <point x="661" y="477" type="curve" smooth="yes"/>
      <point x="645" y="279"/>
      <point x="436" y="196"/>
      <point x="270" y="267" type="curve" smooth="yes"/>
      <point x="191" y="190"/>
      <point x="209" y="102"/>
      <point x="332" y="94" type="curve" smooth="yes"/>
      <point x="477" y="85"/>
      <point x="767" y="141"/>
      <point x="769" y="-88" type="curve" smooth="yes"/>
      <point x="769" y="-118"/>
      <point x="761" y="-149"/>
      <point x="748" y="-177" type="curve" smooth="yes"/>
      <point x="658" y="-357"/>
      <point x="351" y="-389"/>
      <point x="188" y="-313" type="curve" smooth="yes"/>
      <point x="15" y="-232"/>
      <point x="51" y="-66"/>
      <point x="181" y="27" type="curve"/>
    </contour>
    <contour>
      <point x="599" y="341"/>
      <point x="603" y="672"/>
      <point x="384" y="684" type="curve" smooth="yes"/>
      <point x="166" y="672"/>
      <point x="170" y="341"/>
      <point x="384" y="327" type="curve" smooth="yes"/>
    </contour>
    <contour>
      <point x="592" y="-211"/>
      <point x="691" y="-127"/>
      <point x="626" y="-50" type="curve" smooth="yes"/>
      <point x="595" y="-14"/>
      <point x="535" y="-13"/>
      <point x="491" y="-12" type="curve" smooth="yes"/>
      <point x="409" y="-12"/>
      <point x="339" y="-17"/>
      <point x="261" y="0" type="curve" smooth="yes"/>
      <point x="178" y="-66"/>
      <point x="136" y="-179"/>
      <point x="262" y="-236" type="curve" smooth="yes"/>
      <point x="343" y="-272"/>
      <point x="446" y="-269"/>
      <point x="529" y="-239" type="curve" smooth="yes"/>
    </contour>
  </outline>
</glyph>
<glyph name="h" format="2">
  <advance width="850"/>
  <unicode hex="0068"/>
  <outline>
    <contour>
      <point x="324" y="722"/>
      <point x="401" y="778"/>
      <point x="505" y="778" type="curve" smooth="yes"/>
      <point x="665" y="778"/>
      <point x="736" y="675"/>
      <point x="736" y="481" type="curve"/>
      <point x="736" y="0" type="line"/>
      <point x="608" y="0" type="line"/>
      <point x="608" y="464" type="line"/>
      <point x="608" y="608"/>
      <point x="566" y="667"/>
      <point x="464" y="667" type="curve" smooth="yes"/>
      <point x="387" y="667"/>
      <point x="333" y="627"/>
      <point x="256" y="550" type="curve"/>
      <point x="256" y="0" type="line"/>
      <point x="128" y="0" type="line"/>
      <point x="128" y="1112" type="line"/>
      <point x="256" y="1112" type="line"/>
      <point x="252" y="653" type="line"/>
    </contour>
  </outline>
</glyph>
<glyph name="i" format="2">
  <advance width="384"/>
  <unicode hex="0069"/>
  <outline>
    <contour>
      <point x="128.125" y="0.0" type="line"/>
      <point x="128.125" y="759.375" type="line"/>
      <point x="256.25" y="759.375" type="line"/>
      <point x="256.25" y="0.0" type="line"/>
    </contour>
    <contour>
      <point x="192.1875" y="915.625" type="curve" smooth="yes"/>
      <point x="142.18749999999997" y="915.625"/>
      <point x="106.25" y="950.0"/>
      <point x="106.25" y="1000.0" type="curve" smooth="yes"/>
      <point x="106.25" y="1050.0"/>
      <point x="142.18749999999997" y="1084.375"/>
      <point x="192.1875" y="1084.375" type="curve" smooth="yes"/>
      <point x="242.18749999999994" y="1084.375"/>
      <point x="278.125" y="1050.0"/>
      <point x="278.125" y="1000.0" type="curve" smooth="yes"/>
      <point x="278.125" y="950.0"/>
      <point x="242.18749999999994" y="915.625"/>
    </contour>
  </outline>
</glyph>
<glyph name="j" format="2">
  <advance width="386"/>
  <unicode hex="006A"/>
  <outline>
    <contour>
      <point x="-36" y="-220" type="line"/>
      <point x="82" y="-256"/>
      <point x="130" y="-213"/>
      <point x="130" y="-84" type="curve" smooth="yes"/>
      <point x="130" y="197"/>
      <point x="130" y="478"/>
      <point x="130" y="759" type="curve"/>
      <point x="258" y="759" type="line"/>
      <point x="258" y="478"/>
      <point x="258" y="196"/>
      <point x="258" y="-86" type="curve" smooth="yes"/>
      <point x="258" y="-294"/>
      <point x="126" y="-389"/>
      <point x="-62" y="-317" type="curve"/>
    </contour>
    <contour>
      <point x="77" y="929"/>
      <point x="77" y="1071"/>
      <point x="192" y="1084" type="curve" smooth="yes"/>
      <point x="308" y="1071"/>
      <point x="308" y="929"/>
      <point x="192" y="916" type="curve" smooth="yes"/>
    </contour>
  </outline>
</glyph>
<glyph name="k" format="2">
  <advance width="773"/>
  <unicode hex="006B"/>
  <outline>
    <contour>
      <point x="128" y="1112" type="line"/>
      <point x="256" y="1112" type="line"/>
      <point x="256" y="361" type="line"/>
      <point x="259" y="361" type="line"/>
      <point x="581" y="759" type="line"/>
      <point x="725" y="759" type="line"/>
      <point x="472" y="453" type="line"/>
      <point x="759" y="0" type="line"/>
      <point x="619" y="0" type="line"/>
      <point x="397" y="366" type="line"/>
      <point x="256" y="200" type="line"/>
      <point x="256" y="0" type="line"/>
      <point x="128" y="0" type="line"/>
    </contour>
  </outline>
</glyph>
<glyph name="l" format="2">
  <advance width="398"/>
  <unicode hex="006C"/>
  <outline>
    <contour>
      <point x="264.0625" y="-14.0625" type="curve" smooth="yes"/>
      <point x="167.18749999999977" y="-14.0625"/>
      <point x="128.125" y="46.875"/>
      <point x="128.125" y="156.25" type="curve" smooth="yes"/>
      <point x="128.125" y="1112.5" type="line"/>
      <point x="256.25" y="1112.5" type="line"/>
      <point x="256.25" y="146.875" type="line" smooth="yes"/>
      <point x="256.25" y="105.20833333333334"/>
      <point x="272.91666666666663" y="92.18749999999997"/>
      <point x="293.75" y="92.1875" type="curve" smooth="yes"/>
      <point x="302.08333333333326" y="92.18749999999997"/>
      <point x="307.8124999999999" y="93.22916666666664"/>
      <point x="320.3125" y="95.3125" type="curve"/>
      <point x="339.0625" y="-1.5625" type="line"/>
      <point x="320.31249999999994" y="-7.812500000000011"/>
      <point x="297.39583333333326" y="-14.0625"/>
    </contour>
  </outline>
</glyph>
<glyph name="m" format="2">
  <advance width="1295"/>
  <unicode hex="006D"/>
  <outline>
    <contour>
      <point x="128.125" y="0.0" type="line"/>
      <point x="128.125" y="759.375" type="line"/>
      <point x="234.375" y="759.375" type="line"/>
      <point x="245.3125" y="650.0" type="line"/>
      <point x="250.0" y="650.0" type="line"/>
      <point x="316.66666666666663" y="720.8333333333333"/>
      <point x="394.2708333333332" y="778.125"/>
      <point x="485.9375" y="778.125" type="curve" smooth="yes"/>
      <point x="602.6041666666666" y="778.125"/>
      <point x="664.0624999999998" y="722.3958333333333"/>
      <point x="695.3125" y="632.8125" type="curve"/>
      <point x="774.4791666666666" y="720.3125"/>
      <point x="853.6458333333333" y="778.125"/>
      <point x="945.3125" y="778.125" type="curve" smooth="yes"/>
      <point x="1103.6458333333333" y="778.125"/>
      <point x="1176.5625" y="674.9999999999999"/>
      <point x="1176.5625" y="481.25" type="curve" smooth="yes"/>
      <point x="1176.5625" y="0.0" type="line"/>
      <point x="1048.4375" y="0.0" type="line"/>
      <point x="1048.4375" y="464.0625" type="line" smooth="yes"/>
      <point x="1048.4375" y="607.8124999999999"/>
      <point x="1003.6458333333333" y="667.1874999999998"/>
      <point x="907.8125" y="667.1875" type="curve"/>
      <point x="847.395833333333" y="667.1874999999998"/>
      <point x="788.0208333333329" y="629.1666666666663"/>
      <point x="717.1875" y="550.0" type="curve"/>
      <point x="717.1875" y="0.0" type="line"/>
      <point x="589.0625" y="0.0" type="line"/>
      <point x="589.0625" y="464.0625" type="line" smooth="yes"/>
      <point x="589.0625" y="607.8124999999998"/>
      <point x="544.7916666666667" y="667.1874999999998"/>
      <point x="446.875" y="667.1875" type="curve"/>
      <point x="389.5833333333333" y="667.1874999999999"/>
      <point x="326.04166666666663" y="628.1249999999999"/>
      <point x="256.25" y="550.0" type="curve"/>
      <point x="256.25" y="0.0" type="line"/>
    </contour>
  </outline>
</glyph>
<glyph name="n" format="2">
  <advance width="855"/>
  <unicode hex="006E"/>
  <outline>
    <contour>
      <point x="323" y="723"/>
      <point x="401" y="778"/>
      <point x="505" y="778" type="curve" smooth="yes"/>
      <point x="665" y="778"/>
      <point x="736" y="675"/>
      <point x="736" y="481" type="curve"/>
      <point x="736" y="0" type="line"/>
      <point x="608" y="0" type="line"/>
      <point x="608" y="464" type="line"/>
      <point x="608" y="608"/>
      <point x="566" y="667"/>
      <point x="464" y="667" type="curve" smooth="yes"/>
      <point x="387" y="667"/>
      <point x="333" y="627"/>
      <point x="256" y="550" type="curve"/>
      <point x="256" y="0" type="line"/>
      <point x="128" y="0" type="line"/>
      <point x="128" y="759" type="line"/>
      <point x="234" y="759" type="line"/>
      <point x="245" y="650" type="line"/>
      <point x="250" y="650" type="line"/>
    </contour>
  </outline>
</glyph>
<glyph name="o" format="2">
  <advance width="847"/>
  <unicode hex="006F"/>
  <outline>
    <contour>
      <point x="423.4375" y="-18.75" type="curve" smooth="yes"/>
      <point x="361.97916666666663" y="-18.75"/>
      <point x="304.4270833333333" y="-3.125"/>
      <point x="250.78125" y="28.125" type="curve" smooth="yes"/>
      <point x="143.48958333333331" y="90.625"/>
      <point x="71.875" y="211.45833333333331"/>
      <point x="71.875" y="378.125" type="curve" smooth="yes"/>
      <point x="71.875" y="548.9583333333333"/>
      <point x="143.48958333333331" y="668.75"/>
      <point x="250.78125" y="731.25" type="curve" smooth="yes"/>
      <point x="304.4270833333333" y="762.5"/>
      <point x="361.97916666666663" y="778.125"/>
      <point x="423.4375" y="778.125" type="curve" smooth="yes"/>
      <point x="548.4374999999999" y="778.125"/>
      <point x="660.1562499999998" y="714.0625000000001"/>
      <point x="725.78125" y="595.3125" type="curve" smooth="yes"/>
      <point x="758.5937499999999" y="535.9375"/>
      <point x="774.9999999999999" y="463.54166666666663"/>
      <point x="775.0" y="378.125" type="curve" smooth="yes"/>
      <point x="774.9999999999999" y="294.79166666666663"/>
      <point x="758.5937499999999" y="223.4375"/>
      <point x="725.78125" y="164.0625" type="curve" smooth="yes"/>
      <point x="660.1562499999998" y="45.312499999999915"/>
      <point x="548.4374999999999" y="-18.75"/>
    </contour>
    <contour>
      <point x="423.4375" y="87.5" type="curve" smooth="yes"/>
      <point x="467.1875" y="87.49999999999999"/>
      <point x="505.72916666666663" y="99.73958333333333"/>
      <point x="539.0625" y="124.21875" type="curve" smooth="yes"/>
      <point x="605.7291666666666" y="173.17708333333326"/>
      <point x="642.1875" y="263.5416666666665"/>
      <point x="642.1875" y="378.125" type="curve" smooth="yes"/>
      <point x="642.1875" y="494.79166666666663"/>
      <point x="605.7291666666666" y="586.1979166666666"/>
      <point x="539.0625" y="635.15625" type="curve" smooth="yes"/>
      <point x="505.72916666666663" y="659.6354166666666"/>
      <point x="467.1875" y="671.8749999999999"/>
      <point x="423.4375" y="671.875" type="curve"/>
      <point x="292.18749999999983" y="671.8749999999998"/>
      <point x="204.6875" y="553.1249999999997"/>
      <point x="204.6875" y="378.125" type="curve" smooth="yes"/>
      <point x="204.6875" y="206.24999999999986"/>
      <point x="292.1875000000001" y="87.49999999999997"/>
    </contour>
  </outline>
</glyph>
<glyph name="p" format="2">
  <advance width="867"/>
  <unicode hex="0070"/>
  <outline>
    <contour>
      <point x="128.125" y="-320.3125" type="line"/>
      <point x="128.125" y="759.375" type="line"/>
      <point x="234.375" y="759.375" type="line"/>
      <point x="245.3125" y="671.875" type="line"/>
      <point x="250.0" y="671.875" type="line"/>
      <point x="318.7499999999999" y="730.2083333333331"/>
      <point x="404.6874999999999" y="778.125"/>
      <point x="492.1875" y="778.125" type="curve" smooth="yes"/>
      <point x="685.9374999999998" y="778.125"/>
      <point x="792.1875" y="628.125"/>
      <point x="792.1875" y="390.625" type="curve" smooth="yes"/>
      <point x="792.1875" y="219.79166666666643"/>
      <point x="724.9999999999998" y="94.27083333333327"/>
      <point x="625.0" y="29.6875" type="curve" smooth="yes"/>
      <point x="575.0" y="-2.6041666666666687"/>
      <point x="521.3541666666666" y="-18.75"/>
      <point x="464.0625" y="-18.75" type="curve" smooth="yes"/>
      <point x="395.31249999999994" y="-18.75"/>
      <point x="323.95833333333326" y="14.583333333333348"/>
      <point x="253.125" y="68.75" type="curve"/>
      <point x="256.25" y="-64.0625" type="line"/>
      <point x="256.25" y="-320.3125" type="line"/>
    </contour>
    <contour>
      <point x="442.1875" y="89.0625" type="curve" smooth="yes"/>
      <point x="567.1874999999998" y="89.0625"/>
      <point x="659.375" y="203.12499999999991"/>
      <point x="659.375" y="390.625" type="curve" smooth="yes"/>
      <point x="659.375" y="556.2500000000001"/>
      <point x="603.1249999999997" y="670.3125"/>
      <point x="459.375" y="670.3125" type="curve" smooth="yes"/>
      <point x="396.87499999999994" y="670.3125"/>
      <point x="331.24999999999983" y="635.9374999999999"/>
      <point x="256.25" y="567.1875" type="curve"/>
      <point x="256.25" y="168.75" type="line"/>
      <point x="327.08333333333326" y="110.4166666666667"/>
      <point x="392.18749999999994" y="89.0625"/>
    </contour>
  </outline>
</glyph>
<glyph name="q" format="2">
  <advance width="867"/>
  <unicode hex="0071"/>
  <outline>
    <contour>
      <point x="609" y="-4"/>
      <point x="605" y="-140"/>
      <point x="616" y="88" type="curve" smooth="yes"/>
      <point x="579" y="53"/>
      <point x="539" y="23"/>
      <point x="492" y="3" type="curve" smooth="yes"/>
      <point x="437" y="-20"/>
      <point x="378" y="-24"/>
      <point x="319" y="-12" type="curve" smooth="yes"/>
      <point x="138" y="24"/>
      <point x="72" y="213"/>
      <point x="73" y="378" type="curve" smooth="yes"/>
      <point x="77" y="695"/>
      <point x="357" y="910"/>
      <point x="620" y="688" type="curve"/>
      <point x="623" y="688" type="line"/>
      <point x="636" y="759" type="line"/>
      <point x="739" y="759" type="line"/>
      <point x="739" y="-320" type="line"/>
      <point x="609" y="-320" type="line"/>
    </contour>
    <contour>
      <point x="609" y="591" type="line"/>
      <point x="382" y="793"/>
      <point x="189" y="587"/>
      <point x="208" y="336" type="curve" smooth="yes"/>
      <point x="228" y="67"/>
      <point x="440" y="14"/>
      <point x="609" y="194" type="curve"/>
    </contour>
  </outline>
</glyph>
<glyph name="r" format="2">
  <advance width="542"/>
  <unicode hex="0072"/>
  <outline>
    <contour>
      <point x="128.125" y="0.0" type="line"/>
      <point x="128.125" y="759.375" type="line"/>
      <point x="234.375" y="759.375" type="line"/>
      <point x="245.3125" y="621.875" type="line"/>
      <point x="250.0" y="621.875" type="line"/>
      <point x="300.0" y="717.7083333333333"/>
      <point x="378.125" y="778.125"/>
      <point x="465.625" y="778.125" type="curve" smooth="yes"/>
      <point x="498.9583333333332" y="778.125"/>
      <point x="521.875" y="775.0"/>
      <point x="546.875" y="762.5" type="curve"/>
      <point x="518.75" y="653.125" type="line"/>
      <point x="495.83333333333314" y="659.3749999999998"/>
      <point x="479.6874999999999" y="662.4999999999998"/>
      <point x="448.4375" y="662.5" type="curve"/>
      <point x="416.1458333333333" y="662.4999999999999"/>
      <point x="382.5520833333333" y="649.4791666666666"/>
      <point x="347.65625" y="623.4375" type="curve" smooth="yes"/>
      <point x="312.76041666666663" y="597.3958333333333"/>
      <point x="282.29166666666663" y="552.0833333333333"/>
      <point x="256.25" y="487.5" type="curve"/>
      <point x="256.25" y="0.0" type="line"/>
    </contour>
  </outline>
</glyph>
<glyph name="s" format="2">
  <advance width="655"/>
  <unicode hex="0073"/>
  <outline>
    <contour>
      <point x="103" y="166" type="line"/>
      <point x="135" y="141"/>
      <point x="169" y="118"/>
      <point x="207" y="103" type="curve" smooth="yes"/>
      <point x="301" y="67"/>
      <point x="476" y="63"/>
      <point x="481" y="200" type="curve" smooth="yes"/>
      <point x="484" y="275"/>
      <point x="395" y="310"/>
      <point x="338" y="332" type="curve" smooth="yes"/>
      <point x="202" y="384"/>
      <point x="33" y="455"/>
      <point x="98" y="634" type="curve" smooth="yes"/>
      <point x="170" y="831"/>
      <point x="452" y="799"/>
      <point x="584" y="692" type="curve"/>
      <point x="525" y="619" type="line"/>
      <point x="490" y="641"/>
      <point x="454" y="662"/>
      <point x="413" y="671" type="curve" smooth="yes"/>
      <point x="330" y="690"/>
      <point x="191" y="667"/>
      <point x="211" y="552" type="curve" smooth="yes"/>
      <point x="223" y="482"/>
      <point x="314" y="459"/>
      <point x="370" y="439" type="curve" smooth="yes"/>
      <point x="511" y="389"/>
      <point x="658" y="302"/>
      <point x="590" y="129" type="curve" smooth="yes"/>
      <point x="527" y="-33"/>
      <point x="308" y="-44"/>
      <point x="170" y="10" type="curve" smooth="yes"/>
      <point x="122" y="29"/>
      <point x="81" y="56"/>
      <point x="44" y="91" type="curve"/>
    </contour>
  </outline>
</glyph>
<glyph name="t" format="2">
  <advance width="528"/>
  <unicode hex="0074"/>
  <outline>
    <contour>
      <point x="38" y="655" type="line"/>
      <point x="38" y="752" type="line"/>
      <point x="156" y="759" type="line"/>
      <point x="172" y="1003" type="line"/>
      <point x="280" y="1003" type="line"/>
      <point x="280" y="759" type="line"/>
      <point x="486" y="759" type="line"/>
      <point x="486" y="655" type="line"/>
      <point x="280" y="655" type="line"/>
      <point x="280" y="516"/>
      <point x="279" y="377"/>
      <point x="280" y="238" type="curve" smooth="yes"/>
      <point x="280" y="98"/>
      <point x="368" y="62"/>
      <point x="483" y="109" type="curve"/>
      <point x="511" y="19" type="line"/>
      <point x="473" y="2"/>
      <point x="434" y="-9"/>
      <point x="393" y="-13" type="curve" smooth="yes"/>
      <point x="222" y="-27"/>
      <point x="150" y="80"/>
      <point x="150" y="239" type="curve" smooth="yes"/>
      <point x="150" y="378"/>
      <point x="150" y="516"/>
      <point x="150" y="655" type="curve"/>
    </contour>
  </outline>
</glyph>
<glyph name="u" format="2">
  <advance width="850"/>
  <unicode hex="0075"/>
  <outline>
    <contour>
      <point x="190" y="-19"/>
      <point x="119" y="84"/>
      <point x="119" y="278" type="curve"/>
      <point x="119" y="759" type="line"/>
      <point x="247" y="759" type="line"/>
      <point x="247" y="295" type="line"/>
      <point x="247" y="154"/>
      <point x="289" y="94"/>
      <point x="389" y="94" type="curve" smooth="yes"/>
      <point x="466" y="94"/>
      <point x="521" y="133"/>
      <point x="594" y="220" type="curve"/>
      <point x="594" y="759" type="line"/>
      <point x="722" y="759" type="line"/>
      <point x="722" y="0" type="line"/>
      <point x="616" y="0" type="line"/>
      <point x="605" y="119" type="line"/>
      <point x="600" y="119" type="line"/>
      <point x="531" y="35"/>
      <point x="454" y="-19"/>
      <point x="350" y="-19" type="curve" smooth="yes"/>
    </contour>
  </outline>
</glyph>
<glyph name="v" format="2">
  <advance width="730"/>
  <unicode hex="0076"/>
  <outline>
    <contour>
      <point x="292.1875" y="0.0" type="line"/>
      <point x="18.75" y="759.375" type="line"/>
      <point x="151.5625" y="759.375" type="line"/>
      <point x="295.3125" y="328.125" type="line" smooth="yes"/>
      <point x="318.22916666666663" y="255.20833333333326"/>
      <point x="342.7083333333333" y="177.6041666666666"/>
      <point x="365.625" y="104.6875" type="curve"/>
      <point x="371.875" y="104.6875" type="line"/>
      <point x="392.7083333333332" y="177.6041666666666"/>
      <point x="419.79166666666663" y="255.20833333333326"/>
      <point x="440.625" y="328.125" type="curve" smooth="yes"/>
      <point x="584.375" y="759.375" type="line"/>
      <point x="710.9375" y="759.375" type="line"/>
      <point x="442.1875" y="0.0" type="line"/>
    </contour>
  </outline>
</glyph>
<glyph name="w" format="2">
  <advance width="1123"/>
  <unicode hex="0077"/>
  <outline>
    <contour>
      <point x="248.4375" y="0.0" type="line"/>
      <point x="37.5" y="759.375" type="line"/>
      <point x="171.875" y="759.375" type="line"/>
      <point x="282.8125" y="320.3125" type="line" smooth="yes"/>
      <point x="299.47916666666663" y="251.5625"/>
      <point x="314.0624999999999" y="185.93749999999994"/>
      <point x="326.5625" y="104.6875" type="curve"/>
      <point x="332.8125" y="104.6875" type="line"/>
      <point x="349.47916666666663" y="185.93749999999991"/>
      <point x="364.5833333333332" y="251.56249999999994"/>
      <point x="381.25" y="320.3125" type="curve" smooth="yes"/>
      <point x="493.75" y="759.375" type="line"/>
      <point x="634.375" y="759.375" type="line"/>
      <point x="748.4375" y="320.3125" type="line" smooth="yes"/>
      <point x="767.1875" y="251.56249999999994"/>
      <point x="781.7708333333333" y="185.93749999999991"/>
      <point x="798.4375" y="104.6875" type="curve"/>
      <point x="804.6875" y="104.6875" type="line"/>
      <point x="821.3541666666664" y="185.9374999999999"/>
      <point x="835.4166666666664" y="251.56249999999991"/>
      <point x="850.0" y="320.3125" type="curve" smooth="yes"/>
      <point x="960.9375" y="759.375" type="line"/>
      <point x="1085.9375" y="759.375" type="line"/>
      <point x="881.25" y="0.0" type="line"/>
      <point x="714.0625" y="0.0" type="line"/>
      <point x="612.5" y="406.25" type="line" smooth="yes"/>
      <point x="595.8333333333333" y="477.08333333333314"/>
      <point x="580.7291666666666" y="541.6666666666665"/>
      <point x="564.0625" y="631.25" type="curve"/>
      <point x="557.8125" y="631.25" type="line"/>
      <point x="543.2291666666666" y="541.6666666666665"/>
      <point x="528.125" y="474.9999999999999"/>
      <point x="509.375" y="406.25" type="curve" smooth="yes"/>
      <point x="407.8125" y="0.0" type="line"/>
    </contour>
  </outline>
</glyph>
<glyph name="x" format="2">
  <advance width="697"/>
  <unicode hex="0078"/>
  <outline>
    <contour>
      <point x="270" y="397" type="line"/>
      <point x="41" y="759" type="line"/>
      <point x="180" y="759" type="line"/>
      <point x="356" y="466" type="line"/>
      <point x="362" y="466" type="line"/>
      <point x="523" y="759" type="line"/>
      <point x="658" y="759" type="line"/>
      <point x="428" y="383" type="line"/>
      <point x="675" y="0" type="line"/>
      <point x="536" y="0" type="line"/>
      <point x="342" y="312" type="line"/>
      <point x="336" y="312" type="line"/>
      <point x="156" y="0" type="line"/>
      <point x="22" y="0" type="line"/>
    </contour>
  </outline>
</glyph>
<glyph name="y" format="2">
  <advance width="730"/>
  <unicode hex="0079"/>
  <outline>
    <contour>
      <point x="80" y="-211" type="line"/>
      <point x="231" y="-253"/>
      <point x="286" y="-126"/>
      <point x="323" y="-2" type="curve"/>
      <point x="19" y="759" type="line"/>
      <point x="152" y="759" type="line"/>
      <point x="380" y="125" type="line"/>
      <point x="386" y="125" type="line"/>
      <point x="586" y="759" type="line"/>
      <point x="711" y="759" type="line"/>
      <point x="616" y="485"/>
      <point x="520" y="211"/>
      <point x="425" y="-62" type="curve" smooth="yes"/>
      <point x="365" y="-236"/>
      <point x="250" y="-371"/>
      <point x="52" y="-311" type="curve"/>
    </contour>
  </outline>
</glyph>
<glyph name="z" format="2">
  <advance width="664"/>
  <unicode hex="007A"/>
  <outline>
    <contour>
      <point x="48.4375" y="0.0" type="line"/>
      <point x="48.4375" y="68.75" type="line"/>
      <point x="448.4375" y="654.6875" type="line"/>
      <point x="92.1875" y="654.6875" type="line"/>
      <point x="92.1875" y="759.375" type="line"/>
      <point x="610.9375" y="759.375" type="line"/>
      <point x="610.9375" y="690.625" type="line"/>
      <point x="210.9375" y="104.6875" type="line"/>
      <point x="623.4375" y="104.6875" type="line"/>
      <point x="623.4375" y="0.0" type="line"/>
    </contour>
  </outline>
</glyph>
<glyph name="braceleft" format="2">
  <advance width="473"/>
  <unicode hex="007B"/>
  <outline>
    <contour>
      <point x="356.25" y="-237.5" type="line" smooth="yes"/>
      <point x="293.75" y="-237.5"/>
      <point x="247.65625" y="-222.91666666666666"/>
      <point x="217.96875" y="-193.75" type="curve" smooth="yes"/>
      <point x="188.28125" y="-164.58333333333331"/>
      <point x="173.4375" y="-109.89583333333333"/>
      <point x="173.4375" y="-29.6875" type="curve" smooth="yes"/>
      <point x="173.4375" y="85.93749999999996"/>
      <point x="187.5" y="165.62499999999986"/>
      <point x="187.5" y="271.875" type="curve" smooth="yes"/>
      <point x="187.5" y="302.0833333333333"/>
      <point x="178.38541666666666" y="329.94791666666663"/>
      <point x="160.15625" y="355.46875" type="curve" smooth="yes"/>
      <point x="141.92708333333331" y="380.9895833333333"/>
      <point x="106.25" y="393.75"/>
      <point x="53.125" y="393.75" type="curve"/>
      <point x="53.125" y="475.0" type="line"/>
      <point x="159.3749999999996" y="475.0"/>
      <point x="187.5" y="535.9374999999997"/>
      <point x="187.5" y="595.3125" type="curve" smooth="yes"/>
      <point x="187.5" y="701.5624999999995"/>
      <point x="173.4375" y="782.8124999999994"/>
      <point x="173.4375" y="898.4375" type="curve" smooth="yes"/>
      <point x="173.4375" y="979.6875"/>
      <point x="188.28125" y="1034.6354166666665"/>
      <point x="217.96875" y="1063.28125" type="curve" smooth="yes"/>
      <point x="247.65625" y="1091.9270833333333"/>
      <point x="293.75" y="1106.25"/>
      <point x="356.25" y="1106.25" type="curve" smooth="yes"/>
      <point x="426.5625" y="1106.25" type="line"/>
      <point x="426.5625" y="1032.8125" type="line"/>
      <point x="384.375" y="1032.8125" type="line" smooth="yes"/>
      <point x="301.04166666666634" y="1032.8125"/>
      <point x="278.125" y="990.6249999999997"/>
      <point x="278.125" y="890.625" type="curve" smooth="yes"/>
      <point x="278.125" y="796.8749999999999"/>
      <point x="287.5" y="714.0624999999999"/>
      <point x="287.5" y="607.8125" type="curve" smooth="yes"/>
      <point x="287.5" y="505.72916666666663"/>
      <point x="262.5" y="456.25"/>
      <point x="193.75" y="437.5" type="curve"/>
      <point x="193.75" y="431.25" type="line"/>
      <point x="262.5000000000001" y="412.5"/>
      <point x="287.5" y="360.9374999999998"/>
      <point x="287.5" y="260.9375" type="curve" smooth="yes"/>
      <point x="287.5" y="156.77083333333331"/>
      <point x="278.125" y="73.95833333333333"/>
      <point x="278.125" y="-21.875" type="curve" smooth="yes"/>
      <point x="278.125" y="-121.87499999999991"/>
      <point x="301.0416666666666" y="-164.0625"/>
      <point x="384.375" y="-164.0625" type="curve" smooth="yes"/>
      <point x="426.5625" y="-164.0625" type="line"/>
      <point x="426.5625" y="-237.5" type="line"/>
    </contour>
  </outline>
</glyph>
<glyph name="bar" format="2">
  <advance width="377"/>
  <unicode hex="007C"/>
  <outline>
    <contour>
      <point x="144" y="1172" type="line"/>
      <point x="234" y="1172" type="line"/>
      <point x="234" y="-391" type="line"/>
      <point x="144" y="-391" type="line"/>
    </contour>
  </outline>
</glyph>
<glyph name="braceright" format="2">
  <advance width="473"/>
  <unicode hex="007D"/>
  <outline>
    <contour>
      <point x="48" y="-164" type="line"/>
      <point x="82" y="-164"/>
      <point x="123" y="-169"/>
      <point x="154" y="-149" type="curve" smooth="yes"/>
      <point x="201" y="-119"/>
      <point x="196" y="-46"/>
      <point x="195" y="2" type="curve" smooth="yes"/>
      <point x="194" y="98"/>
      <point x="162" y="313"/>
      <point x="217" y="390" type="curve" smooth="yes"/>
      <point x="233" y="412"/>
      <point x="255" y="421"/>
      <point x="280" y="431" type="curve"/>
      <point x="280" y="438" type="line"/>
      <point x="255" y="447"/>
      <point x="233" y="456"/>
      <point x="217" y="479" type="curve" smooth="yes"/>
      <point x="162" y="554"/>
      <point x="194" y="771"/>
      <point x="195" y="867" type="curve" smooth="yes"/>
      <point x="196" y="915"/>
      <point x="201" y="988"/>
      <point x="154" y="1018" type="curve" smooth="yes"/>
      <point x="123" y="1037"/>
      <point x="82" y="1033"/>
      <point x="48" y="1033" type="curve"/>
      <point x="48" y="1106" type="line"/>
      <point x="117" y="1106"/>
      <point x="213" y="1116"/>
      <point x="263" y="1056" type="curve" smooth="yes"/>
      <point x="333" y="971"/>
      <point x="294" y="772"/>
      <point x="288" y="671" type="curve" smooth="yes"/>
      <point x="282" y="558"/>
      <point x="285" y="482"/>
      <point x="420" y="475" type="curve"/>
      <point x="420" y="394" type="line"/>
      <point x="253" y="387"/>
      <point x="284" y="252"/>
      <point x="293" y="125" type="curve" smooth="yes"/>
      <point x="302" y="3"/>
      <point x="337" y="-202"/>
      <point x="174" y="-233" type="curve" smooth="yes"/>
      <point x="133" y="-240"/>
      <point x="90" y="-238"/>
      <point x="48" y="-238" type="curve"/>
    </contour>
  </outline>
</glyph>
<glyph name="asciitilde" format="2">
  <advance width="777"/>
  <unicode hex="007E"/>
  <outline>
    <contour>
      <point x="56" y="489" type="line"/>
      <point x="108" y="572"/>
      <point x="189" y="652"/>
      <point x="295" y="624" type="curve" smooth="yes"/>
      <point x="399" y="598"/>
      <point x="504" y="420"/>
      <point x="612" y="539" type="curve" smooth="yes"/>
      <point x="626" y="556"/>
      <point x="638" y="575"/>
      <point x="648" y="594" type="curve"/>
      <point x="720" y="541" type="line"/>
      <point x="666" y="453"/>
      <point x="579" y="374"/>
      <point x="469" y="411" type="curve" smooth="yes"/>
      <point x="371" y="444"/>
      <point x="270" y="607"/>
      <point x="165" y="493" type="curve" smooth="yes"/>
      <point x="150" y="476"/>
      <point x="139" y="457"/>
      <point x="128" y="438" type="curve"/>
    </contour>
  </outline>
</glyph>
<glyph name="cent" format="2">
  <advance width="777"/>
  <unicode hex="00A2"/>
  <outline>
    <contour>
      <point x="464.0625" y="107.8125" type="curve" smooth="yes"/>
      <point x="392.1875" y="107.8125"/>
      <point x="328.6458333333333" y="122.65625"/>
      <point x="273.4375" y="152.34375" type="curve" smooth="yes"/>
      <point x="163.02083333333334" y="211.71875"/>
      <point x="95.3125" y="323.95833333333314"/>
      <point x="95.3125" y="484.375" type="curve" smooth="yes"/>
      <point x="95.3125" y="644.7916666666666"/>
      <point x="169.79166666666657" y="759.1145833333333"/>
      <point x="284.375" y="816.40625" type="curve" smooth="yes"/>
      <point x="341.66666666666663" y="845.0520833333333"/>
      <point x="404.16666666666663" y="859.375"/>
      <point x="471.875" y="859.375" type="curve" smooth="yes"/>
      <point x="573.9583333333333" y="859.375"/>
      <point x="643.2291666666666" y="818.75"/>
      <point x="695.3125" y="768.75" type="curve"/>
      <point x="632.8125" y="687.5" type="line"/>
      <point x="589.0625" y="729.1666666666664"/>
      <point x="538.5416666666665" y="753.125"/>
      <point x="478.125" y="753.125" type="curve" smooth="yes"/>
      <point x="324.9999999999995" y="753.125"/>
      <point x="223.4375" y="646.8749999999994"/>
      <point x="223.4375" y="484.375" type="curve" smooth="yes"/>
      <point x="223.4375" y="403.125"/>
      <point x="246.09375" y="338.0208333333333"/>
      <point x="291.40625" y="289.0625" type="curve" smooth="yes"/>
      <point x="336.71874999999994" y="240.10416666666666"/>
      <point x="397.91666666666663" y="215.625"/>
      <point x="475.0" y="215.625" type="curve" smooth="yes"/>
      <point x="547.9166666666666" y="215.625"/>
      <point x="607.2916666666666" y="249.4791666666666"/>
      <point x="653.125" y="289.0625" type="curve"/>
      <point x="709.375" y="207.8125" type="line"/>
      <point x="642.7083333333333" y="145.31249999999994"/>
      <point x="555.7291666666666" y="107.8125"/>
    </contour>
    <contour>
      <point x="409.375" y="-51.5625" type="line"/>
      <point x="409.375" y="1020.3125" type="line"/>
      <point x="490.625" y="1020.3125" type="line"/>
      <point x="490.625" y="-51.5625" type="line"/>
    </contour>
  </outline>
</glyph>
<glyph name="sterling" format="2">
  <advance width="777"/>
  <unicode hex="00A3"/>
  <outline>
    <contour>
      <point x="84" y="78" type="line"/>
      <point x="168" y="129"/>
      <point x="228" y="204"/>
      <point x="245" y="302" type="curve" smooth="yes"/>
      <point x="281" y="508"/>
      <point x="84" y="703"/>
      <point x="223" y="902" type="curve" smooth="yes"/>
      <point x="339" y="1067"/>
      <point x="591" y="1045"/>
      <point x="706" y="894" type="curve"/>
      <point x="636" y="828" type="line"/>
      <point x="619" y="848"/>
      <point x="603" y="867"/>
      <point x="580" y="881" type="curve" smooth="yes"/>
      <point x="478" y="944"/>
      <point x="332" y="898"/>
      <point x="305" y="775" type="curve" smooth="yes"/>
      <point x="265" y="591"/>
      <point x="429" y="429"/>
      <point x="341" y="221" type="curve" smooth="yes"/>
      <point x="324" y="181"/>
      <point x="298" y="149"/>
      <point x="269" y="117" type="curve"/>
      <point x="269" y="111" type="line"/>
      <point x="708" y="111" type="line"/>
      <point x="708" y="0" type="line"/>
      <point x="84" y="0" type="line"/>
    </contour>
    <contour>
      <point x="83" y="527" type="line"/>
      <point x="320" y="541"/>
      <point x="153" y="533"/>
      <point x="586" y="533" type="curve"/>
      <point x="586" y="445" type="line"/>
      <point x="83" y="445" type="line"/>
    </contour>
  </outline>
</glyph>
<glyph name="yen" format="2">
  <advance width="912"/>
  <unicode hex="00A5"/>
  <outline>
    <contour>
      <point x="68" y="482.5" type="line"/>
      <point x="841" y="482.5" type="line"/>
      <point x="841" y="542.5" type="line"/>
      <point x="68" y="542.5" type="line"/>
    </contour>
    <contour>
      <point x="68" y="342.5" type="line"/>
      <point x="841" y="342.5" type="line"/>
      <point x="841" y="402.5" type="line"/>
      <point x="68" y="402.5" type="line"/>
    </contour>
    <component base="Y"/>
  </outline>
</glyph>
<glyph name="copyright" format="2">
  <advance width="1162"/>
  <unicode hex="00A9"/>
  <outline>
    <contour>
      <point x="427" y="-12"/>
      <point x="280" y="48"/>
      <point x="183" y="173" type="curve" smooth="yes"/>
      <point x="-7" y="418"/>
      <point x="60" y="824"/>
      <point x="344" y="966" type="curve" smooth="yes"/>
      <point x="419" y="1003"/>
      <point x="499" y="1018"/>
      <point x="583" y="1020" type="curve" smooth="yes"/>
      <point x="666" y="1018"/>
      <point x="745" y="1002"/>
      <point x="819" y="964" type="curve" smooth="yes"/>
      <point x="1101" y="821"/>
      <point x="1170" y="418"/>
      <point x="980" y="173" type="curve" smooth="yes"/>
      <point x="883" y="48"/>
      <point x="736" y="-12"/>
      <point x="581" y="-17" type="curve" smooth="yes"/>
    </contour>
    <contour>
      <point x="819" y="48"/>
      <point x="1012" y="234"/>
      <point x="1012" y="505" type="curve" smooth="yes"/>
      <point x="1012" y="780"/>
      <point x="819" y="956"/>
      <point x="581" y="956" type="curve" smooth="yes"/>
      <point x="344" y="956"/>
      <point x="150" y="780"/>
      <point x="150" y="505" type="curve" smooth="yes"/>
      <point x="150" y="234"/>
      <point x="344" y="48"/>
      <point x="581" y="48" type="curve" smooth="yes"/>
    </contour>
    <contour>
      <point x="739" y="656" type="line"/>
      <point x="592" y="809"/>
      <point x="404" y="673"/>
      <point x="413" y="484" type="curve" smooth="yes"/>
      <point x="422" y="285"/>
      <point x="613" y="228"/>
      <point x="753" y="355" type="curve"/>
      <point x="803" y="292" type="line"/>
      <point x="613" y="109"/>
      <point x="319" y="217"/>
      <point x="310" y="485" type="curve" smooth="yes"/>
      <point x="300" y="758"/>
      <point x="599" y="914"/>
      <point x="795" y="714" type="curve"/>
    </contour>
  </outline>
</glyph>
<glyph name="guillemotleft" format="2">
  <advance width="670"/>
  <unicode hex="00AB"/>
  <outline>
    <contour>
      <point x="339" y="638" type="line"/>
      <point x="155" y="394" type="line"/>
      <point x="339" y="147" type="line"/>
      <point x="283" y="103" type="line"/>
      <point x="-16" y="442"/>
      <point x="-16" y="345"/>
      <point x="283" y="684" type="curve"/>
    </contour>
    <contour>
      <point x="586" y="638" type="line"/>
      <point x="402" y="394" type="line"/>
      <point x="586" y="147" type="line"/>
      <point x="530" y="103" type="line"/>
      <point x="231" y="442"/>
      <point x="231" y="345"/>
      <point x="530" y="684" type="curve"/>
    </contour>
  </outline>
</glyph>
<glyph name="registered" format="2">
  <advance width="661"/>
  <unicode hex="00AE"/>
  <outline>
    <contour>
      <point x="723" y="1097"/>
      <point x="724" y="515"/>
      <point x="330" y="498" type="curve" smooth="yes"/>
      <point x="-66" y="516"/>
      <point x="-56" y="1098"/>
      <point x="330" y="1114" type="curve" smooth="yes"/>
    </contour>
    <contour>
      <point x="16" y="1037"/>
      <point x="26" y="569"/>
      <point x="330" y="556" type="curve" smooth="yes"/>
      <point x="636" y="569"/>
      <point x="645" y="1037"/>
      <point x="330" y="1058" type="curve" smooth="yes"/>
    </contour>
    <contour>
      <point x="283" y="971"/>
      <point x="391" y="990"/>
      <point x="440" y="931" type="curve" smooth="yes"/>
      <point x="482" y="881"/>
      <point x="447" y="812"/>
      <point x="400" y="781" type="curve"/>
      <point x="472" y="652" type="line"/>
      <point x="400" y="652" type="line"/>
      <point x="345" y="761" type="line"/>
      <point x="281" y="761" type="line"/>
      <point x="281" y="652" type="line"/>
      <point x="217" y="652" type="line"/>
      <point x="217" y="969" type="line"/>
    </contour>
    <contour>
      <point x="281" y="811" type="line"/>
      <point x="322" y="811"/>
      <point x="388" y="807"/>
      <point x="389" y="864" type="curve" smooth="yes"/>
      <point x="390" y="922"/>
      <point x="321" y="916"/>
      <point x="281" y="916" type="curve"/>
    </contour>
  </outline>
</glyph>
<glyph name="degree" format="2">
  <advance width="517"/>
  <unicode hex="00B0"/>
  <outline>
    <contour>
      <point x="-5" y="691"/>
      <point x="-2" y="1049"/>
      <point x="259" y="1070" type="curve" smooth="yes"/>
      <point x="522" y="1049"/>
      <point x="516" y="685"/>
      <point x="259" y="670" type="curve" smooth="yes"/>
    </contour>
    <contour>
      <point x="419" y="763"/>
      <point x="418" y="978"/>
      <point x="259" y="998" type="curve" smooth="yes"/>
      <point x="100" y="978"/>
      <point x="100" y="763"/>
      <point x="259" y="742" type="curve" smooth="yes"/>
    </contour>
  </outline>
</glyph>
<glyph name="guillemotright" format="2">
  <advance width="670"/>
  <unicode hex="00BB"/>
  <outline>
    <contour>
      <point x="84" y="147" type="line"/>
      <point x="269" y="394" type="line"/>
      <point x="84" y="638" type="line"/>
      <point x="139" y="684" type="line"/>
      <point x="353" y="442" type="line"/>
      <point x="353" y="345" type="line"/>
      <point x="139" y="103" type="line"/>
    </contour>
    <contour>
      <point x="331" y="147" type="line"/>
      <point x="516" y="394" type="line"/>
      <point x="331" y="638" type="line"/>
      <point x="386" y="684" type="line"/>
      <point x="600" y="442" type="line"/>
      <point x="600" y="345" type="line"/>
      <point x="386" y="103" type="line"/>
    </contour>
  </outline>
</glyph>
<glyph name="multiply" format="2">
  <advance width="777"/>
  <unicode hex="00D7"/>
  <outline>
    <contour>
      <point x="146.875" y="196.875" type="line"/>
      <point x="78.125" y="267.1875" type="line"/>
      <point x="320.3125" y="515.625" type="line"/>
      <point x="78.125" y="762.5" type="line"/>
      <point x="146.875" y="832.8125" type="line"/>
      <point x="389.0625" y="584.375" type="line"/>
      <point x="629.6875" y="832.8125" type="line"/>
      <point x="698.4375" y="762.5" type="line"/>
      <point x="456.25" y="515.625" type="line"/>
      <point x="698.4375" y="267.1875" type="line"/>
      <point x="629.6875" y="196.875" type="line"/>
      <point x="389.0625" y="446.875" type="line"/>
    </contour>
  </outline>
</glyph>
<glyph name="divide" format="2">
  <advance width="777"/>
  <unicode hex="00F7"/>
  <outline>
    <contour>
      <point x="53" y="564" type="line"/>
      <point x="723" y="564" type="line"/>
      <point x="723" y="467" type="line"/>
      <point x="53" y="467" type="line"/>
    </contour>
    <contour>
      <point x="274" y="164"/>
      <point x="274" y="303"/>
      <point x="389" y="317" type="curve" smooth="yes"/>
      <point x="502" y="303"/>
      <point x="502" y="164"/>
      <point x="389" y="150" type="curve" smooth="yes"/>
    </contour>
    <contour>
      <point x="274" y="726"/>
      <point x="274" y="866"/>
      <point x="389" y="880" type="curve" smooth="yes"/>
      <point x="502" y="866"/>
      <point x="502" y="726"/>
      <point x="389" y="712" type="curve" smooth="yes"/>
    </contour>
  </outline>
</glyph>
<glyph name="tilde" format="2">
  <advance width="847"/>
  <unicode hex="02DC"/>
  <outline>
    <contour>
      <point x="535.9375" y="901.5625" type="curve" smooth="yes"/>
      <point x="481.7708333333333" y="901.5625"/>
      <point x="442.7083333333333" y="931.7708333333333"/>
      <point x="409.375" y="967.1875" type="curve" smooth="yes"/>
      <point x="376.0416666666667" y="1002.6041666666664"/>
      <point x="347.9166666666667" y="1032.8125"/>
      <point x="312.5" y="1032.8125" type="curve" smooth="yes"/>
      <point x="266.6666666666664" y="1032.8125"/>
      <point x="245.3125" y="984.3749999999997"/>
      <point x="239.0625" y="909.375" type="curve"/>
      <point x="153.125" y="914.0625" type="line"/>
      <point x="155.20833333333331" y="997.395833333333"/>
      <point x="177.86458333333317" y="1062.7604166666663"/>
      <point x="222.65625" y="1099.21875" type="curve" smooth="yes"/>
      <point x="245.05208333333331" y="1117.4479166666665"/>
      <point x="274.47916666666663" y="1126.5625"/>
      <point x="310.9375" y="1126.5625" type="curve" smooth="yes"/>
      <point x="367.1875" y="1126.5625"/>
      <point x="404.16666666666663" y="1096.3541666666665"/>
      <point x="437.5" y="1060.9375" type="curve" smooth="yes"/>
      <point x="470.8333333333332" y="1025.5208333333333"/>
      <point x="498.4375000000001" y="995.3125"/>
      <point x="535.9375" y="995.3125" type="curve" smooth="yes"/>
      <point x="581.770833333333" y="995.3125"/>
      <point x="603.6458333333333" y="1045.8333333333328"/>
      <point x="607.8125" y="1118.75" type="curve"/>
      <point x="693.75" y="1112.5" type="line"/>
      <point x="692.7083333333333" y="1072.9166666666665"/>
      <point x="686.4583333333333" y="1037.2395833333333"/>
      <point x="675.0" y="1005.46875" type="curve" smooth="yes"/>
      <point x="652.0833333333331" y="941.927083333333"/>
      <point x="608.8541666666664" y="901.5625"/>
    </contour>
  </outline>
</glyph>
<glyph name="hungarumlaut" format="2">
  <advance width="847"/>
  <unicode hex="02DD"/>
  <outline>
    <contour>
      <point x="383" y="1148" type="line"/>
      <point x="489" y="1148" type="line"/>
      <point x="497" y="1134" type="line"/>
      <point x="325" y="891" type="line"/>
      <point x="248" y="891" type="line"/>
    </contour>
    <contour>
      <point x="634" y="1148" type="line"/>
      <point x="741" y="1148" type="line"/>
      <point x="748" y="1134" type="line"/>
      <point x="578" y="891" type="line"/>
      <point x="500" y="891" type="line"/>
    </contour>
  </outline>
</glyph>
<glyph name="dotbelowcomb" format="2">
  <unicode hex="0323"/>
  <outline>
    <contour>
      <point x="0.0" y="-321.875" type="curve"/>
      <point x="-50.00000000000002" y="-321.8749999999999"/>
      <point x="-85.9375" y="-287.5"/>
      <point x="-85.9375" y="-237.5" type="curve" smooth="yes"/>
      <point x="-85.9375" y="-187.5"/>
      <point x="-50.0" y="-153.125"/>
      <point x="0.0" y="-153.125" type="curve" smooth="yes"/>
      <point x="49.999999999999986" y="-153.125"/>
      <point x="85.9375" y="-187.5"/>
      <point x="85.9375" y="-237.5" type="curve" smooth="yes"/>
      <point x="85.9375" y="-287.49999999999994"/>
      <point x="50.000000000000036" y="-321.8749999999999"/>
    </contour>
  </outline>
</glyph>
<glyph name="uni0326" format="2">
  <unicode hex="0326"/>
  <outline>
    <contour>
      <point x="-135.9375" y="-353.125" type="curve"/>
      <point x="-148.4375" y="-290.625" type="line"/>
      <point x="-82.8125" y="-285.41666666666663"/>
      <point x="-38.02083333333333" y="-276.82291666666663"/>
      <point x="-14.0625" y="-264.84375" type="curve" smooth="yes"/>
      <point x="9.895833333333332" y="-252.86458333333331"/>
      <point x="21.874999999999996" y="-236.45833333333331"/>
      <point x="21.875" y="-215.625" type="curve" smooth="yes"/>
      <point x="21.874999999999993" y="-176.04166666666666"/>
      <point x="-16.145833333333336" y="-156.25"/>
      <point x="-89.0625" y="-150.0" type="curve"/>
      <point x="-60.9375" y="-90.625" type="line"/>
      <point x="76.5625" y="-105.2083333333333"/>
      <point x="121.875" y="-140.10416666666666"/>
      <point x="121.875" y="-210.9375" type="curve" smooth="yes"/>
      <point x="121.875" y="-300.5208333333333"/>
      <point x="30.729166666666675" y="-344.79166666666663"/>
    </contour>
  </outline>
</glyph>
<glyph name="uni060C" format="2">
  <advance width="898"/>
  <unicode hex="060C"/>
  <outline>
    <contour>
      <point x="414" y="199"/>
      <point x="455" y="223"/>
      <point x="458" y="217" type="curve"/>
      <point x="467" y="201"/>
      <point x="444" y="162"/>
      <point x="439" y="152" type="curve"/>
      <point x="404" y="76"/>
      <point x="364.8" y="11.78"/>
      <point x="277" y="1" type="curve" smooth="yes"/>
      <point x="165.62" y="-12.67"/>
      <point x="121" y="74"/>
      <point x="134" y="178" type="curve" smooth="yes"/>
      <point x="153" y="328"/>
      <point x="211" y="461"/>
      <point x="308" y="577" type="curve"/>
      <point x="315" y="585"/>
      <point x="428.74" y="713.51"/>
      <point x="442" y="712" type="curve" smooth="yes"/>
      <point x="445.97" y="711.55"/>
      <point x="431" y="686"/>
      <point x="415" y="659" type="curve"/>
      <point x="394" y="626"/>
      <point x="375" y="592"/>
      <point x="355" y="558" type="curve"/>
      <point x="299" y="458"/>
      <point x="235.46" y="353.67"/>
      <point x="229" y="238" type="curve" smooth="yes"/>
      <point x="223.2" y="134.16"/>
      <point x="338" y="167"/>
      <point x="400" y="193" type="curve" smooth="yes"/>
    </contour>
  </outline>
</glyph>
<glyph name="uni060E" format="2">
  <advance width="1375"/>
  <unicode hex="060E"/>
  <outline>
    <contour>
      <point x="1075" y="276"/>
      <point x="1163.44" y="282.84"/>
      <point x="1250" y="304" type="curve" smooth="yes"/>
      <point x="1253.07" y="304.75"/>
      <point x="1297.59" y="312.92"/>
      <point x="1296" y="303" type="curve" smooth="yes"/>
      <point x="1294.54" y="293.9"/>
      <point x="1279" y="285"/>
      <point x="1273" y="281" type="curve" smooth="yes"/>
      <point x="1196" y="228"/>
      <point x="1150" y="195"/>
      <point x="1062" y="175" type="curve" smooth="yes"/>
      <point x="822" y="120"/>
      <point x="432.47" y="81.82"/>
      <point x="199" y="168" type="curve" smooth="yes"/>
      <point x="151.44" y="185.55"/>
      <point x="108" y="217"/>
      <point x="88" y="267" type="curve" smooth="yes"/>
      <point x="53" y="359"/>
      <point x="130" y="527"/>
      <point x="227" y="556" type="curve" smooth="yes"/>
      <point x="250" y="563"/>
      <point x="276" y="560"/>
      <point x="299" y="553" type="curve" smooth="yes"/>
      <point x="408" y="518"/>
      <point x="388" y="352"/>
      <point x="377" y="261" type="curve"/>
      <point x="579" y="234"/>
      <point x="785" y="242"/>
      <point x="987" y="265" type="curve" smooth="yes"/>
    </contour>
    <contour>
      <point x="335" y="323"/>
      <point x="332" y="394"/>
      <point x="286" y="432" type="curve"/>
      <point x="223" y="482"/>
      <point x="146.42" y="450.15"/>
      <point x="150" y="374" type="curve" smooth="yes"/>
      <point x="154.1" y="286.8"/>
      <point x="265" y="283"/>
      <point x="336" y="269" type="curve"/>
    </contour>
  </outline>
</glyph>
<glyph name="uni060F" format="2">
  <advance width="1658"/>
  <unicode hex="060F"/>
  <outline>
    <contour>
      <point x="337.0" y="-363.0" type="curve"/>
      <point x="337" y="-344" type="line" smooth="yes"/>
      <point x="337.0" y="-87.33333333333331"/>
      <point x="428.3333333333333" y="136.33333333333334"/>
      <point x="611.0" y="327.0" type="curve"/>
      <point x="503.66666666666663" y="370.3333333333333"/>
      <point x="433.0" y="415.3333333333333"/>
      <point x="399.0" y="462.0" type="curve" smooth="yes"/>
      <point x="387.0" y="479.3333333333333"/>
      <point x="381.0" y="498.0"/>
      <point x="381.0" y="518.0" type="curve" smooth="yes"/>
      <point x="381" y="527" type="line"/>
      <point x="385.66666666666663" y="590.3333333333333"/>
      <point x="402.66666666666663" y="648.6666666666666"/>
      <point x="432.0" y="702.0" type="curve" smooth="yes"/>
      <point x="497.3333333333333" y="822.0"/>
      <point x="570.3333333333333" y="901.3333333333333"/>
      <point x="651.0" y="940.0" type="curve" smooth="yes"/>
      <point x="696.3333333333333" y="960.7777777777775"/>
      <point x="741.3939393939393" y="951.9393939393939"/>
      <point x="796.0" y="920.0" type="curve" smooth="yes"/>
      <point x="852.0" y="887.3333333333333"/>
      <point x="891.6666666666666" y="854.0"/>
      <point x="915.0" y="820.0" type="curve" smooth="yes"/>
      <point x="930.3333333333333" y="799.3333333333333"/>
      <point x="921.3333333333333" y="792.3333333333333"/>
      <point x="888.0" y="799.0" type="curve" smooth="yes"/>
      <point x="856.6666666666666" y="805.6666666666665"/>
      <point x="824.6666666666666" y="808.9999999999999"/>
      <point x="792.0" y="809.0" type="curve"/>
      <point x="658.0" y="808.9999999999999"/>
      <point x="544.6666666666666" y="746.6666666666665"/>
      <point x="452.0" y="622.0" type="curve" smooth="yes"/>
      <point x="446.0" y="614.0"/>
      <point x="447.66666666666663" y="605.3333333333333"/>
      <point x="457.0" y="596.0" type="curve" smooth="yes"/>
      <point x="533.6666666666666" y="519.3333333333333"/>
      <point x="626.3333333333333" y="480.99999999999994"/>
      <point x="735.0" y="481.0" type="curve" smooth="yes"/>
      <point x="756.3333333333333" y="480.99999999999994"/>
      <point x="776.0" y="482.33333333333326"/>
      <point x="794.0" y="485.0" type="curve" smooth="yes"/>
      <point x="815.9999999999999" y="488.33333333333326"/>
      <point x="847.9999999999999" y="502.33333333333326"/>
      <point x="890.0" y="527.0" type="curve" smooth="yes"/>
      <point x="1051.3333333333333" y="624.3333333333333"/>
      <point x="1141.333333333333" y="678.0"/>
      <point x="1160.0" y="690.0" type="curve" smooth="yes"/>
      <point x="1174.2857142857138" y="699.9999999999998"/>
      <point x="1184.7499999999998" y="700.0000000000002"/>
      <point x="1186.0" y="685.0" type="curve"/>
      <point x="1186.0" y="677.0"/>
      <point x="1183.6666666666665" y="667.0"/>
      <point x="1179.0" y="655.0" type="curve" smooth="yes"/>
      <point x="1149.0" y="569.6666666666666"/>
      <point x="1125.0" y="522.3333333333333"/>
      <point x="1107.0" y="513.0" type="curve" smooth="yes"/>
      <point x="977.6666666666666" y="451.0"/>
      <point x="842.3333333333333" y="367.66666666666663"/>
      <point x="701.0" y="263.0" type="curve" smooth="yes"/>
      <point x="514.3333333333333" y="125.0"/>
      <point x="412.33333333333326" y="-65.0"/>
      <point x="395.0" y="-307.0" type="curve"/>
      <point x="553.6666666666666" y="-159.66666666666666"/>
      <point x="689.0" y="-58.666666666666664"/>
      <point x="801.0" y="-4.0" type="curve" smooth="yes"/>
      <point x="1028.630522088353" y="105.63855421686735"/>
      <point x="1213.170212765957" y="128.85106382978736"/>
      <point x="1357.0" y="68.0" type="curve" smooth="yes"/>
      <point x="1455.0" y="26.0"/>
      <point x="1519.3333333333333" y="-41.33333333333333"/>
      <point x="1550.0" y="-134.0" type="curve" smooth="yes"/>
      <point x="1593.3548387096773" y="-273.69892473118273"/>
      <point x="1558.3827160493827" y="-431.01234567901236"/>
      <point x="1445.0" y="-608.0" type="curve" smooth="yes"/>
      <point x="1288.3333333333333" y="-851.9999999999999"/>
      <point x="1097.6666666666665" y="-974.6666666666665"/>
      <point x="873.0" y="-976.0" type="curve"/>
      <point x="871" y="-976" type="line" smooth="yes"/>
      <point x="556.3333333333333" y="-976.0"/>
      <point x="380.3333333333333" y="-807.3333333333333"/>
      <point x="343.0" y="-470.0" type="curve"/>
      <point x="273.0" y="-539.3333333333333"/>
      <point x="199.0" y="-620.0"/>
      <point x="121.0" y="-712.0" type="curve" smooth="yes"/>
      <point x="93.0" y="-745.3333333333333"/>
      <point x="83.66666666666666" y="-745.6666666666666"/>
      <point x="93.0" y="-713.0" type="curve" smooth="yes"/>
      <point x="128" y="-588" type="line" smooth="yes"/>
      <point x="134.0" y="-568.6666666666666"/>
      <point x="203.66666666666666" y="-493.66666666666663"/>
    </contour>
    <contour>
      <point x="406.0" y="-411.0" type="curve"/>
      <point x="473.99999999999994" y="-666.3333333333333"/>
      <point x="652.0" y="-793.9999999999999"/>
      <point x="940.0" y="-794.0" type="curve" smooth="yes"/>
      <point x="1208.0" y="-793.3333333333333"/>
      <point x="1380.3333333333333" y="-678.6666666666666"/>
      <point x="1457.0" y="-450.0" type="curve" smooth="yes"/>
      <point x="1468.3333333333333" y="-414.0"/>
      <point x="1474.0" y="-380.3333333333333"/>
      <point x="1474.0" y="-349.0" type="curve" smooth="yes"/>
      <point x="1474.0" y="-267.66666666666663"/>
      <point x="1437.3333333333333" y="-192.99999999999997"/>
      <point x="1364.0" y="-125.0" type="curve" smooth="yes"/>
      <point x="1258.7462686567162" y="-30.01492537313422"/>
      <point x="1089.0322580645159" y="-27.387096774193637"/>
      <point x="856.0" y="-112.0" type="curve" smooth="yes"/>
      <point x="731.3333333333333" y="-156.66666666666666"/>
      <point x="581.3333333333333" y="-256.3333333333333"/>
    </contour>
  </outline>
</glyph>
<glyph name="uni0610" format="2">
  <advance width="1246"/>
  <unicode hex="0610"/>
  <outline>
    <contour>
      <point x="268.0" y="1081.0" type="curve"/>
      <point x="182.52631578947364" y="1056.578947368421"/>
      <point x="109.5213675213675" y="1069.4358974358975"/>
      <point x="54.0" y="1120.0" type="curve"/>
      <point x="48.0" y="1124.6666666666665"/>
      <point x="42.0" y="1125.0"/>
      <point x="36.0" y="1121.0" type="curve" smooth="yes"/>
      <point x="20.666666666666664" y="1111.0"/>
      <point x="3.0" y="1099.3333333333333"/>
      <point x="-17.0" y="1086.0" type="curve" smooth="yes"/>
      <point x="-59.666666666666664" y="1056.6666666666665"/>
      <point x="-90.33333333333333" y="1030.0"/>
      <point x="-109.0" y="1006.0" type="curve" smooth="yes"/>
      <point x="-135.66666666666666" y="972.0"/>
      <point x="-158.33333333333331" y="929.6666666666666"/>
      <point x="-177.0" y="879.0" type="curve" smooth="yes"/>
      <point x="-194.8814814814815" y="833.7703703703702"/>
      <point x="-200.56410256410246" y="788.7948717948714"/>
      <point x="-186.0" y="736.0" type="curve" smooth="yes"/>
      <point x="-182.0" y="720.0"/>
      <point x="-174.0" y="703.0"/>
      <point x="-162.0" y="685.0" type="curve"/>
      <point x="-139.95252160944455" y="644.0546829889684"/>
      <point x="-109.80908621821794" y="629.5606034545652"/>
      <point x="-89.0" y="618.0" type="curve"/>
      <point x="-68.00515611614924" y="608.6689582738438"/>
      <point x="-37.90162733775501" y="597.2242603740407"/>
      <point x="1.0" y="591.0" type="curve" smooth="yes"/>
      <point x="18.999999999999996" y="587.6666666666666"/>
      <point x="31.33333333333333" y="586.0"/>
      <point x="38.0" y="586.0" type="curve" smooth="yes"/>
      <point x="40.66666666666666" y="586.0"/>
      <point x="49.66666666666667" y="584.3333333333333"/>
      <point x="67.0" y="583.0" type="curve" smooth="yes"/>
      <point x="123.79012345678997" y="580.5308641975306"/>
      <point x="188.63768115942005" y="577.2028985507245"/>
      <point x="264.0" y="583.0" type="curve"/>
      <point x="269.3333333333332" y="583.0"/>
      <point x="276.6666666666666" y="583.0"/>
      <point x="286.0" y="583.0" type="curve"/>
      <point x="307.33333333333326" y="585.6666666666665"/>
      <point x="306.5" y="584.8333333333333"/>
      <point x="312.5" y="585.5" type="curve" smooth="yes"/>
      <point x="322.6999999999997" y="586.6333333333331"/>
      <point x="334.41666666666646" y="585.0833333333331"/>
      <point x="341.5" y="586.5" type="curve" smooth="yes"/>
      <point x="345.6666666666665" y="587.3333333333331"/>
      <point x="354.5555555555554" y="589.0"/>
      <point x="359.0" y="589.0" type="curve" smooth="yes"/>
      <point x="361.0265003265467" y="589.0"/>
      <point x="369.0509743958885" y="591.0"/>
      <point x="371.0" y="591.0" type="curve" smooth="yes"/>
      <point x="372.85923625466637" y="591.0"/>
      <point x="377.92131067416665" y="590.9213106741664"/>
      <point x="380.0" y="593.0" type="curve"/>
      <point x="414.22222222222206" y="607.6666666666666"/>
      <point x="428.59999999999985" y="607.8000000000001"/>
      <point x="433.0" y="599.0" type="curve"/>
      <point x="432.9999999999999" y="597.6666666666665"/>
      <point x="432.9999999999999" y="598.0"/>
      <point x="433.0" y="598.0" type="curve"/>
      <point x="439.0" y="588.9999999999999"/>
      <point x="432.14285714285705" y="574.5714285714284"/>
      <point x="415.0" y="560.0" type="curve"/>
      <point x="415" y="559" type="line"/>
      <point x="389.3498839811178" y="534.6998900873748"/>
      <point x="353.853367938018" y="511.9754818927279"/>
      <point x="288.0" y="483.0" type="curve" smooth="yes"/>
      <point x="256.0" y="469.0"/>
      <point x="222.66666666666666" y="458.3333333333333"/>
      <point x="188.0" y="451.0" type="curve" smooth="yes"/>
      <point x="155.99999999999997" y="445.66666666666663"/>
      <point x="118.99999999999997" y="441.9999999999999"/>
      <point x="75.0" y="442.0" type="curve" smooth="yes"/>
      <point x="65" y="442" type="line" smooth="yes"/>
      <point x="19.666666666666664" y="442.66666666666663"/>
      <point x="-25.666666666666664" y="450.3333333333333"/>
      <point x="-71.0" y="465.0" type="curve" smooth="yes"/>
      <point x="-89.66666666666666" y="471.0"/>
      <point x="-113.0" y="482.66666666666663"/>
      <point x="-141.0" y="500.0" type="curve" smooth="yes"/>
      <point x="-188.28028226085496" y="528.368169356513"/>
      <point x="-244.35873540068243" y="582.6062117636919"/>
      <point x="-272.0" y="655.0" type="curve" smooth="yes"/>
      <point x="-305.5238095238095" y="737.4126984126983"/>
      <point x="-304.2608695652174" y="824.246376811594"/>
      <point x="-266.0" y="925.0" type="curve" smooth="yes"/>
      <point x="-239.99999999999997" y="989.6666666666665"/>
      <point x="-219.99999999999997" y="1030.3333333333333"/>
      <point x="-206.0" y="1047.0" type="curve" smooth="yes"/>
      <point x="-166.66666666666666" y="1093.0"/>
      <point x="-137.66666666666666" y="1124.6666666666665"/>
      <point x="-119.0" y="1142.0" type="curve" smooth="yes"/>
      <point x="-95.66666666666666" y="1164.0"/>
      <point x="-78.0" y="1177.3333333333333"/>
      <point x="-66.0" y="1182.0" type="curve"/>
      <point x="-66.0" y="1182.0"/>
      <point x="-61.999999999999986" y="1189.9435651406043"/>
      <point x="-62.0" y="1192.0" type="curve"/>
      <point x="-59.33333333333333" y="1200.0"/>
      <point x="-59.33333333333333" y="1203.0"/>
      <point x="-62.0" y="1207.0" type="curve"/>
      <point x="-63.99999999999999" y="1209.6666666666665"/>
      <point x="-67.0" y="1211.0"/>
      <point x="-71.0" y="1211.0" type="curve"/>
      <point x="-81.0" y="1211.6666666666665"/>
      <point x="-91.0" y="1212.3333333333333"/>
      <point x="-101.0" y="1213.0" type="curve"/>
      <point x="-105" y="1213" type="line"/>
      <point x="-113" y="1212" type="line"/>
      <point x="-115" y="1229" type="line"/>
      <point x="-115" y="1234" type="line" smooth="yes"/>
      <point x="-114.99999999999999" y="1244.6666666666665"/>
      <point x="-112.33333333333331" y="1258.6666666666665"/>
      <point x="-107.0" y="1276.0" type="curve"/>
      <point x="-99.0" y="1297.3333333333333"/>
      <point x="-93.66666666666666" y="1310.3333333333333"/>
      <point x="-91.0" y="1315.0" type="curve"/>
      <point x="-74" y="1339" type="line"/>
      <point x="-16" y="1343" type="line" smooth="yes"/>
      <point x="0.0" y="1344.3333333333333"/>
      <point x="15.333333333333332" y="1345.0"/>
      <point x="30.0" y="1345.0" type="curve" smooth="yes"/>
      <point x="104.25550081637057" y="1345.0"/>
      <point x="149.02648423990343" y="1327.875383694668"/>
      <point x="178.0" y="1291.0" type="curve"/>
      <point x="182.40000000000006" y="1282.1999999999998"/>
      <point x="181.88888888888883" y="1266.7777777777774"/>
      <point x="177.0" y="1246.0" type="curve"/>
      <point x="172.33333333333331" y="1232.6666666666665"/>
      <point x="169.33333333333331" y="1224.6666666666665"/>
      <point x="168.0" y="1222.0" type="curve"/>
      <point x="161.33333333333331" y="1211.3333333333333"/>
      <point x="163.66666666666666" y="1204.0"/>
      <point x="175.0" y="1200.0" type="curve" smooth="yes"/>
      <point x="193.0" y="1192.6666666666665"/>
      <point x="208.0" y="1190.0"/>
      <point x="220.0" y="1192.0" type="curve"/>
      <point x="270.0" y="1195.3333333333333"/>
      <point x="300.0" y="1200.0"/>
      <point x="310.0" y="1206.0" type="curve"/>
      <point x="311.3333333333333" y="1206.0"/>
      <point x="327.66666666666663" y="1219.3333333333333"/>
      <point x="359.0" y="1246.0" type="curve"/>
      <point x="370.3333333333329" y="1248.8333333333326"/>
      <point x="380.38461538461536" y="1268.9999999999998"/>
      <point x="383.0" y="1303.0" type="curve"/>
      <point x="383" y="1303" type="line"/>
      <point x="385.9999999999997" y="1338.9999999999984"/>
      <point x="384.19999999999993" y="1361.7999999999997"/>
      <point x="383.0" y="1369.0" type="curve"/>
      <point x="383" y="1369" type="line"/>
      <point x="369.6666666666667" y="1454.3333333333328"/>
      <point x="362.0" y="1510.6666666666665"/>
      <point x="362.0" y="1540.0" type="curve" smooth="yes"/>
      <point x="362.0" y="1569.3333333333328"/>
      <point x="359.0" y="1614.9999999999993"/>
      <point x="355.0" y="1675.0" type="curve" smooth="yes"/>
      <point x="354.3333333333333" y="1682.9999999999998"/>
      <point x="349.66666666666663" y="1727.6666666666665"/>
      <point x="341.0" y="1809.0" type="curve" smooth="yes"/>
      <point x="339.66666666666674" y="1818.3333333333321"/>
      <point x="340.0" y="1823.3333333333328"/>
      <point x="340.0" y="1826.0" type="curve" smooth="yes"/>
      <point x="340.0" y="1831.333333333333"/>
      <point x="344.66666666666663" y="1838.333333333333"/>
      <point x="354.0" y="1847.0" type="curve"/>
      <point x="360" y="1852" type="line"/>
      <point x="363" y="1855" type="line"/>
      <point x="385" y="1888" type="line" smooth="yes"/>
      <point x="393.66666666666663" y="1900.6666666666665"/>
      <point x="401.3333333333333" y="1909.6666666666665"/>
      <point x="408.0" y="1915.0" type="curve"/>
      <point x="424" y="1930" type="line"/>
      <point x="440" y="1915" type="line"/>
      <point x="441" y="1915" type="line"/>
      <point x="444.3333333333333" y="1911.6666666666665"/>
      <point x="447.3333333333333" y="1906.0"/>
      <point x="450.0" y="1898.0" type="curve"/>
      <point x="452.888888888889" y="1880.6666666666658"/>
      <point x="450.52380952380963" y="1868.1428571428535"/>
      <point x="453.0" y="1831.0" type="curve" smooth="yes"/>
      <point x="453.66666666666663" y="1810.3333333333333"/>
      <point x="454.33333333333326" y="1792.6666666666665"/>
      <point x="455.0" y="1778.0" type="curve" smooth="yes"/>
      <point x="465.6666666666665" y="1637.9999999999995"/>
      <point x="473.33333333333326" y="1548.333333333333"/>
      <point x="476.0" y="1511.0" type="curve" smooth="yes"/>
      <point x="484.66666666666663" y="1415.0"/>
      <point x="495.0" y="1348.0"/>
      <point x="507.0" y="1310.0" type="curve" smooth="yes"/>
      <point x="513.6666666666666" y="1288.0"/>
      <point x="523.0" y="1269.6666666666665"/>
      <point x="535.0" y="1255.0" type="curve" smooth="yes"/>
      <point x="548.3333333333333" y="1237.0"/>
      <point x="559.6666666666666" y="1225.6666666666665"/>
      <point x="569.0" y="1221.0" type="curve"/>
      <point x="581.0" y="1213.6666666666665"/>
      <point x="593.6666666666666" y="1208.6666666666665"/>
      <point x="607.0" y="1206.0" type="curve" smooth="yes"/>
      <point x="620.3333333333331" y="1203.333333333333"/>
      <point x="631.6666666666665" y="1201.0"/>
      <point x="637.0" y="1201.0" type="curve" smooth="yes"/>
      <point x="638" y="1201" type="line" smooth="yes"/>
      <point x="639.3333333333333" y="1201.0"/>
      <point x="650.0" y="1203.6666666666665"/>
      <point x="670.0" y="1209.0" type="curve"/>
      <point x="670" y="1209" type="line"/>
      <point x="687.3333333333331" y="1214.333333333333"/>
      <point x="700.6666666666664" y="1219.6666666666665"/>
      <point x="714.0" y="1225.0" type="curve"/>
      <point x="715" y="1225" type="line"/>
      <point x="726.9999999999999" y="1231.6666666666665"/>
      <point x="740.3333333333331" y="1237.0"/>
      <point x="751.0" y="1245.0" type="curve"/>
      <point x="752.3333333333331" y="1245.0"/>
      <point x="750.6666666666664" y="1246.0"/>
      <point x="752.0" y="1246.0" type="curve"/>
      <point x="766.6666666666666" y="1257.3333333333333"/>
      <point x="778.6666666666666" y="1269.0"/>
      <point x="788.0" y="1281.0" type="curve" smooth="yes"/>
      <point x="814" y="1312" type="line"/>
      <point x="821" y="1277" type="line"/>
      <point x="822" y="1276" type="line"/>
      <point x="826.0" y="1262.6666666666665"/>
      <point x="834.0" y="1249.3333333333333"/>
      <point x="846.0" y="1236.0" type="curve"/>
      <point x="859" y="1223" type="line" smooth="yes"/>
      <point x="867.6666666666665" y="1214.3333333333333"/>
      <point x="875.3333333333333" y="1215.0"/>
      <point x="882.0" y="1225.0" type="curve"/>
      <point x="888.6666666666664" y="1236.9999999999998"/>
      <point x="905.3333333333328" y="1258.666666666666"/>
      <point x="928.0" y="1288.0" type="curve" smooth="yes"/>
      <point x="948.0" y="1313.3333333333333"/>
      <point x="970.3333333333333" y="1337.3333333333333"/>
      <point x="995.0" y="1360.0" type="curve" smooth="yes"/>
      <point x="1057.3642148183412" y="1416.6947407439463"/>
      <point x="1102.9801379304986" y="1443.0"/>
      <point x="1142.0" y="1443.0" type="curve" smooth="yes"/>
      <point x="1147.3333333333333" y="1443.0"/>
      <point x="1151.0" y="1442.6666666666665"/>
      <point x="1153.0" y="1442.0" type="curve"/>
      <point x="1209.5840442633541" y="1433.1980375590338"/>
      <point x="1251.810023560798" y="1405.2459198932859"/>
      <point x="1266.0" y="1357.0" type="curve" smooth="yes"/>
      <point x="1272.6666666666665" y="1336.3333333333333"/>
      <point x="1276.0" y="1317.3333333333333"/>
      <point x="1276.0" y="1300.0" type="curve" smooth="yes"/>
      <point x="1276.0" y="1283.368255056192"/>
      <point x="1264.666326197535" y="1258.332652395071"/>
      <point x="1251.5" y="1232.0" type="curve" smooth="yes"/>
      <point x="1239.0734931042778" y="1207.1469862085555"/>
      <point x="1229.7285896282692" y="1189.6200254795767"/>
      <point x="1225.0" y="1183.0" type="curve"/>
      <point x="1221.0" y="1176.3333333333333"/>
      <point x="1219.0" y="1173.0"/>
      <point x="1219.0" y="1173.0" type="curve"/>
      <point x="1208.3333333333333" y="1164.3333333333333"/>
      <point x="1195.0" y="1155.0"/>
      <point x="1179.0" y="1145.0" type="curve"/>
      <point x="1161.6666666666663" y="1135.6666666666665"/>
      <point x="1134.6666666666663" y="1121.0"/>
      <point x="1096.0" y="1105.0" type="curve" smooth="yes"/>
      <point x="1052.6666666666665" y="1087.6666666666665"/>
      <point x="1017.3333333333333" y="1077.0"/>
      <point x="990.0" y="1073.0" type="curve" smooth="yes"/>
      <point x="978.6666666666666" y="1071.0"/>
      <point x="966.0" y="1070.0"/>
      <point x="952.0" y="1070.0" type="curve" smooth="yes"/>
      <point x="913.3333333333333" y="1070.0"/>
      <point x="876.6666666666666" y="1077.3333333333333"/>
      <point x="842.0" y="1092.0" type="curve" smooth="yes"/>
      <point x="816.6666666666666" y="1102.6666666666665"/>
      <point x="795.6666666666666" y="1115.3333333333333"/>
      <point x="779.0" y="1130.0" type="curve"/>
      <point x="774.111111111111" y="1134.8888888888887"/>
      <point x="766.8" y="1136.333333333333"/>
      <point x="758.0" y="1129.0" type="curve"/>
      <point x="748.0" y="1119.0"/>
      <point x="736.0" y="1110.3333333333333"/>
      <point x="722.0" y="1103.0" type="curve" smooth="yes"/>
      <point x="610.5490196078429" y="1041.5098039215682"/>
      <point x="518.5624999999999" y="1068.5416666666665"/>
      <point x="442.0" y="1189.0" type="curve" smooth="yes"/>
      <point x="434.66666666666663" y="1199.6666666666665"/>
      <point x="426.66666666666663" y="1200.0"/>
      <point x="418.0" y="1190.0" type="curve" smooth="yes"/>
      <point x="411.99999999999994" y="1183.3333333333333"/>
      <point x="406.99999999999994" y="1176.6666666666665"/>
      <point x="403.0" y="1170.0" type="curve"/>
      <point x="384.3333333333333" y="1148.0"/>
      <point x="368.0" y="1132.3333333333333"/>
      <point x="354.0" y="1123.0" type="curve" smooth="yes"/>
      <point x="345.99999999999994" y="1117.6666666666665"/>
      <point x="330.9999999999998" y="1108.9999999999998"/>
      <point x="307.0" y="1093.0" type="curve" smooth="yes"/>
      <point x="293.66666666666663" y="1085.0"/>
      <point x="283.0" y="1081.0"/>
      <point x="275.0" y="1081.0" type="curve" smooth="yes"/>
      <point x="272" y="1081" type="line" smooth="yes"/>
      <point x="270.6666666666666" y="1081.0"/>
      <point x="269.3333333333332" y="1081.0"/>
    </contour>
    <contour>
      <point x="943.0" y="1177.0" type="curve"/>
      <point x="965.1666666666665" y="1169.083333333333"/>
      <point x="1007.0303030303029" y="1170.4848484848483"/>
      <point x="1060.0" y="1182.0" type="curve" smooth="yes"/>
      <point x="1113.3333333333328" y="1192.6666666666665"/>
      <point x="1150.6666666666663" y="1205.0"/>
      <point x="1172.0" y="1217.0" type="curve" smooth="yes"/>
      <point x="1178.0" y="1220.3333333333333"/>
      <point x="1180.6666666666665" y="1225.3333333333333"/>
      <point x="1180.0" y="1232.0" type="curve"/>
      <point x="1170.4585276377236" y="1291.974969134308"/>
      <point x="1150.8044871581956" y="1328.695131258138"/>
      <point x="1096.0" y="1330.0" type="curve" smooth="yes"/>
      <point x="1091.3333333333333" y="1330.0"/>
      <point x="1087.3333333333333" y="1330.0"/>
      <point x="1084.0" y="1330.0" type="curve"/>
      <point x="1045.7773588835241" y="1326.359748465097"/>
      <point x="1000.6230803710778" y="1286.2788504638468"/>
      <point x="966.0" y="1243.0" type="curve"/>
      <point x="954.0" y="1229.6666666666665"/>
      <point x="945.6666666666665" y="1219.6666666666665"/>
      <point x="943.0" y="1213.0" type="curve"/>
      <point x="928.4544231920435" y="1194.818028990054"/>
      <point x="935.6511684249858" y="1180.6744157875069"/>
    </contour>
  </outline>
</glyph>
<glyph name="uni0611" format="2">
  <advance width="951"/>
  <unicode hex="0611"/>
  <outline>
    <contour>
      <point x="444" y="1610"/>
      <point x="488" y="1591"/>
      <point x="530" y="1568" type="curve"/>
      <point x="570" y="1587"/>
      <point x="610" y="1605"/>
      <point x="650" y="1623" type="curve" smooth="yes"/>
      <point x="675" y="1634"/>
      <point x="756" y="1685"/>
      <point x="760" y="1625" type="curve" smooth="yes"/>
      <point x="761" y="1610"/>
      <point x="746" y="1591"/>
      <point x="741" y="1578" type="curve" smooth="yes"/>
      <point x="734" y="1560"/>
      <point x="731" y="1537"/>
      <point x="722" y="1521" type="curve" smooth="yes"/>
      <point x="712" y="1503"/>
      <point x="594" y="1459"/>
      <point x="566" y="1443" type="curve" smooth="yes"/>
      <point x="417" y="1358"/>
      <point x="261" y="1208"/>
      <point x="320" y="1018" type="curve" smooth="yes"/>
      <point x="358" y="895"/>
      <point x="501" y="853"/>
      <point x="618" y="862" type="curve" smooth="yes"/>
      <point x="668" y="866"/>
      <point x="718" y="879"/>
      <point x="766" y="891" type="curve" smooth="yes"/>
      <point x="793" y="898"/>
      <point x="886" y="938"/>
      <point x="908" y="931" type="curve" smooth="yes"/>
      <point x="958" y="916"/>
      <point x="891" y="856"/>
      <point x="876" y="845" type="curve"/>
      <point x="873" y="843" type="line"/>
      <point x="796" y="788"/>
      <point x="715" y="739"/>
      <point x="622" y="717" type="curve" smooth="yes"/>
      <point x="570" y="705"/>
      <point x="517" y="705"/>
      <point x="464" y="715" type="curve" smooth="yes"/>
      <point x="196" y="766"/>
      <point x="164" y="1047"/>
      <point x="245" y="1260" type="curve" smooth="yes"/>
      <point x="276" y="1342"/>
      <point x="332" y="1408"/>
      <point x="393" y="1470" type="curve"/>
      <point x="297" y="1556"/>
      <point x="277" y="1714"/>
      <point x="380" y="1805" type="curve" smooth="yes"/>
      <point x="414" y="1834"/>
      <point x="456" y="1853"/>
      <point x="502" y="1851" type="curve" smooth="yes"/>
      <point x="544" y="1849"/>
      <point x="581" y="1832"/>
      <point x="617" y="1812" type="curve"/>
      <point x="640" y="1800"/>
      <point x="684" y="1757"/>
      <point x="638" y="1739" type="curve" smooth="yes"/>
      <point x="611" y="1728"/>
      <point x="583" y="1742"/>
      <point x="556" y="1740" type="curve" smooth="yes"/>
      <point x="503" y="1737"/>
      <point x="452" y="1718"/>
      <point x="407" y="1691" type="curve"/>
      <point x="411" y="1680"/>
      <point x="414" y="1665"/>
      <point x="419" y="1655" type="curve"/>
    </contour>
    <contour>
      <point x="200" y="1607"/>
      <point x="231" y="1584"/>
      <point x="242" y="1549" type="curve" smooth="yes"/>
      <point x="258" y="1498"/>
      <point x="203" y="1433"/>
      <point x="179" y="1391" type="curve"/>
      <point x="118" y="1421"/>
      <point x="22" y="1416"/>
      <point x="-48" y="1412" type="curve"/>
      <point x="-31" y="1277"/>
      <point x="-25" y="1141"/>
      <point x="-13" y="1005" type="curve" smooth="yes"/>
      <point x="-5" y="906"/>
      <point x="29" y="734"/>
      <point x="-47" y="649" type="curve" smooth="yes"/>
      <point x="-66" y="627"/>
      <point x="-93" y="616"/>
      <point x="-117" y="602" type="curve"/>
      <point x="-103" y="692"/>
      <point x="-118" y="782"/>
      <point x="-126" y="872" type="curve" smooth="yes"/>
      <point x="-138" y="1013"/>
      <point x="-150" y="1155"/>
      <point x="-163" y="1296" type="curve"/>
      <point x="-165" y="1298" type="line"/>
      <point x="-168" y="1343"/>
      <point x="-180" y="1410"/>
      <point x="-150" y="1448" type="curve"/>
      <point x="-140" y="1460"/>
      <point x="-124" y="1467"/>
      <point x="-111" y="1476" type="curve"/>
      <point x="-79" y="1500"/>
      <point x="-42.61" y="1522.41"/>
      <point x="-22" y="1556" type="curve" smooth="yes"/>
      <point x="29.22" y="1639.49"/>
      <point x="74" y="1667"/>
      <point x="168" y="1622" type="curve" smooth="yes"/>
    </contour>
  </outline>
</glyph>
<glyph name="uni0612" format="2">
  <advance width="1036"/>
  <unicode hex="0612"/>
  <outline>
    <contour>
      <point x="-59" y="1604" type="line"/>
      <point x="-63.666666666666664" y="1618.0"/>
      <point x="-66.0" y="1629.6666666666665"/>
      <point x="-66.0" y="1639.0" type="curve" smooth="yes"/>
      <point x="-66.0" y="1644.3333333333333"/>
      <point x="-64.66666666666666" y="1654.6666666666665"/>
      <point x="-62.0" y="1670.0" type="curve" smooth="yes"/>
      <point x="-59.51170071039212" y="1688.6622446720592"/>
      <point x="-43.72580241971416" y="1721.1467778222564"/>
      <point x="-15.0" y="1747.0" type="curve"/>
      <point x="11.51696283753433" y="1773.5169628375343"/>
      <point x="61.31843802255426" y="1800.9091577450142"/>
      <point x="123.0" y="1817.0" type="curve"/>
      <point x="127.0" y="1818.333333333333"/>
      <point x="136.66666666666666" y="1818.9999999999998"/>
      <point x="152.0" y="1819.0" type="curve" smooth="yes"/>
      <point x="187.33333333333331" y="1818.9999999999998"/>
      <point x="247.33333333333331" y="1813.333333333333"/>
      <point x="332.0" y="1802.0" type="curve" smooth="yes"/>
      <point x="460.0" y="1784.6666666666665"/>
      <point x="529.6666666666666" y="1775.6666666666665"/>
      <point x="541.0" y="1775.0" type="curve" smooth="yes"/>
      <point x="567.6666666666663" y="1773.666666666666"/>
      <point x="583.0" y="1773.9999999999995"/>
      <point x="587.0" y="1774.0" type="curve" smooth="yes"/>
      <point x="767" y="1776" type="line"/>
      <point x="770" y="1776" type="line"/>
      <point x="772" y="1775" type="line"/>
      <point x="771" y="1773" type="line"/>
      <point x="696" y="1632" type="line"/>
      <point x="694.6666666666666" y="1630.6666666666665"/>
      <point x="693.3333333333333" y="1629.9999999999998"/>
      <point x="692.0" y="1630.0" type="curve"/>
      <point x="688.0" y="1630.6666666666665"/>
      <point x="681.6666666666666" y="1631.0"/>
      <point x="673.0" y="1631.0" type="curve" smooth="yes"/>
      <point x="637.6666666666666" y="1631.0"/>
      <point x="595.0" y="1624.0"/>
      <point x="545.0" y="1610.0" type="curve" smooth="yes"/>
      <point x="425.66666666666663" y="1578.0"/>
      <point x="320.3333333333333" y="1524.6666666666665"/>
      <point x="229.0" y="1450.0" type="curve" smooth="yes"/>
      <point x="85.0" y="1331.3333333333333"/>
      <point x="8.0" y="1181.3333333333333"/>
      <point x="-2.0" y="1000.0" type="curve"/>
      <point x="-2" y="986" type="line" smooth="yes"/>
      <point x="-2.0" y="943.9999999999999"/>
      <point x="5.666666666666668" y="906.6666666666665"/>
      <point x="21.0" y="874.0" type="curve" smooth="yes"/>
      <point x="56.33333333333333" y="798.0"/>
      <point x="122.66666666666666" y="736.0"/>
      <point x="220.0" y="688.0" type="curve" smooth="yes"/>
      <point x="314.0" y="642.0"/>
      <point x="412.66666666666663" y="619.0"/>
      <point x="516.0" y="619.0" type="curve" smooth="yes"/>
      <point x="644.6666666666666" y="619.0"/>
      <point x="764.3333333333333" y="638.0"/>
      <point x="875.0" y="676.0" type="curve"/>
      <point x="876" y="676" type="line"/>
      <point x="925" y="696" type="line"/>
      <point x="930" y="694" type="line"/>
      <point x="932" y="693" type="line"/>
      <point x="929" y="689" type="line"/>
      <point x="886.3333333333333" y="653.0"/>
      <point x="860.6666666666665" y="630.6666666666665"/>
      <point x="850.0" y="624.0" type="curve"/>
      <point x="736.6666666666666" y="540.6666666666666"/>
      <point x="589.3333333333333" y="496.99999999999994"/>
      <point x="408.0" y="493.0" type="curve"/>
      <point x="398" y="493" type="line"/>
      <point x="343.3333333333333" y="492.99999999999994"/>
      <point x="289.3333333333333" y="500.99999999999994"/>
      <point x="236.0" y="517.0" type="curve" smooth="yes"/>
      <point x="119.99999999999999" y="553.0"/>
      <point x="29.0" y="620.3333333333333"/>
      <point x="-37.0" y="719.0" type="curve" smooth="yes"/>
      <point x="-69.0" y="766.9999999999999"/>
      <point x="-88.33333333333333" y="838.9999999999999"/>
      <point x="-95.0" y="935.0" type="curve"/>
      <point x="-96.33333333333329" y="942.9999999999995"/>
      <point x="-96.0" y="951.9999999999998"/>
      <point x="-96.0" y="960.0" type="curve" smooth="yes"/>
      <point x="-96.0" y="1177.8125891134277"/>
      <point x="-5.450438608280081" y="1374.3285649229647"/>
      <point x="178.0" y="1541.0" type="curve" smooth="yes"/>
      <point x="219.33333333333331" y="1578.333333333333"/>
      <point x="258.3333333333333" y="1608.333333333333"/>
      <point x="295.0" y="1631.0" type="curve"/>
      <point x="297" y="1633" type="line" smooth="yes"/>
      <point x="298.3333333333332" y="1634.333333333333"/>
      <point x="300.6666666666666" y="1637.6666666666665"/>
      <point x="302.0" y="1639.0" type="curve" smooth="yes"/>
      <point x="308.3570226039543" y="1645.3570226039535"/>
      <point x="305.3843001325222" y="1656.2019624834338"/>
      <point x="291.0" y="1658.0" type="curve"/>
      <point x="245.66666666666666" y="1670.6666666666665"/>
      <point x="206.33333333333331" y="1678.3333333333333"/>
      <point x="173.0" y="1681.0" type="curve" smooth="yes"/>
      <point x="155.66666666666666" y="1682.333333333333"/>
      <point x="145.66666666666663" y="1683.0"/>
      <point x="143.0" y="1683.0" type="curve" smooth="yes"/>
      <point x="70.33333333333333" y="1683.0"/>
      <point x="10.333333333333329" y="1664.3333333333333"/>
      <point x="-37.0" y="1627.0" type="curve"/>
      <point x="-38.33333333333333" y="1626.9999999999998"/>
      <point x="-39.0" y="1626.333333333333"/>
      <point x="-39.0" y="1625.0" type="curve"/>
      <point x="-57" y="1606" type="line"/>
    </contour>
    <contour>
      <point x="699.0" y="1057.0" type="curve" smooth="yes"/>
      <point x="762.3333333333333" y="1057.0"/>
      <point x="827.3333333333333" y="1065.6666666666665"/>
      <point x="894.0" y="1083.0" type="curve" smooth="yes"/>
      <point x="923.3333333333333" y="1090.3333333333333"/>
      <point x="968.9999999999999" y="1111.6666666666665"/>
      <point x="1031.0" y="1147.0" type="curve" smooth="yes"/>
      <point x="1079.6666666666665" y="1175.0"/>
      <point x="1122.0" y="1208.0"/>
      <point x="1158.0" y="1246.0" type="curve" smooth="yes"/>
      <point x="1160.0" y="1248.0"/>
      <point x="1161.3333333333333" y="1250.3333333333333"/>
      <point x="1162.0" y="1253.0" type="curve"/>
      <point x="1164.0" y="1265.0"/>
      <point x="1165.0" y="1277.6666666666665"/>
      <point x="1165.0" y="1291.0" type="curve" smooth="yes"/>
      <point x="1165.0" y="1365.6666666666665"/>
      <point x="1136.0" y="1446.3333333333333"/>
      <point x="1078.0" y="1533.0" type="curve"/>
      <point x="1077.3333333333333" y="1533.6666666666665"/>
      <point x="1077.0" y="1535.6666666666665"/>
      <point x="1077.0" y="1539.0" type="curve" smooth="yes"/>
      <point x="1077" y="1543" type="line"/>
      <point x="1117.0" y="1627.6666666666665"/>
      <point x="1139.6666666666665" y="1674.3333333333333"/>
      <point x="1145.0" y="1683.0" type="curve"/>
      <point x="1146.9999999999993" y="1686.9999999999993"/>
      <point x="1147.9999999999989" y="1689.9999999999989"/>
      <point x="1152.0" y="1694.0" type="curve"/>
      <point x="1162" y="1699" type="line"/>
      <point x="1164" y="1699" type="line"/>
      <point x="1166.0" y="1697.6666666666665"/>
      <point x="1168.6666666666665" y="1694.0"/>
      <point x="1172.0" y="1688.0" type="curve" smooth="yes"/>
      <point x="1234.0" y="1588.0"/>
      <point x="1265.0" y="1488.6666666666665"/>
      <point x="1265.0" y="1390.0" type="curve" smooth="yes"/>
      <point x="1265.0" y="1340.6666666666665"/>
      <point x="1255.6666666666665" y="1288.3333333333333"/>
      <point x="1237.0" y="1233.0" type="curve"/>
      <point x="1235.6666666666665" y="1227.6666666666665"/>
      <point x="1225.6666666666663" y="1208.666666666666"/>
      <point x="1211.0" y="1174.0" type="curve" smooth="yes"/>
      <point x="1208.3333333333333" y="1168.0"/>
      <point x="1205.3333333333333" y="1162.6666666666665"/>
      <point x="1202.0" y="1158.0" type="curve" smooth="yes"/>
      <point x="1163.3333333333333" y="1099.3333333333333"/>
      <point x="1118.3333333333333" y="1052.0"/>
      <point x="1067.0" y="1016.0" type="curve" smooth="yes"/>
      <point x="983.6666666666666" y="957.3333333333333"/>
      <point x="900.6666666666666" y="928.0"/>
      <point x="818.0" y="928.0" type="curve" smooth="yes"/>
      <point x="806.6666666666666" y="928.0"/>
      <point x="798.3333333333333" y="928.3333333333333"/>
      <point x="793.0" y="929.0" type="curve" smooth="yes"/>
      <point x="778.3333333333329" y="930.3333333333333"/>
      <point x="767.6666666666665" y="931.6666666666665"/>
      <point x="761.0" y="933.0" type="curve" smooth="yes"/>
      <point x="702.3333333333331" y="943.6666666666665"/>
      <point x="661.3333333333333" y="953.9999999999998"/>
      <point x="636.0" y="962.0" type="curve" smooth="yes"/>
      <point x="606.0" y="972.6666666666666"/>
      <point x="576.0" y="989.3333333333333"/>
      <point x="546.0" y="1012.0" type="curve" smooth="yes"/>
      <point x="528.0" y="1026.0"/>
      <point x="517.0" y="1034.0"/>
      <point x="513.0" y="1036.0" type="curve"/>
      <point x="513.0" y="1036.0"/>
      <point x="507.7326796757283" y="1039.9504902432036"/>
      <point x="503.0" y="1043.5" type="curve" smooth="yes"/>
      <point x="497.66666666666663" y="1047.5"/>
      <point x="496.77777777777777" y="1049.3333333333333"/>
      <point x="495.0" y="1052.0" type="curve"/>
      <point x="494.3333333333333" y="1052.6666666666665"/>
      <point x="493.0" y="1055.0"/>
      <point x="491.0" y="1059.0" type="curve" smooth="yes"/>
      <point x="489.26666666666654" y="1062.4666666666662"/>
      <point x="489.66666666666646" y="1073.75"/>
      <point x="494.0" y="1077.0" type="curve" smooth="yes"/>
      <point x="498.66666666666663" y="1080.3333333333333"/>
      <point x="501.66666666666663" y="1082.0"/>
      <point x="503.0" y="1082.0" type="curve"/>
      <point x="505.66666666666663" y="1082.6666666666665"/>
      <point x="509.3333333333333" y="1083.0"/>
      <point x="514.0" y="1083.0" type="curve" smooth="yes"/>
      <point x="520.6666666666666" y="1083.0"/>
      <point x="538.6666666666666" y="1079.3333333333333"/>
      <point x="568.0" y="1072.0" type="curve" smooth="yes"/>
      <point x="602.9357598761133" y="1062.6837973663696"/>
      <point x="645.4905612293281" y="1060.839068126824"/>
      <point x="672.0" y="1058.5" type="curve" smooth="yes"/>
      <point x="683.3333333333333" y="1057.5"/>
      <point x="692.3333333333333" y="1057.0"/>
    </contour>
  </outline>
</glyph>
